<svg width="79" height="78" viewBox="0 0 79 78" fill="none" xmlns="http://www.w3.org/2000/svg">
<rect x="1.5" y="1.5" width="76" height="75" rx="37.5" fill="#D2FF00"/>
<rect x="1.5" y="1.5" width="76" height="75" rx="37.5" stroke="#001407" stroke-width="3"/>
<path d="M25.7543 28.8636L30.5004 43.7827H30.6825L35.4382 28.8636H40.0405L33.2713 48.5H27.9212L21.1424 28.8636H25.7543ZM53.0563 34.511C52.9796 33.7376 52.6504 33.1367 52.0687 32.7085C51.487 32.2802 50.6976 32.0661 49.7005 32.0661C49.0229 32.0661 48.4508 32.1619 47.9842 32.3537C47.5176 32.5391 47.1596 32.7979 46.9103 33.1303C46.6674 33.4627 46.546 33.8398 46.546 34.2617C46.5332 34.6133 46.6067 34.9201 46.7665 35.1822C46.9327 35.4442 47.1596 35.6712 47.4473 35.8629C47.7349 36.0483 48.0673 36.2113 48.4444 36.3519C48.8216 36.4862 49.2243 36.6012 49.6525 36.6971L51.4167 37.119C52.2733 37.3107 53.0595 37.5664 53.7754 37.886C54.4913 38.2056 55.1113 38.5987 55.6355 39.0653C56.1596 39.532 56.5655 40.0817 56.8532 40.7145C57.1472 41.3473 57.2974 42.0728 57.3038 42.891C57.2974 44.0927 56.9906 45.1346 56.3833 46.0167C55.7825 46.8924 54.9132 47.5732 53.7754 48.0589C52.644 48.5384 51.2793 48.7781 49.6813 48.7781C48.0961 48.7781 46.7154 48.5352 45.5392 48.0494C44.3695 47.5636 43.4554 46.8445 42.7971 45.892C42.1451 44.9332 41.8031 43.7475 41.7711 42.3349H45.7885C45.8333 42.9933 46.0218 43.543 46.3542 43.984C46.693 44.4187 47.1436 44.7479 47.7061 44.9716C48.275 45.1889 48.9174 45.2976 49.6333 45.2976C50.3365 45.2976 50.9469 45.1953 51.4647 44.9908C51.9888 44.7862 52.3947 44.5018 52.6824 44.1374C52.97 43.7731 53.1138 43.3544 53.1138 42.8814C53.1138 42.4403 52.9828 42.0696 52.7207 41.7692C52.465 41.4687 52.0879 41.2131 51.5893 41.0021C51.0971 40.7912 50.4931 40.5994 49.7772 40.4268L47.639 39.8899C45.9835 39.4872 44.6763 38.8576 43.7175 38.0011C42.7587 37.1445 42.2825 35.9908 42.2889 34.5398C42.2825 33.3509 42.5989 32.3121 43.2381 31.4237C43.8837 30.5352 44.769 29.8416 45.894 29.343C47.019 28.8445 48.2974 28.5952 49.7292 28.5952C51.1866 28.5952 52.4586 28.8445 53.5453 29.343C54.6383 29.8416 55.4885 30.5352 56.0957 31.4237C56.7029 32.3121 57.0162 33.3413 57.0353 34.511H53.0563Z" fill="#001407"/>
</svg>
