<svg width="40" height="30" viewBox="0 0 40 30" fill="none" xmlns="http://www.w3.org/2000/svg">
<path d="M34.1 15.6626L22.85 26.9126C22.6723 27.0782 22.4372 27.1683 22.1943 27.164C21.9515 27.1597 21.7197 27.0613 21.548 26.8896C21.3762 26.7178 21.2778 26.4861 21.2735 26.2432C21.2692 26.0003 21.3594 25.7653 21.525 25.5876L31.1734 15.9376H5.9375C5.68886 15.9376 5.4504 15.8388 5.27459 15.663C5.09877 15.4872 5 15.2487 5 15.0001C5 14.7514 5.09877 14.513 5.27459 14.3371C5.4504 14.1613 5.68886 14.0626 5.9375 14.0626H31.1734L21.525 4.41255C21.3594 4.23483 21.2692 3.99978 21.2735 3.7569C21.2778 3.51402 21.3762 3.28229 21.548 3.11052C21.7197 2.93876 21.9515 2.84037 22.1943 2.83608C22.4372 2.8318 22.6723 2.92195 22.85 3.08755L34.1 14.3376C34.2756 14.5133 34.3742 14.7516 34.3742 15.0001C34.3742 15.2485 34.2756 15.4868 34.1 15.6626Z" fill="#001407"/>
</svg>
