<svg width="10" height="10" viewBox="0 0 10 10" fill="none" xmlns="http://www.w3.org/2000/svg">
<path d="M8.56067 4.88927C8.56083 4.97027 8.52879 5.04802 8.47162 5.10541C8.41445 5.16279 8.33682 5.19512 8.25582 5.19527L2.27359 5.20653L4.50552 7.42969C4.53395 7.45801 4.55652 7.49166 4.57195 7.52871C4.58738 7.56575 4.59535 7.60548 4.59543 7.64561C4.59551 7.68574 4.58768 7.7255 4.57239 7.7626C4.5571 7.79971 4.53465 7.83344 4.50633 7.86187C4.478 7.8903 4.44436 7.91287 4.40731 7.9283C4.37026 7.94373 4.33054 7.95171 4.29041 7.95179C4.25027 7.95186 4.21052 7.94403 4.17341 7.92874C4.13631 7.91345 4.10258 7.89101 4.07415 7.86268L1.3201 5.11899C1.29165 5.09068 1.26906 5.05704 1.25362 5.01999C1.23818 4.98294 1.23019 4.94321 1.23012 4.90307C1.23004 4.86293 1.23788 4.82317 1.25318 4.78606C1.26848 4.74896 1.29094 4.71523 1.31929 4.68681L4.06298 1.93276C4.12018 1.87535 4.19785 1.843 4.2789 1.84285C4.35995 1.8427 4.43775 1.87475 4.49516 1.93195C4.55258 1.98915 4.58493 2.06682 4.58508 2.14787C4.58523 2.22892 4.55318 2.30671 4.49598 2.36413L2.27244 4.59567L8.25467 4.58441C8.33567 4.58426 8.41342 4.61629 8.47081 4.67346C8.52819 4.73063 8.56052 4.80826 8.56067 4.88927Z" fill="#0C3C16"/>
</svg>
