<svg width="35" height="35" viewBox="0 0 35 35" fill="none" xmlns="http://www.w3.org/2000/svg">
<path d="M17.5 3.28125C14.6878 3.28125 11.9388 4.11517 9.60049 5.67754C7.26223 7.23992 5.43978 9.46058 4.36359 12.0587C3.28741 14.6569 3.00583 17.5158 3.55447 20.2739C4.1031 23.0321 5.4573 25.5656 7.44583 27.5542C9.43436 29.5427 11.9679 30.8969 14.7261 31.4455C17.4842 31.9942 20.3431 31.7126 22.9413 30.6364C25.5394 29.5602 27.7601 27.7378 29.3225 25.3995C30.8848 23.0613 31.7188 20.3122 31.7188 17.5C31.7148 13.7302 30.2155 10.1159 27.5498 7.45022C24.8841 4.78455 21.2698 3.28523 17.5 3.28125ZM17.5 29.5312C15.1204 29.5312 12.7943 28.8256 10.8158 27.5036C8.83727 26.1816 7.2952 24.3026 6.38458 22.1042C5.47396 19.9057 5.2357 17.4867 5.69993 15.1528C6.16416 12.819 7.31003 10.6752 8.99263 8.99262C10.6752 7.31002 12.819 6.16416 15.1528 5.69993C17.4867 5.2357 19.9057 5.47396 22.1042 6.38457C24.3026 7.29519 26.1816 8.83727 27.5036 10.8158C28.8256 12.7943 29.5313 15.1204 29.5313 17.5C29.5276 20.6898 28.2589 23.7479 26.0034 26.0034C23.7479 28.2589 20.6898 29.5276 17.5 29.5312ZM22.6488 15.6324C22.7505 15.734 22.8311 15.8547 22.8861 15.9875C22.9411 16.1202 22.9694 16.2625 22.9694 16.4062C22.9694 16.55 22.9411 16.6923 22.8861 16.825C22.8311 16.9578 22.7505 17.0785 22.6488 17.1801C22.5472 17.2817 22.4266 17.3623 22.2938 17.4173C22.161 17.4723 22.0187 17.5006 21.875 17.5006C21.7313 17.5006 21.589 17.4723 21.4562 17.4173C21.3234 17.3623 21.2028 17.2817 21.1012 17.1801L18.5938 14.6713V22.9688C18.5938 23.2588 18.4785 23.537 18.2734 23.7421C18.0683 23.9473 17.7901 24.0625 17.5 24.0625C17.2099 24.0625 16.9317 23.9473 16.7266 23.7421C16.5215 23.537 16.4063 23.2588 16.4063 22.9688V14.6713L13.8988 17.1801C13.6936 17.3853 13.4152 17.5006 13.125 17.5006C12.8348 17.5006 12.5564 17.3853 12.3512 17.1801C12.1459 16.9748 12.0306 16.6965 12.0306 16.4062C12.0306 16.116 12.1459 15.8377 12.3512 15.6324L16.7262 11.2574C16.8278 11.1557 16.9484 11.0751 17.0812 11.02C17.2139 10.965 17.3563 10.9366 17.5 10.9366C17.6437 10.9366 17.7861 10.965 17.9188 11.02C18.0516 11.0751 18.1723 11.1557 18.2738 11.2574L22.6488 15.6324Z" fill="#001407"/>
</svg>
