<svg width="10" height="10" viewBox="0 0 10 10" fill="none" xmlns="http://www.w3.org/2000/svg">
<g clip-path="url(#clip0_3804_638)">
<path d="M7.64119 0.967734L1.2273 0.97981C0.984294 0.980267 0.75142 1.07724 0.579909 1.2494C0.408399 1.42156 0.312303 1.65479 0.31276 1.8978L0.319661 5.56288C0.320118 5.80589 0.417092 6.03876 0.589249 6.21027C0.761407 6.38178 0.994645 6.47788 1.23765 6.47742L7.65154 6.46535C7.89455 6.46489 8.12742 6.36792 8.29893 6.19576C8.47044 6.0236 8.56654 5.79036 8.56608 5.54735L8.55918 1.88228C8.55872 1.63927 8.46175 1.40639 8.28959 1.23488C8.11743 1.06337 7.8842 0.967277 7.64119 0.967734ZM7.95523 5.5485C7.95539 5.62951 7.92336 5.70725 7.86618 5.76464C7.80901 5.82202 7.73139 5.85435 7.65039 5.8545L1.2365 5.86658C1.1555 5.86673 1.07776 5.8347 1.02037 5.77753C0.962984 5.72036 0.930659 5.64273 0.930506 5.56173L0.923606 1.89665C0.923454 1.81565 0.955486 1.7379 1.01266 1.68052C1.06983 1.62313 1.14745 1.59081 1.22845 1.59066L7.64234 1.57858C7.72334 1.57843 7.80109 1.61046 7.85847 1.66763C7.91586 1.7248 7.94818 1.80242 7.94833 1.88343L7.95523 5.5485ZM5.5061 2.49887L5.5107 4.94226C5.51085 5.02326 5.47882 5.10101 5.42165 5.15839C5.36448 5.21578 5.28686 5.2481 5.20585 5.24826C5.12485 5.24841 5.0471 5.21638 4.98972 5.15921C4.93233 5.10204 4.90001 5.02441 4.89985 4.94341L4.89525 2.50002C4.8951 2.41902 4.92713 2.34128 4.9843 2.28389C5.04147 2.2265 5.1191 2.19418 5.2001 2.19403C5.28111 2.19387 5.35885 2.22591 5.41624 2.28308C5.47362 2.34025 5.50595 2.41787 5.5061 2.49887ZM3.97899 2.50175L3.98359 4.94513C3.98374 5.02614 3.95171 5.10388 3.89454 5.16127C3.83737 5.21865 3.75974 5.25098 3.67874 5.25113C3.59773 5.25128 3.51999 5.21925 3.4626 5.16208C3.40522 5.10491 3.37289 5.02729 3.37274 4.94628L3.36814 2.5029C3.36799 2.4219 3.40002 2.34415 3.45719 2.28676C3.51436 2.22938 3.59198 2.19705 3.67299 2.1969C3.75399 2.19675 3.83174 2.22878 3.88912 2.28595C3.94651 2.34312 3.97883 2.42075 3.97899 2.50175ZM2.45187 2.50462L2.45647 4.94801C2.45662 5.02901 2.42459 5.10676 2.36742 5.16414C2.31025 5.22153 2.23263 5.25385 2.15162 5.25401C2.07062 5.25416 1.99287 5.22213 1.93549 5.16496C1.8781 5.10779 1.84578 5.03016 1.84563 4.94916L1.84103 2.50577C1.84087 2.42477 1.8729 2.34703 1.93007 2.28964C1.98724 2.23225 2.06487 2.19993 2.14587 2.19978C2.22688 2.19962 2.30462 2.23166 2.36201 2.28883C2.41939 2.346 2.45172 2.42362 2.45187 2.50462ZM9.78202 2.49082L9.78662 4.93421C9.78677 5.01521 9.75474 5.09296 9.69757 5.15034C9.6404 5.20773 9.56278 5.24005 9.48177 5.24021C9.40077 5.24036 9.32302 5.20833 9.26564 5.15116C9.20825 5.09399 9.17593 5.01636 9.17578 4.93536L9.17118 2.49197C9.17102 2.41097 9.20306 2.33322 9.26022 2.27584C9.3174 2.21845 9.39502 2.18613 9.47602 2.18598C9.55703 2.18582 9.63477 2.21786 9.69216 2.27503C9.74954 2.3322 9.78187 2.40982 9.78202 2.49082Z" fill="#04340E"/>
</g>
<defs>
<clipPath id="clip0_3804_638">
<rect width="9.77314" height="9.77314" fill="white" transform="translate(0 0.0184001) rotate(-0.107872)"/>
</clipPath>
</defs>
</svg>
