<svg width="40" height="40" viewBox="0 0 40 40" fill="none" xmlns="http://www.w3.org/2000/svg">
<g clip-path="url(#clip0_3885_577)">
<path d="M34.3864 27.6469C33.502 26.125 32.188 21.8328 32.188 16.25C32.188 13.0177 30.9039 9.91774 28.6183 7.63214C26.3327 5.34654 23.2328 4.0625 20.0005 4.0625C16.7681 4.0625 13.6682 5.34654 11.3826 7.63214C9.097 9.91774 7.81297 13.0177 7.81297 16.25C7.81297 21.8344 6.49734 26.125 5.61297 27.6469C5.41893 27.9791 5.31597 28.3567 5.31447 28.7415C5.31297 29.1263 5.413 29.5046 5.60445 29.8384C5.7959 30.1722 6.072 30.4495 6.40489 30.6425C6.73778 30.8355 7.11569 30.9372 7.50047 30.9375H14.138C14.3657 32.3273 15.08 33.5909 16.1533 34.5026C17.2266 35.4144 18.589 35.915 19.9973 35.915C21.4056 35.915 22.7681 35.4144 23.8414 34.5026C24.9147 33.5909 25.629 32.3273 25.8567 30.9375H32.5005C32.885 30.9367 33.2625 30.8345 33.5949 30.6413C33.9274 30.4481 34.2031 30.1707 34.3941 29.8371C34.5852 29.5034 34.685 29.1252 34.6833 28.7407C34.6817 28.3562 34.5787 27.9789 34.3848 27.6469H34.3864ZM20.0005 34.0625C19.0863 34.0622 18.1989 33.7536 17.4818 33.1865C16.7647 32.6194 16.2599 31.827 16.0489 30.9375H23.952C23.7411 31.827 23.2362 32.6194 22.5191 33.1865C21.8021 33.7536 20.9147 34.0622 20.0005 34.0625ZM32.7677 28.9062C32.7419 28.9541 32.7035 28.994 32.6567 29.0215C32.6099 29.0491 32.5564 29.0633 32.502 29.0625H7.50047C7.44613 29.0633 7.39263 29.0491 7.34579 29.0215C7.29895 28.994 7.26058 28.9541 7.23484 28.9062C7.20741 28.8587 7.19297 28.8049 7.19297 28.75C7.19297 28.6951 7.20741 28.6413 7.23484 28.5938C8.41765 26.5625 9.68797 21.8266 9.68797 16.25C9.68797 13.515 10.7745 10.8919 12.7084 8.95796C14.6424 7.02399 17.2654 5.9375 20.0005 5.9375C22.7355 5.9375 25.3585 7.02399 27.2925 8.95796C29.2265 10.8919 30.313 13.515 30.313 16.25C30.313 21.825 31.5848 26.5547 32.7677 28.5938C32.7951 28.6413 32.8095 28.6951 32.8095 28.75C32.8095 28.8049 32.7951 28.8587 32.7677 28.9062Z" fill="#001407"/>
<circle cx="24" cy="5" r="5" fill="#FF4D4D"/>
</g>
<defs>
<clipPath id="clip0_3885_577">
<rect width="40" height="40" fill="white"/>
</clipPath>
</defs>
</svg>
