<svg width="40" height="40" viewBox="0 0 40 40" fill="none" xmlns="http://www.w3.org/2000/svg">
<rect width="40" height="40" rx="10" fill="#D2FF00"/>
<path opacity="0.2" d="M36.25 25H3.75L7.26406 10.9469C7.33166 10.6765 7.4877 10.4364 7.70739 10.2648C7.92709 10.0933 8.19782 10 8.47656 10H31.5234C31.8022 10 32.0729 10.0933 32.2926 10.2648C32.5123 10.4364 32.6683 10.6765 32.7359 10.9469L36.25 25Z" fill="#001407"/>
<path d="M37.4625 24.6969L33.95 10.6438C33.8147 10.1026 33.5024 9.6223 33.0627 9.27915C32.623 8.936 32.0812 8.74974 31.5234 8.75H21.25V6.25C21.25 5.58696 20.9866 4.95107 20.5178 4.48223C20.0489 4.01339 19.413 3.75 18.75 3.75H12.5C11.837 3.75 11.2011 4.01339 10.7322 4.48223C10.2634 4.95107 10 5.58696 10 6.25V8.75H8.47656C7.91881 8.74974 7.37698 8.936 6.93728 9.27915C6.49758 9.6223 6.18526 10.1026 6.05 10.6438L2.5375 24.6969C2.51255 24.796 2.49995 24.8978 2.5 25V30C2.5 30.663 2.76339 31.2989 3.23223 31.7678C3.70107 32.2366 4.33696 32.5 5 32.5H35C35.663 32.5 36.2989 32.2366 36.7678 31.7678C37.2366 31.2989 37.5 30.663 37.5 30V25C37.5 24.8978 37.4875 24.796 37.4625 24.6969ZM12.5 6.25H18.75V8.75H12.5V6.25ZM8.47656 11.25H31.5234L34.6484 23.75H5.35156L8.47656 11.25ZM5 30V26.25H35V30H5ZM10 15C10 14.6685 10.1317 14.3505 10.3661 14.1161C10.6005 13.8817 10.9185 13.75 11.25 13.75H13.75C14.0815 13.75 14.3995 13.8817 14.6339 14.1161C14.8683 14.3505 15 14.6685 15 15C15 15.3315 14.8683 15.6495 14.6339 15.8839C14.3995 16.1183 14.0815 16.25 13.75 16.25H11.25C10.9185 16.25 10.6005 16.1183 10.3661 15.8839C10.1317 15.6495 10 15.3315 10 15ZM17.5 15C17.5 14.6685 17.6317 14.3505 17.8661 14.1161C18.1005 13.8817 18.4185 13.75 18.75 13.75H21.25C21.5815 13.75 21.8995 13.8817 22.1339 14.1161C22.3683 14.3505 22.5 14.6685 22.5 15C22.5 15.3315 22.3683 15.6495 22.1339 15.8839C21.8995 16.1183 21.5815 16.25 21.25 16.25H18.75C18.4185 16.25 18.1005 16.1183 17.8661 15.8839C17.6317 15.6495 17.5 15.3315 17.5 15ZM25 15C25 14.6685 25.1317 14.3505 25.3661 14.1161C25.6005 13.8817 25.9185 13.75 26.25 13.75H28.75C29.0815 13.75 29.3995 13.8817 29.6339 14.1161C29.8683 14.3505 30 14.6685 30 15C30 15.3315 29.8683 15.6495 29.6339 15.8839C29.3995 16.1183 29.0815 16.25 28.75 16.25H26.25C25.9185 16.25 25.6005 16.1183 25.3661 15.8839C25.1317 15.6495 25 15.3315 25 15ZM10 20C10 19.6685 10.1317 19.3505 10.3661 19.1161C10.6005 18.8817 10.9185 18.75 11.25 18.75H13.75C14.0815 18.75 14.3995 18.8817 14.6339 19.1161C14.8683 19.3505 15 19.6685 15 20C15 20.3315 14.8683 20.6495 14.6339 20.8839C14.3995 21.1183 14.0815 21.25 13.75 21.25H11.25C10.9185 21.25 10.6005 21.1183 10.3661 20.8839C10.1317 20.6495 10 20.3315 10 20ZM17.5 20C17.5 19.6685 17.6317 19.3505 17.8661 19.1161C18.1005 18.8817 18.4185 18.75 18.75 18.75H21.25C21.5815 18.75 21.8995 18.8817 22.1339 19.1161C22.3683 19.3505 22.5 19.6685 22.5 20C22.5 20.3315 22.3683 20.6495 22.1339 20.8839C21.8995 21.1183 21.5815 21.25 21.25 21.25H18.75C18.4185 21.25 18.1005 21.1183 17.8661 20.8839C17.6317 20.6495 17.5 20.3315 17.5 20ZM25 20C25 19.6685 25.1317 19.3505 25.3661 19.1161C25.6005 18.8817 25.9185 18.75 26.25 18.75H28.75C29.0815 18.75 29.3995 18.8817 29.6339 19.1161C29.8683 19.3505 30 19.6685 30 20C30 20.3315 29.8683 20.6495 29.6339 20.8839C29.3995 21.1183 29.0815 21.25 28.75 21.25H26.25C25.9185 21.25 25.6005 21.1183 25.3661 20.8839C25.1317 20.6495 25 20.3315 25 20Z" fill="#001407"/>
</svg>
