<svg width="24" height="24" viewBox="0 0 24 24" fill="none" xmlns="http://www.w3.org/2000/svg">
<path d="M14.25 3.6875H19.5C19.5166 3.6875 19.5322 3.69433 19.5439 3.70605C19.5557 3.71777 19.5625 3.73342 19.5625 3.75V19.4375H21C21.0166 19.4375 21.0322 19.4443 21.0439 19.4561C21.0557 19.4678 21.0625 19.4834 21.0625 19.5C21.0625 19.5166 21.0557 19.5322 21.0439 19.5439C21.0322 19.5557 21.0166 19.5625 21 19.5625H3C2.98342 19.5625 2.96777 19.5557 2.95605 19.5439C2.94433 19.5322 2.9375 19.5166 2.9375 19.5C2.9375 19.4834 2.94433 19.4678 2.95605 19.4561C2.96777 19.4443 2.98342 19.4375 3 19.4375H4.4375V12.75C4.4375 12.7334 4.44433 12.7178 4.45605 12.7061C4.46777 12.6943 4.48342 12.6875 4.5 12.6875H8.9375V8.25C8.9375 8.23342 8.94433 8.21778 8.95605 8.20605C8.96778 8.19433 8.98342 8.1875 9 8.1875H14.1875V3.75C14.1875 3.73342 14.1943 3.71777 14.2061 3.70605C14.2178 3.69433 14.2334 3.6875 14.25 3.6875ZM4.5625 19.4375H8.9375V12.8125H4.5625V19.4375ZM9.0625 19.4375H14.1875V8.3125H9.0625V19.4375ZM14.3125 19.4375H19.4375V3.8125H14.3125V19.4375Z" fill="white" stroke="white"/>
</svg>
