<svg width="40" height="40" viewBox="0 0 40 40" fill="none" xmlns="http://www.w3.org/2000/svg">
<rect width="40" height="40" rx="10" fill="#D2FF00"/>
<path opacity="0.2" d="M35 19.9999C35.0003 22.6342 34.3069 25.2221 32.9895 27.5033C31.6721 29.7845 29.7772 31.6786 27.4953 32.9949C25.2135 34.3112 22.6253 35.0034 19.991 35.0018C17.3567 35.0002 14.7693 34.3049 12.4891 32.9859L6.64688 34.9343C6.42663 35.0078 6.19028 35.0184 5.96432 34.9651C5.73836 34.9118 5.53171 34.7966 5.36754 34.6324C5.20337 34.4682 5.08817 34.2616 5.03484 34.0356C4.98152 33.8096 4.99218 33.5733 5.06563 33.3531L7.01406 27.5109C5.86236 25.5188 5.1844 23.2884 5.03266 20.9924C4.88091 18.6963 5.25944 16.3962 6.13895 14.2698C7.01847 12.1435 8.37539 10.248 10.1047 8.73004C11.8341 7.21207 13.8895 6.11231 16.1119 5.51586C18.3343 4.9194 20.6641 4.84224 22.9211 5.29035C25.1781 5.73846 27.3017 6.69982 29.1277 8.10004C30.9537 9.50027 32.4331 11.3018 33.4513 13.3653C34.4696 15.4288 34.9995 17.6989 35 19.9999Z" fill="#001407"/>
<path d="M19.9999 3.75C17.1944 3.74939 14.4365 4.47514 11.9947 5.85661C9.55283 7.23808 7.51027 9.22821 6.06578 11.6333C4.62129 14.0384 3.82407 16.7764 3.75174 19.581C3.67941 22.3856 4.33442 25.1612 5.65301 27.6375L3.87957 32.9578C3.73267 33.3983 3.71135 33.871 3.81801 34.3229C3.92466 34.7749 4.15506 35.1881 4.4834 35.5165C4.81174 35.8448 5.22503 36.0752 5.67696 36.1819C6.12888 36.2885 6.60158 36.2672 7.04207 36.1203L12.3624 34.3469C14.5417 35.506 16.9565 36.1534 19.4234 36.24C21.8903 36.3266 24.3445 35.85 26.5997 34.8465C28.8549 33.8429 30.8518 32.3388 32.439 30.4483C34.0261 28.5577 35.1616 26.3304 35.7595 23.9355C36.3573 21.5406 36.4016 19.0409 35.8891 16.6263C35.3767 14.2117 34.3208 11.9455 32.8018 9.99987C31.2828 8.05421 29.3404 6.48019 27.1222 5.39727C24.904 4.31436 22.4683 3.75101 19.9999 3.75ZM19.9999 33.75C17.5827 33.7516 15.2078 33.1151 13.1155 31.9047C12.9256 31.7945 12.71 31.7363 12.4905 31.7359C12.356 31.736 12.2225 31.7582 12.0952 31.8016L6.24988 33.75L8.19832 27.9062C8.25449 27.7383 8.27434 27.5604 8.25656 27.3842C8.23878 27.2081 8.18378 27.0377 8.0952 26.8844C6.57953 24.2639 5.97099 21.2165 6.36399 18.2149C6.75699 15.2133 8.12956 12.4253 10.2688 10.2834C12.408 8.14151 15.1942 6.76542 18.1953 6.36863C21.1964 5.97184 24.2446 6.57652 26.867 8.08888C29.4893 9.60124 31.5393 11.9367 32.6989 14.733C33.8585 17.5294 34.0628 20.6302 33.2802 23.5545C32.4977 26.4788 30.7719 29.0632 28.3707 30.9066C25.9695 32.75 23.0271 33.7495 19.9999 33.75ZM21.8749 20C21.8749 20.3708 21.7649 20.7334 21.5589 21.0417C21.3529 21.35 21.06 21.5904 20.7174 21.7323C20.3748 21.8742 19.9978 21.9113 19.6341 21.839C19.2704 21.7666 18.9363 21.588 18.6741 21.3258C18.4118 21.0636 18.2333 20.7295 18.1609 20.3658C18.0886 20.0021 18.1257 19.6251 18.2676 19.2825C18.4095 18.9399 18.6498 18.647 18.9582 18.441C19.2665 18.235 19.629 18.125 19.9999 18.125C20.4972 18.125 20.9741 18.3225 21.3257 18.6742C21.6773 19.0258 21.8749 19.5027 21.8749 20ZM14.9999 20C14.9999 20.3708 14.8899 20.7334 14.6839 21.0417C14.4779 21.35 14.185 21.5904 13.8424 21.7323C13.4998 21.8742 13.1228 21.9113 12.7591 21.839C12.3954 21.7666 12.0613 21.588 11.7991 21.3258C11.5368 21.0636 11.3583 20.7295 11.2859 20.3658C11.2136 20.0021 11.2507 19.6251 11.3926 19.2825C11.5345 18.9399 11.7748 18.647 12.0832 18.441C12.3915 18.235 12.754 18.125 13.1249 18.125C13.6222 18.125 14.0991 18.3225 14.4507 18.6742C14.8023 19.0258 14.9999 19.5027 14.9999 20ZM28.7499 20C28.7499 20.3708 28.6399 20.7334 28.4339 21.0417C28.2279 21.35 27.935 21.5904 27.5924 21.7323C27.2498 21.8742 26.8728 21.9113 26.5091 21.839C26.1454 21.7666 25.8113 21.588 25.5491 21.3258C25.2868 21.0636 25.1083 20.7295 25.0359 20.3658C24.9636 20.0021 25.0007 19.6251 25.1426 19.2825C25.2845 18.9399 25.5248 18.647 25.8332 18.441C26.1415 18.235 26.504 18.125 26.8749 18.125C27.3722 18.125 27.8491 18.3225 28.2007 18.6742C28.5523 19.0258 28.7499 19.5027 28.7499 20Z" fill="#001407"/>
</svg>
