<svg width="24" height="24" viewBox="0 0 24 24" fill="none" xmlns="http://www.w3.org/2000/svg">
<path d="M8.84473 2.94019C9.75919 2.91947 10.6687 3.08337 11.5186 3.42163C12.3682 3.75987 13.141 4.26562 13.791 4.90894C14.4411 5.55243 14.9558 6.32037 15.3027 7.16675L15.416 7.44312L15.7129 7.47437C16.8054 7.58905 17.8543 7.9665 18.7695 8.57397C19.6844 9.18134 20.4389 10.0008 20.9688 10.9626C21.4986 11.9248 21.7883 13.0012 21.8125 14.0994C21.8367 15.1976 21.5945 16.2857 21.1074 17.2703L21.0215 17.446L21.0762 17.6335L21.7783 20.0164L21.7793 20.0183C21.8211 20.1586 21.824 20.308 21.7881 20.45C21.7522 20.5918 21.6787 20.7214 21.5752 20.825C21.4716 20.9286 21.3413 21.0019 21.1992 21.0378C21.0573 21.0737 20.9079 21.0709 20.7676 21.0291H20.7666L18.3867 20.3269L18.1992 20.2712L18.0244 20.3582C17.1861 20.7728 16.271 21.0097 15.3369 21.0554C14.4028 21.1012 13.4686 20.9546 12.5938 20.6238C11.7192 20.293 10.922 19.7857 10.252 19.1335C9.58175 18.4812 9.0525 17.6974 8.69824 16.8318L8.58496 16.5554L8.28809 16.5242L7.98828 16.4861C7.29204 16.3817 6.61581 16.1693 5.9834 15.8572L5.80762 15.7712L5.62109 15.8259L3.23438 16.5281L3.23242 16.5291C3.09211 16.5709 2.94276 16.5737 2.80078 16.5378C2.65872 16.5019 2.52842 16.4286 2.4248 16.325C2.32134 16.2214 2.24783 16.0918 2.21191 15.95C2.17602 15.808 2.17886 15.6586 2.2207 15.5183L2.22168 15.5164L2.92383 13.1335L2.97852 12.946L2.89258 12.7703C2.48719 11.9504 2.25108 11.0574 2.19824 10.1443C2.14545 9.23107 2.2767 8.31607 2.58496 7.45483C2.89322 6.59364 3.37191 5.80289 3.99219 5.13062C4.61242 4.45847 5.36177 3.91814 6.19531 3.54175C7.029 3.1653 7.93022 2.96092 8.84473 2.94019ZM15.6465 8.2771C15.8597 9.23539 15.863 10.2285 15.6562 11.1882C15.4494 12.148 15.0372 13.0521 14.4482 13.8376C13.8592 14.6232 13.1067 15.2725 12.2432 15.74C11.3798 16.2073 10.425 16.4819 9.44531 16.5457L8.69043 16.5955L9.03223 17.2703C9.43447 18.065 9.99098 18.7719 10.6699 19.3484C11.349 19.9249 12.1368 20.3596 12.9863 20.6277C13.8358 20.8957 14.7302 20.9913 15.6172 20.9089C16.5036 20.8266 17.3642 20.5677 18.1494 20.1482L18.1504 20.1492C18.1654 20.1412 18.1828 20.1382 18.1992 20.1423V20.1433L20.8027 20.9089H20.8037C20.922 20.9434 21.0476 20.9454 21.167 20.9148C21.2863 20.8842 21.3953 20.8222 21.4824 20.7351C21.5695 20.648 21.6315 20.539 21.6621 20.4197C21.6927 20.3003 21.6908 20.1747 21.6562 20.0564V20.0554L21.0781 18.0935H21.085L20.8926 17.45C20.8876 17.4332 20.8884 17.4147 20.8965 17.3992C21.3904 16.4737 21.6597 15.445 21.6826 14.3962C21.7055 13.3457 21.481 12.3045 21.0264 11.3572C20.5717 10.4098 19.9004 9.58251 19.0664 8.94312C18.2325 8.30378 17.2594 7.87067 16.2266 7.67749L15.4814 7.53784L15.6465 8.2771ZM9.48828 3.08179C7.88905 2.96389 6.30067 3.42437 5.0127 4.37964C3.72467 5.33507 2.82286 6.72209 2.47168 8.28687C2.12064 9.8514 2.34263 11.49 3.09863 12.9041C3.10667 12.9194 3.10835 12.9372 3.10352 12.9539L2.33887 15.5554L2.33789 15.5564C2.30339 15.6747 2.30147 15.8003 2.33203 15.9197C2.36259 16.039 2.42469 16.148 2.51172 16.2351C2.59876 16.3222 2.70793 16.3842 2.82715 16.4148C2.94648 16.4454 3.07215 16.4434 3.19043 16.4089H3.19141L5.79492 15.6433L5.79395 15.6423C5.79984 15.6407 5.80638 15.6404 5.8125 15.6404H5.81348C5.82372 15.6404 5.83374 15.6434 5.84277 15.6482C7.25699 16.4044 8.89616 16.6273 10.4609 16.2761C12.0256 15.925 13.4118 15.023 14.3672 13.7351C15.3225 12.4472 15.7838 10.8588 15.666 9.25952C15.5481 7.66028 14.8594 6.15618 13.7256 5.02222C12.5916 3.88827 11.0876 3.19974 9.48828 3.08179Z" fill="white" stroke="white"/>
</svg>
