<svg width="10" height="10" viewBox="0 0 10 10" fill="none" xmlns="http://www.w3.org/2000/svg">
<path d="M4.89419 3.67409C4.65256 3.67455 4.4165 3.74664 4.21584 3.88126C4.01519 4.01588 3.85896 4.20698 3.76691 4.43039C3.67487 4.6538 3.65114 4.89948 3.69872 5.13638C3.74631 5.37328 3.86307 5.59074 4.03425 5.76128C4.20543 5.93181 4.42333 6.04776 4.66041 6.09445C4.89748 6.14114 5.14308 6.11649 5.36614 6.0236C5.5892 5.93071 5.77971 5.77377 5.91357 5.57261C6.04743 5.37145 6.11864 5.13511 6.11818 4.89348C6.11757 4.56947 5.98827 4.25897 5.75873 4.03029C5.52919 3.80161 5.2182 3.67348 4.89419 3.67409ZM4.89764 5.50663C4.77683 5.50686 4.65866 5.47125 4.55808 5.40432C4.4575 5.33739 4.37903 5.24214 4.33258 5.13061C4.28614 5.01908 4.27381 4.89628 4.29716 4.77774C4.3205 4.6592 4.37848 4.55025 4.46374 4.46466C4.54901 4.37907 4.65774 4.32069 4.77619 4.2969C4.89464 4.27311 5.01748 4.28497 5.12919 4.33099C5.24089 4.37702 5.33644 4.45513 5.40375 4.55546C5.47106 4.65579 5.50711 4.77382 5.50734 4.89463C5.50764 5.05664 5.44358 5.21213 5.32924 5.3269C5.2149 5.44168 5.05965 5.50632 4.89764 5.50663ZM4.89304 3.06324C5.13467 3.06279 5.37074 2.99069 5.57139 2.85607C5.77204 2.72146 5.92827 2.53036 6.02032 2.30695C6.11236 2.08354 6.1361 1.83785 6.08851 1.60096C6.04092 1.36406 5.92416 1.14659 5.75298 0.976059C5.5818 0.805524 5.3639 0.689579 5.12683 0.642886C4.88975 0.596193 4.64416 0.620849 4.42109 0.713736C4.19803 0.806624 4.00753 0.96357 3.87366 1.16473C3.7398 1.36589 3.66859 1.60222 3.66905 1.84385C3.66966 2.16787 3.79896 2.47837 4.0285 2.70705C4.25804 2.93573 4.56903 3.06385 4.89304 3.06324ZM4.88959 1.23071C5.0104 1.23048 5.12857 1.26608 5.22915 1.33301C5.32973 1.39995 5.40821 1.4952 5.45465 1.60673C5.50109 1.71826 5.51342 1.84106 5.49007 1.95959C5.46673 2.07813 5.40875 2.18708 5.32349 2.27267C5.23822 2.35826 5.12949 2.41664 5.01104 2.44044C4.89259 2.46423 4.76975 2.45236 4.65804 2.40634C4.54634 2.36032 4.45079 2.2822 4.38348 2.18188C4.31617 2.08155 4.28012 1.96352 4.27989 1.8427C4.27959 1.6807 4.34365 1.5252 4.45799 1.41043C4.57233 1.29566 4.72758 1.23101 4.88959 1.23071ZM4.89994 6.72832C4.65831 6.72878 4.42225 6.80087 4.22159 6.93549C4.02094 7.07011 3.86471 7.26121 3.77266 7.48462C3.68062 7.70803 3.65689 7.95371 3.70447 8.19061C3.75206 8.42751 3.86882 8.64497 4.04 8.81551C4.21118 8.98604 4.42908 9.10199 4.66616 9.14868C4.90323 9.19537 5.14883 9.17072 5.37189 9.07783C5.59495 8.98494 5.78546 8.828 5.91932 8.62684C6.05318 8.42568 6.12439 8.18934 6.12393 7.94771C6.12332 7.6237 5.99402 7.3132 5.76448 7.08452C5.53494 6.85584 5.22395 6.72771 4.89994 6.72832ZM4.90339 8.56086C4.78258 8.56109 4.66441 8.52548 4.56383 8.45855C4.46325 8.39162 4.38478 8.29637 4.33833 8.18484C4.29189 8.07331 4.27956 7.95051 4.30291 7.83197C4.32625 7.71344 4.38423 7.60448 4.46949 7.51889C4.55476 7.4333 4.6635 7.37492 4.78194 7.35113C4.90039 7.32734 5.02324 7.3392 5.13494 7.38523C5.24664 7.43125 5.34219 7.50936 5.4095 7.60969C5.47681 7.71002 5.51286 7.82805 5.51309 7.94886C5.51339 8.11087 5.44933 8.26636 5.33499 8.38113C5.22065 8.49591 5.0654 8.56056 4.90339 8.56086Z" fill="#04340E"/>
</svg>
