<svg width="24" height="24" viewBox="0 0 24 24" fill="none" xmlns="http://www.w3.org/2000/svg">
<mask id="path-1-inside-1_211_490" fill="white">
<path d="M12 2.4375C10.1087 2.4375 8.25991 2.99833 6.68736 4.04907C5.11482 5.09981 3.88917 6.59327 3.16541 8.34059C2.44164 10.0879 2.25227 12.0106 2.62125 13.8656C2.99022 15.7205 3.90096 17.4244 5.2383 18.7617C6.57564 20.099 8.27951 21.0098 10.1345 21.3788C11.9894 21.7477 13.9121 21.5584 15.6594 20.8346C17.4067 20.1108 18.9002 18.8852 19.9509 17.3126C21.0017 15.7401 21.5625 13.8913 21.5625 12C21.5595 9.46478 20.5511 7.03425 18.7584 5.24158C16.9658 3.44891 14.5352 2.44048 12 2.4375ZM12.5625 20.4188V14.0625H15C15.1492 14.0625 15.2923 14.0032 15.3978 13.8977C15.5032 13.7923 15.5625 13.6492 15.5625 13.5C15.5625 13.3508 15.5032 13.2077 15.3978 13.1023C15.2923 12.9968 15.1492 12.9375 15 12.9375H12.5625V10.5C12.5625 10.0524 12.7403 9.62323 13.0568 9.30676C13.3732 8.99029 13.8025 8.8125 14.25 8.8125H15.75C15.8992 8.8125 16.0423 8.75324 16.1478 8.64775C16.2532 8.54226 16.3125 8.39918 16.3125 8.25C16.3125 8.10082 16.2532 7.95774 16.1478 7.85225C16.0423 7.74676 15.8992 7.6875 15.75 7.6875H14.25C13.5041 7.6875 12.7887 7.98382 12.2613 8.51126C11.7338 9.03871 11.4375 9.75408 11.4375 10.5V12.9375H9C8.85082 12.9375 8.70775 12.9968 8.60226 13.1023C8.49677 13.2077 8.4375 13.3508 8.4375 13.5C8.4375 13.6492 8.49677 13.7923 8.60226 13.8977C8.70775 14.0032 8.85082 14.0625 9 14.0625H11.4375V20.4188C9.25334 20.2728 7.21138 19.2837 5.74285 17.6604C4.27432 16.037 3.49419 13.9064 3.5672 11.7186C3.64021 9.53079 4.56064 7.45698 6.13413 5.93513C7.70761 4.41328 9.81097 3.56252 12 3.56252C14.189 3.56252 16.2924 4.41328 17.8659 5.93513C19.4394 7.45698 20.3598 9.53079 20.4328 11.7186C20.5058 13.9064 19.7257 16.037 18.2572 17.6604C16.7886 19.2837 14.7467 20.2728 12.5625 20.4188Z"/>
</mask>
<path d="M12 2.4375C10.1087 2.4375 8.25991 2.99833 6.68736 4.04907C5.11482 5.09981 3.88917 6.59327 3.16541 8.34059C2.44164 10.0879 2.25227 12.0106 2.62125 13.8656C2.99022 15.7205 3.90096 17.4244 5.2383 18.7617C6.57564 20.099 8.27951 21.0098 10.1345 21.3788C11.9894 21.7477 13.9121 21.5584 15.6594 20.8346C17.4067 20.1108 18.9002 18.8852 19.9509 17.3126C21.0017 15.7401 21.5625 13.8913 21.5625 12C21.5595 9.46478 20.5511 7.03425 18.7584 5.24158C16.9658 3.44891 14.5352 2.44048 12 2.4375ZM12.5625 20.4188V14.0625H15C15.1492 14.0625 15.2923 14.0032 15.3978 13.8977C15.5032 13.7923 15.5625 13.6492 15.5625 13.5C15.5625 13.3508 15.5032 13.2077 15.3978 13.1023C15.2923 12.9968 15.1492 12.9375 15 12.9375H12.5625V10.5C12.5625 10.0524 12.7403 9.62323 13.0568 9.30676C13.3732 8.99029 13.8025 8.8125 14.25 8.8125H15.75C15.8992 8.8125 16.0423 8.75324 16.1478 8.64775C16.2532 8.54226 16.3125 8.39918 16.3125 8.25C16.3125 8.10082 16.2532 7.95774 16.1478 7.85225C16.0423 7.74676 15.8992 7.6875 15.75 7.6875H14.25C13.5041 7.6875 12.7887 7.98382 12.2613 8.51126C11.7338 9.03871 11.4375 9.75408 11.4375 10.5V12.9375H9C8.85082 12.9375 8.70775 12.9968 8.60226 13.1023C8.49677 13.2077 8.4375 13.3508 8.4375 13.5C8.4375 13.6492 8.49677 13.7923 8.60226 13.8977C8.70775 14.0032 8.85082 14.0625 9 14.0625H11.4375V20.4188C9.25334 20.2728 7.21138 19.2837 5.74285 17.6604C4.27432 16.037 3.49419 13.9064 3.5672 11.7186C3.64021 9.53079 4.56064 7.45698 6.13413 5.93513C7.70761 4.41328 9.81097 3.56252 12 3.56252C14.189 3.56252 16.2924 4.41328 17.8659 5.93513C19.4394 7.45698 20.3598 9.53079 20.4328 11.7186C20.5058 13.9064 19.7257 16.037 18.2572 17.6604C16.7886 19.2837 14.7467 20.2728 12.5625 20.4188Z" fill="#F4F1EA"/>
<path d="M12 2.4375L12.0117 -7.5625H12V2.4375ZM21.5625 12H31.5625L31.5625 11.9883L21.5625 12ZM12.5625 20.4188H2.5625V31.1092L13.2292 30.3965L12.5625 20.4188ZM12.5625 14.0625V4.0625H2.5625V14.0625H12.5625ZM12.5625 12.9375H2.5625V22.9375H12.5625V12.9375ZM11.4375 12.9375V22.9375H21.4375V12.9375H11.4375ZM11.4375 14.0625H21.4375V4.0625H11.4375V14.0625ZM11.4375 20.4188L10.7708 30.3965L21.4375 31.1092V20.4188H11.4375ZM12 2.4375V-7.5625C8.13091 -7.5625 4.3487 -6.41518 1.13166 -4.26562L6.68736 4.04907L12.2431 12.3638C12.1711 12.4118 12.0865 12.4375 12 12.4375V2.4375ZM6.68736 4.04907L1.13166 -4.26562C-2.08538 -2.11607 -4.59275 0.939178 -6.07339 4.51376L3.16541 8.34059L12.4042 12.1674C12.3711 12.2474 12.315 12.3157 12.2431 12.3638L6.68736 4.04907ZM3.16541 8.34059L-6.07339 4.51376C-7.55403 8.08834 -7.94143 12.0217 -7.18661 15.8165L2.62125 13.8656L12.4291 11.9146C12.446 11.9995 12.4373 12.0875 12.4042 12.1674L3.16541 8.34059ZM2.62125 13.8656L-7.18661 15.8165C-6.43178 19.6112 -4.56864 23.0969 -1.83277 25.8328L5.2383 18.7617L12.3094 11.6906C12.3706 11.7518 12.4122 11.8298 12.4291 11.9146L2.62125 13.8656ZM5.2383 18.7617L-1.83277 25.8328C0.903093 28.5686 4.3888 30.4318 8.18355 31.1866L10.1345 21.3788L12.0854 11.5709C12.1702 11.5878 12.2482 11.6295 12.3094 11.6906L5.2383 18.7617ZM10.1345 21.3788L8.18355 31.1866C11.9783 31.9414 15.9117 31.554 19.4862 30.0734L15.6594 20.8346L11.8326 11.5958C11.9125 11.5627 12.0005 11.554 12.0854 11.5709L10.1345 21.3788ZM15.6594 20.8346L19.4862 30.0734C23.0608 28.5928 26.1161 26.0854 28.2656 22.8683L19.9509 17.3126L11.6362 11.7569C11.6843 11.685 11.7526 11.6289 11.8326 11.5958L15.6594 20.8346ZM19.9509 17.3126L28.2656 22.8683C30.4152 19.6513 31.5625 15.8691 31.5625 12H21.5625H11.5625C11.5625 11.9135 11.5882 11.8289 11.6362 11.7569L19.9509 17.3126ZM21.5625 12L31.5625 11.9883C31.5564 6.80495 29.4947 1.83567 25.8295 -1.82949L18.7584 5.24158L11.6874 12.3126C11.6075 12.2328 11.5626 12.1246 11.5625 12.0117L21.5625 12ZM18.7584 5.24158L25.8295 -1.82949C22.1643 -5.49465 17.1951 -7.55641 12.0117 -7.56249L12 2.4375L11.9883 12.4375C11.8754 12.4374 11.7672 12.3925 11.6874 12.3126L18.7584 5.24158ZM12.5625 20.4188H22.5625V14.0625H12.5625H2.5625V20.4188H12.5625ZM12.5625 14.0625V24.0625H15V14.0625V4.0625H12.5625V14.0625ZM15 14.0625V24.0625C17.8013 24.0625 20.4879 22.9497 22.4688 20.9688L15.3978 13.8977L8.32668 6.82668C10.0966 5.05679 12.4971 4.0625 15 4.0625V14.0625ZM15.3978 13.8977L22.4688 20.9688C24.4497 18.9879 25.5625 16.3013 25.5625 13.5H15.5625H5.5625C5.5625 10.997 6.55679 8.59657 8.32668 6.82668L15.3978 13.8977ZM15.5625 13.5H25.5625C25.5625 10.6987 24.4497 8.01206 22.4688 6.03118L15.3978 13.1023L8.32668 20.1733C6.55679 18.4034 5.5625 16.003 5.5625 13.5H15.5625ZM15.3978 13.1023L22.4688 6.03118C20.4879 4.05031 17.8013 2.9375 15 2.9375V12.9375V22.9375C12.4971 22.9375 10.0966 21.9432 8.32668 20.1733L15.3978 13.1023ZM15 12.9375V2.9375H12.5625V12.9375V22.9375H15V12.9375ZM12.5625 12.9375H22.5625V10.5H12.5625H2.5625V12.9375H12.5625ZM12.5625 10.5H22.5625C22.5625 12.7046 21.6867 14.8189 20.1278 16.3778L13.0568 9.30676L5.98569 2.23569C3.79386 4.42752 2.5625 7.40029 2.5625 10.5H12.5625ZM13.0568 9.30676L20.1278 16.3778C18.5689 17.9367 16.4546 18.8125 14.25 18.8125V8.8125V-1.1875C11.1503 -1.1875 8.17753 0.0438583 5.98569 2.23569L13.0568 9.30676ZM14.25 8.8125V18.8125H15.75V8.8125V-1.1875H14.25V8.8125ZM15.75 8.8125V18.8125C18.5514 18.8125 21.238 17.6997 23.2188 15.7188L16.1478 8.64775L9.07668 1.57668C10.8465 -0.193184 13.247 -1.1875 15.75 -1.1875V8.8125ZM16.1478 8.64775L23.2188 15.7188C25.1997 13.738 26.3125 11.0513 26.3125 8.25H16.3125H6.3125C6.3125 5.74703 7.3068 3.34656 9.07668 1.57668L16.1478 8.64775ZM16.3125 8.25H26.3125C26.3125 5.44866 25.1997 2.76204 23.2188 0.781185L16.1478 7.85225L9.07668 14.9233C7.3068 13.1534 6.3125 10.753 6.3125 8.25H16.3125ZM16.1478 7.85225L23.2188 0.781185C21.238 -1.19966 18.5514 -2.3125 15.75 -2.3125V7.6875V17.6875C13.247 17.6875 10.8465 16.6932 9.07668 14.9233L16.1478 7.85225ZM15.75 7.6875V-2.3125H14.25V7.6875V17.6875H15.75V7.6875ZM14.25 7.6875V-2.3125C10.8519 -2.3125 7.59301 -0.96262 5.1902 1.44019L12.2613 8.51126L19.3323 15.5823C17.9844 16.9303 16.1562 17.6875 14.25 17.6875V7.6875ZM12.2613 8.51126L5.1902 1.44019C2.78738 3.84301 1.4375 7.10193 1.4375 10.5H11.4375H21.4375C21.4375 12.4062 20.6803 14.2344 19.3323 15.5823L12.2613 8.51126ZM11.4375 10.5H1.4375V12.9375H11.4375H21.4375V10.5H11.4375ZM11.4375 12.9375V2.9375H9V12.9375V22.9375H11.4375V12.9375ZM9 12.9375V2.9375C6.19866 2.9375 3.51205 4.05032 1.53119 6.03118L8.60226 13.1023L15.6733 20.1733C13.9034 21.9432 11.503 22.9375 9 22.9375V12.9375ZM8.60226 13.1023L1.53119 6.03118C-0.449652 8.01203 -1.5625 10.6986 -1.5625 13.5H8.4375H18.4375C18.4375 16.003 17.4432 18.4035 15.6733 20.1733L8.60226 13.1023ZM8.4375 13.5H-1.5625C-1.5625 16.3014 -0.449652 18.988 1.53119 20.9688L8.60226 13.8977L15.6733 6.82668C17.4432 8.59654 18.4375 10.997 18.4375 13.5H8.4375ZM8.60226 13.8977L1.53119 20.9688C3.51205 22.9497 6.19866 24.0625 9 24.0625V14.0625V4.0625C11.503 4.0625 13.9034 5.0568 15.6733 6.82668L8.60226 13.8977ZM9 14.0625V24.0625H11.4375V14.0625V4.0625H9V14.0625ZM11.4375 14.0625H1.4375V20.4188H11.4375H21.4375V14.0625H11.4375ZM11.4375 20.4188L12.1042 10.441C12.5086 10.468 12.8868 10.6512 13.1587 10.9518L5.74285 17.6604L-1.67304 24.3689C1.53597 27.9163 5.99802 30.0776 10.7708 30.3965L11.4375 20.4188ZM5.74285 17.6604L13.1587 10.9518C13.4307 11.2524 13.5752 11.647 13.5616 12.0521L3.5672 11.7186L-6.42724 11.3851C-6.58678 16.1659 -4.88204 20.8216 -1.67304 24.3689L5.74285 17.6604ZM3.5672 11.7186L13.5616 12.0521C13.5481 12.4573 13.3777 12.8413 13.0863 13.1231L6.13413 5.93513L-0.818024 -1.25289C-4.25638 2.07264 -6.2677 6.6043 -6.42724 11.3851L3.5672 11.7186ZM6.13413 5.93513L13.0863 13.1231C12.7949 13.405 12.4054 13.5625 12 13.5625V3.56252V-6.43748C7.21655 -6.43748 2.62033 -4.57842 -0.818024 -1.25289L6.13413 5.93513ZM12 3.56252V13.5625C11.5946 13.5625 11.2051 13.405 10.9137 13.1231L17.8659 5.93513L24.818 -1.25289C21.3797 -4.57842 16.7835 -6.43748 12 -6.43748V3.56252ZM17.8659 5.93513L10.9137 13.1231C10.6223 12.8413 10.4519 12.4573 10.4384 12.0521L20.4328 11.7186L30.4272 11.3851C30.2677 6.6043 28.2564 2.07264 24.818 -1.25289L17.8659 5.93513ZM20.4328 11.7186L10.4384 12.0521C10.4249 11.647 10.5693 11.2524 10.8413 10.9518L18.2572 17.6604L25.673 24.3689C28.882 20.8216 30.5868 16.1659 30.4272 11.3851L20.4328 11.7186ZM18.2572 17.6604L10.8413 10.9518C11.1132 10.6512 11.4914 10.468 11.8958 10.441L12.5625 20.4188L13.2292 30.3965C18.002 30.0776 22.464 27.9163 25.673 24.3689L18.2572 17.6604Z" fill="#F4F1EA" mask="url(#path-1-inside-1_211_490)"/>
</svg>
