<svg width="24" height="24" viewBox="0 0 24 24" fill="none" xmlns="http://www.w3.org/2000/svg">
<mask id="path-1-inside-1_211_488" fill="white">
<path d="M20.25 2.4375H3.75C3.4019 2.4375 3.06806 2.57578 2.82192 2.82192C2.57578 3.06806 2.4375 3.4019 2.4375 3.75V20.25C2.4375 20.5981 2.57578 20.9319 2.82192 21.1781C3.06806 21.4242 3.4019 21.5625 3.75 21.5625H20.25C20.5981 21.5625 20.9319 21.4242 21.1781 21.1781C21.4242 20.9319 21.5625 20.5981 21.5625 20.25V3.75C21.5625 3.4019 21.4242 3.06806 21.1781 2.82192C20.9319 2.57578 20.5981 2.4375 20.25 2.4375ZM20.4375 20.25C20.4375 20.2997 20.4177 20.3474 20.3826 20.3826C20.3474 20.4177 20.2997 20.4375 20.25 20.4375H3.75C3.70027 20.4375 3.65258 20.4177 3.61742 20.3826C3.58225 20.3474 3.5625 20.2997 3.5625 20.25V3.75C3.5625 3.70027 3.58225 3.65258 3.61742 3.61742C3.65258 3.58225 3.70027 3.5625 3.75 3.5625H20.25C20.2997 3.5625 20.3474 3.58225 20.3826 3.61742C20.4177 3.65258 20.4375 3.70027 20.4375 3.75V20.25ZM8.8125 10.5V16.5C8.8125 16.6492 8.75324 16.7923 8.64775 16.8977C8.54226 17.0032 8.39918 17.0625 8.25 17.0625C8.10082 17.0625 7.95774 17.0032 7.85225 16.8977C7.74676 16.7923 7.6875 16.6492 7.6875 16.5V10.5C7.6875 10.3508 7.74676 10.2077 7.85225 10.1023C7.95774 9.99676 8.10082 9.9375 8.25 9.9375C8.39918 9.9375 8.54226 9.99676 8.64775 10.1023C8.75324 10.2077 8.8125 10.3508 8.8125 10.5ZM17.0625 13.125V16.5C17.0625 16.6492 17.0032 16.7923 16.8977 16.8977C16.7923 17.0032 16.6492 17.0625 16.5 17.0625C16.3508 17.0625 16.2077 17.0032 16.1023 16.8977C15.9968 16.7923 15.9375 16.6492 15.9375 16.5V13.125C15.9375 12.578 15.7202 12.0534 15.3334 11.6666C14.9466 11.2798 14.422 11.0625 13.875 11.0625C13.328 11.0625 12.8034 11.2798 12.4166 11.6666C12.0298 12.0534 11.8125 12.578 11.8125 13.125V16.5C11.8125 16.6492 11.7532 16.7923 11.6477 16.8977C11.5423 17.0032 11.3992 17.0625 11.25 17.0625C11.1008 17.0625 10.9577 17.0032 10.8523 16.8977C10.7468 16.7923 10.6875 16.6492 10.6875 16.5V10.5C10.6875 10.3508 10.7468 10.2077 10.8523 10.1023C10.9577 9.99676 11.1008 9.9375 11.25 9.9375C11.3992 9.9375 11.5423 9.99676 11.6477 10.1023C11.7532 10.2077 11.8125 10.3508 11.8125 10.5V10.6978C12.2761 10.3044 12.8425 10.0518 13.4449 9.96973C14.0474 9.8877 14.6607 9.97968 15.2126 10.2348C15.7645 10.49 16.2319 10.8976 16.5597 11.4097C16.8874 11.9218 17.0619 12.517 17.0625 13.125ZM9.1875 7.875C9.1875 8.06042 9.13252 8.24168 9.0295 8.39585C8.92649 8.55002 8.78007 8.67018 8.60877 8.74114C8.43746 8.81209 8.24896 8.83066 8.0671 8.79449C7.88525 8.75831 7.7182 8.66902 7.58709 8.53791C7.45598 8.4068 7.36669 8.23975 7.33051 8.0579C7.29434 7.87604 7.31291 7.68754 7.38386 7.51623C7.45482 7.34493 7.57498 7.19851 7.72915 7.0955C7.88332 6.99248 8.06458 6.9375 8.25 6.9375C8.49864 6.9375 8.7371 7.03627 8.91291 7.21209C9.08873 7.3879 9.1875 7.62636 9.1875 7.875Z"/>
</mask>
<path d="M20.25 2.4375H3.75C3.4019 2.4375 3.06806 2.57578 2.82192 2.82192C2.57578 3.06806 2.4375 3.4019 2.4375 3.75V20.25C2.4375 20.5981 2.57578 20.9319 2.82192 21.1781C3.06806 21.4242 3.4019 21.5625 3.75 21.5625H20.25C20.5981 21.5625 20.9319 21.4242 21.1781 21.1781C21.4242 20.9319 21.5625 20.5981 21.5625 20.25V3.75C21.5625 3.4019 21.4242 3.06806 21.1781 2.82192C20.9319 2.57578 20.5981 2.4375 20.25 2.4375ZM20.4375 20.25C20.4375 20.2997 20.4177 20.3474 20.3826 20.3826C20.3474 20.4177 20.2997 20.4375 20.25 20.4375H3.75C3.70027 20.4375 3.65258 20.4177 3.61742 20.3826C3.58225 20.3474 3.5625 20.2997 3.5625 20.25V3.75C3.5625 3.70027 3.58225 3.65258 3.61742 3.61742C3.65258 3.58225 3.70027 3.5625 3.75 3.5625H20.25C20.2997 3.5625 20.3474 3.58225 20.3826 3.61742C20.4177 3.65258 20.4375 3.70027 20.4375 3.75V20.25ZM8.8125 10.5V16.5C8.8125 16.6492 8.75324 16.7923 8.64775 16.8977C8.54226 17.0032 8.39918 17.0625 8.25 17.0625C8.10082 17.0625 7.95774 17.0032 7.85225 16.8977C7.74676 16.7923 7.6875 16.6492 7.6875 16.5V10.5C7.6875 10.3508 7.74676 10.2077 7.85225 10.1023C7.95774 9.99676 8.10082 9.9375 8.25 9.9375C8.39918 9.9375 8.54226 9.99676 8.64775 10.1023C8.75324 10.2077 8.8125 10.3508 8.8125 10.5ZM17.0625 13.125V16.5C17.0625 16.6492 17.0032 16.7923 16.8977 16.8977C16.7923 17.0032 16.6492 17.0625 16.5 17.0625C16.3508 17.0625 16.2077 17.0032 16.1023 16.8977C15.9968 16.7923 15.9375 16.6492 15.9375 16.5V13.125C15.9375 12.578 15.7202 12.0534 15.3334 11.6666C14.9466 11.2798 14.422 11.0625 13.875 11.0625C13.328 11.0625 12.8034 11.2798 12.4166 11.6666C12.0298 12.0534 11.8125 12.578 11.8125 13.125V16.5C11.8125 16.6492 11.7532 16.7923 11.6477 16.8977C11.5423 17.0032 11.3992 17.0625 11.25 17.0625C11.1008 17.0625 10.9577 17.0032 10.8523 16.8977C10.7468 16.7923 10.6875 16.6492 10.6875 16.5V10.5C10.6875 10.3508 10.7468 10.2077 10.8523 10.1023C10.9577 9.99676 11.1008 9.9375 11.25 9.9375C11.3992 9.9375 11.5423 9.99676 11.6477 10.1023C11.7532 10.2077 11.8125 10.3508 11.8125 10.5V10.6978C12.2761 10.3044 12.8425 10.0518 13.4449 9.96973C14.0474 9.8877 14.6607 9.97968 15.2126 10.2348C15.7645 10.49 16.2319 10.8976 16.5597 11.4097C16.8874 11.9218 17.0619 12.517 17.0625 13.125ZM9.1875 7.875C9.1875 8.06042 9.13252 8.24168 9.0295 8.39585C8.92649 8.55002 8.78007 8.67018 8.60877 8.74114C8.43746 8.81209 8.24896 8.83066 8.0671 8.79449C7.88525 8.75831 7.7182 8.66902 7.58709 8.53791C7.45598 8.4068 7.36669 8.23975 7.33051 8.0579C7.29434 7.87604 7.31291 7.68754 7.38386 7.51623C7.45482 7.34493 7.57498 7.19851 7.72915 7.0955C7.88332 6.99248 8.06458 6.9375 8.25 6.9375C8.49864 6.9375 8.7371 7.03627 8.91291 7.21209C9.08873 7.3879 9.1875 7.62636 9.1875 7.875Z" fill="white"/>
<path d="M2.4375 3.75H-7.5625H2.4375ZM17.0625 13.125H27.0625L27.0625 13.1153L17.0625 13.125ZM11.8125 13.125H1.8125H11.8125ZM11.8125 10.6978H1.8125V32.3003L18.2831 18.3222L11.8125 10.6978ZM20.25 2.4375V-7.5625H3.75V2.4375V12.4375H20.25V2.4375ZM3.75 2.4375V-7.5625C0.749736 -7.5625 -2.12764 -6.37065 -4.24915 -4.24915L2.82192 2.82192L9.89299 9.89299C8.26377 11.5222 6.05407 12.4375 3.75 12.4375V2.4375ZM2.82192 2.82192L-4.24915 -4.24915C-6.37065 -2.12764 -7.5625 0.749736 -7.5625 3.75H2.4375H12.4375C12.4375 6.05407 11.5222 8.26377 9.89299 9.89299L2.82192 2.82192ZM2.4375 3.75H-7.5625V20.25H2.4375H12.4375V3.75H2.4375ZM2.4375 20.25H-7.5625C-7.5625 23.2503 -6.37065 26.1276 -4.24915 28.2491L2.82192 21.1781L9.89299 14.107C11.5222 15.7362 12.4375 17.9459 12.4375 20.25H2.4375ZM2.82192 21.1781L-4.24915 28.2491C-2.12765 30.3706 0.74973 31.5625 3.75 31.5625V21.5625V11.5625C6.05408 11.5625 8.26377 12.4778 9.89299 14.107L2.82192 21.1781ZM3.75 21.5625V31.5625H20.25V21.5625V11.5625H3.75V21.5625ZM20.25 21.5625V31.5625C23.2503 31.5625 26.1276 30.3706 28.2491 28.2491L21.1781 21.1781L14.107 14.107C15.7362 12.4778 17.9459 11.5625 20.25 11.5625V21.5625ZM21.1781 21.1781L28.2491 28.2491C30.3706 26.1276 31.5625 23.2503 31.5625 20.25H21.5625H11.5625C11.5625 17.9459 12.4778 15.7362 14.107 14.107L21.1781 21.1781ZM21.5625 20.25H31.5625V3.75H21.5625H11.5625V20.25H21.5625ZM21.5625 3.75H31.5625C31.5625 0.74973 30.3706 -2.12765 28.2491 -4.24915L21.1781 2.82192L14.107 9.89299C12.4778 8.26377 11.5625 6.05408 11.5625 3.75H21.5625ZM21.1781 2.82192L28.2491 -4.24915C26.1276 -6.37065 23.2503 -7.5625 20.25 -7.5625V2.4375V12.4375C17.9459 12.4375 15.7362 11.5222 14.107 9.89299L21.1781 2.82192ZM20.4375 20.25H10.4375C10.4375 17.6476 11.4713 15.1517 13.3115 13.3115L20.3826 20.3826L27.4537 27.4537C29.3642 25.5431 30.4375 22.9519 30.4375 20.25H20.4375ZM20.3826 20.3826L13.3115 13.3115C15.1517 11.4713 17.6476 10.4375 20.25 10.4375V20.4375V30.4375C22.9519 30.4375 25.5431 29.3642 27.4537 27.4537L20.3826 20.3826ZM20.25 20.4375V10.4375H3.75V20.4375V30.4375H20.25V20.4375ZM3.75 20.4375V10.4375C6.35241 10.4375 8.84827 11.4713 10.6885 13.3115L3.61742 20.3826L-3.45365 27.4537C-1.5431 29.3642 1.04813 30.4375 3.75 30.4375V20.4375ZM3.61742 20.3826L10.6885 13.3115C12.5287 15.1517 13.5625 17.6476 13.5625 20.25H3.5625H-6.4375C-6.4375 22.9519 -5.3642 25.5431 -3.45365 27.4537L3.61742 20.3826ZM3.5625 20.25H13.5625V3.75H3.5625H-6.4375V20.25H3.5625ZM3.5625 3.75H13.5625C13.5625 6.35241 12.5287 8.84827 10.6885 10.6885L3.61742 3.61742L-3.45365 -3.45365C-5.3642 -1.5431 -6.4375 1.04813 -6.4375 3.75H3.5625ZM3.61742 3.61742L10.6885 10.6885C8.84827 12.5287 6.35241 13.5625 3.75 13.5625V3.5625V-6.4375C1.04813 -6.4375 -1.5431 -5.3642 -3.45365 -3.45365L3.61742 3.61742ZM3.75 3.5625V13.5625H20.25V3.5625V-6.4375H3.75V3.5625ZM20.25 3.5625V13.5625C17.6476 13.5625 15.1517 12.5287 13.3115 10.6885L20.3826 3.61742L27.4537 -3.45365C25.5431 -5.3642 22.9519 -6.4375 20.25 -6.4375V3.5625ZM20.3826 3.61742L13.3115 10.6885C11.4713 8.84827 10.4375 6.35241 10.4375 3.75H20.4375H30.4375C30.4375 1.04813 29.3642 -1.5431 27.4537 -3.45365L20.3826 3.61742ZM20.4375 3.75H10.4375V20.25H20.4375H30.4375V3.75H20.4375ZM8.8125 10.5H-1.1875V16.5H8.8125H18.8125V10.5H8.8125ZM8.8125 16.5H-1.1875C-1.1875 13.997 -0.193192 11.5966 1.57668 9.82668L8.64775 16.8977L15.7188 23.9688C17.6997 21.988 18.8125 19.3014 18.8125 16.5H8.8125ZM8.64775 16.8977L1.57668 9.82668C3.34656 8.0568 5.74703 7.0625 8.25 7.0625V17.0625V27.0625C11.0513 27.0625 13.738 25.9497 15.7188 23.9688L8.64775 16.8977ZM8.25 17.0625V7.0625C10.753 7.0625 13.1534 8.0568 14.9233 9.82668L7.85225 16.8977L0.781185 23.9688C2.76205 25.9497 5.44866 27.0625 8.25 27.0625V17.0625ZM7.85225 16.8977L14.9233 9.82668C16.6932 11.5966 17.6875 13.997 17.6875 16.5H7.6875H-2.3125C-2.3125 19.3014 -1.19966 21.988 0.781185 23.9688L7.85225 16.8977ZM7.6875 16.5H17.6875V10.5H7.6875H-2.3125V16.5H7.6875ZM7.6875 10.5H17.6875C17.6875 13.003 16.6932 15.4035 14.9233 17.1733L7.85225 10.1023L0.781185 3.03118C-1.19966 5.01202 -2.3125 7.69863 -2.3125 10.5H7.6875ZM7.85225 10.1023L14.9233 17.1733C13.1535 18.9432 10.753 19.9375 8.25 19.9375V9.9375V-0.0625C5.44863 -0.0625 2.76202 1.05034 0.781185 3.03118L7.85225 10.1023ZM8.25 9.9375V19.9375C5.747 19.9375 3.34654 18.9432 1.57668 17.1733L8.64775 10.1023L15.7188 3.03118C13.738 1.05034 11.0514 -0.0625 8.25 -0.0625V9.9375ZM8.64775 10.1023L1.57668 17.1733C-0.193182 15.4035 -1.1875 13.003 -1.1875 10.5H8.8125H18.8125C18.8125 7.69863 17.6997 5.01202 15.7188 3.03118L8.64775 10.1023ZM17.0625 13.125H7.0625V16.5H17.0625H27.0625V13.125H17.0625ZM17.0625 16.5H7.0625C7.0625 13.997 8.05679 11.5966 9.82668 9.82668L16.8977 16.8977L23.9688 23.9688C25.9497 21.9879 27.0625 19.3013 27.0625 16.5H17.0625ZM16.8977 16.8977L9.82668 9.82668C11.5966 8.05679 13.997 7.0625 16.5 7.0625V17.0625V27.0625C19.3013 27.0625 21.9879 25.9497 23.9688 23.9688L16.8977 16.8977ZM16.5 17.0625V7.0625C19.003 7.0625 21.4034 8.05679 23.1733 9.82668L16.1023 16.8977L9.03118 23.9688C11.0121 25.9497 13.6987 27.0625 16.5 27.0625V17.0625ZM16.1023 16.8977L23.1733 9.82668C24.9432 11.5966 25.9375 13.997 25.9375 16.5H15.9375H5.9375C5.9375 19.3013 7.05031 21.9879 9.03118 23.9688L16.1023 16.8977ZM15.9375 16.5H25.9375V13.125H15.9375H5.9375V16.5H15.9375ZM15.9375 13.125H25.9375C25.9375 9.92583 24.6666 6.85768 22.4045 4.59552L15.3334 11.6666L8.26234 18.7377C6.77377 17.2491 5.9375 15.2302 5.9375 13.125H15.9375ZM15.3334 11.6666L22.4045 4.59552C20.1423 2.33337 17.0742 1.0625 13.875 1.0625V11.0625V21.0625C11.7698 21.0625 9.75091 20.2262 8.26234 18.7377L15.3334 11.6666ZM13.875 11.0625V1.0625C10.6758 1.0625 7.60768 2.33337 5.34552 4.59552L12.4166 11.6666L19.4877 18.7377C17.9991 20.2262 15.9802 21.0625 13.875 21.0625V11.0625ZM12.4166 11.6666L5.34552 4.59552C3.08337 6.85768 1.8125 9.92583 1.8125 13.125H11.8125H21.8125C21.8125 15.2302 20.9762 17.2491 19.4877 18.7377L12.4166 11.6666ZM11.8125 13.125H1.8125V16.5H11.8125H21.8125V13.125H11.8125ZM11.8125 16.5H1.8125C1.8125 13.997 2.80681 11.5966 4.57668 9.82668L11.6477 16.8977L18.7188 23.9688C20.6997 21.988 21.8125 19.3014 21.8125 16.5H11.8125ZM11.6477 16.8977L4.57668 9.82668C6.34656 8.0568 8.74703 7.0625 11.25 7.0625V17.0625V27.0625C14.0513 27.0625 16.738 25.9497 18.7188 23.9688L11.6477 16.8977ZM11.25 17.0625V7.0625C13.753 7.0625 16.1534 8.0568 17.9233 9.82668L10.8523 16.8977L3.78118 23.9688C5.76205 25.9497 8.44867 27.0625 11.25 27.0625V17.0625ZM10.8523 16.8977L17.9233 9.82668C19.6932 11.5966 20.6875 13.997 20.6875 16.5H10.6875H0.6875C0.6875 19.3014 1.80034 21.988 3.78118 23.9688L10.8523 16.8977ZM10.6875 16.5H20.6875V10.5H10.6875H0.6875V16.5H10.6875ZM10.6875 10.5H20.6875C20.6875 13.003 19.6932 15.4035 17.9233 17.1733L10.8523 10.1023L3.78118 3.03118C1.80034 5.01202 0.6875 7.69863 0.6875 10.5H10.6875ZM10.8523 10.1023L17.9233 17.1733C16.1535 18.9432 13.753 19.9375 11.25 19.9375V9.9375V-0.0625C8.44863 -0.0625 5.76202 1.05034 3.78118 3.03118L10.8523 10.1023ZM11.25 9.9375V19.9375C8.747 19.9375 6.34654 18.9432 4.57668 17.1733L11.6477 10.1023L18.7188 3.03118C16.738 1.05034 14.0514 -0.0625 11.25 -0.0625V9.9375ZM11.6477 10.1023L4.57668 17.1733C2.80682 15.4035 1.8125 13.003 1.8125 10.5H11.8125H21.8125C21.8125 7.69863 20.6997 5.01202 18.7188 3.03118L11.6477 10.1023ZM11.8125 10.5H1.8125V10.6978H11.8125H21.8125V10.5H11.8125ZM11.8125 10.6978L18.2831 18.3222C17.2923 19.163 16.0817 19.703 14.7942 19.8783L13.4449 9.96973L12.0957 0.0611713C9.60324 0.400564 7.25981 1.44575 5.34191 3.07342L11.8125 10.6978ZM13.4449 9.96973L14.7942 19.8783C13.5066 20.0536 12.1957 19.857 11.0162 19.3117L15.2126 10.2348L19.4091 1.15794C17.1258 0.102334 14.5882 -0.278222 12.0957 0.0611713L13.4449 9.96973ZM15.2126 10.2348L11.0162 19.3117C9.83666 18.7664 8.83772 17.8951 8.13719 16.8006L16.5597 11.4097L24.9822 6.01884C23.6261 3.90018 21.6923 2.21355 19.4091 1.15794L15.2126 10.2348ZM16.5597 11.4097L8.13719 16.8006C7.43665 15.7062 7.06376 14.4342 7.0625 13.1347L17.0625 13.125L27.0625 13.1153C27.0601 10.5998 26.3382 8.13751 24.9822 6.01884L16.5597 11.4097ZM9.1875 7.875H-0.8125C-0.8125 6.08261 -0.280996 4.33047 0.714807 2.84014L9.0295 8.39585L17.3442 13.9515C18.546 12.1529 19.1875 10.0382 19.1875 7.875H9.1875ZM9.0295 8.39585L0.714807 2.84014C1.71061 1.34982 3.12598 0.188258 4.78193 -0.497658L8.60877 8.74114L12.4356 17.9799C14.4342 17.1521 16.1424 15.7502 17.3442 13.9515L9.0295 8.39585ZM8.60877 8.74114L4.78193 -0.497658C6.43788 -1.18357 8.26004 -1.36305 10.018 -1.01337L8.0671 8.79449L6.1162 18.6023C8.23788 19.0244 10.437 18.8078 12.4356 17.9799L8.60877 8.74114ZM8.0671 8.79449L10.018 -1.01337C11.776 -0.663687 13.3907 0.199435 14.6582 1.46684L7.58709 8.53791L0.51602 15.609C2.04565 17.1386 3.99453 18.1803 6.1162 18.6023L8.0671 8.79449ZM7.58709 8.53791L14.6582 1.46684C15.9256 2.73425 16.7887 4.34904 17.1384 6.10699L7.33051 8.0579L-2.47734 10.0088C-2.05531 12.1305 -1.01361 14.0793 0.51602 15.609L7.58709 8.53791ZM7.33051 8.0579L17.1384 6.10699C17.488 7.86496 17.3086 9.68712 16.6227 11.3431L7.38386 7.51623L-1.85493 3.6894C-2.68276 5.68796 -2.89937 7.88712 -2.47734 10.0088L7.33051 8.0579ZM7.38386 7.51623L16.6227 11.3431C15.9367 12.999 14.7752 14.4144 13.2849 15.4102L7.72915 7.0955L2.17345 -1.2192C0.374782 -0.0173669 -1.0271 1.69084 -1.85493 3.6894L7.38386 7.51623ZM7.72915 7.0955L13.2849 15.4102C11.7945 16.406 10.0424 16.9375 8.25 16.9375V6.9375V-3.0625C6.08677 -3.0625 3.97212 -2.42103 2.17345 -1.2192L7.72915 7.0955ZM8.25 6.9375V16.9375C5.84648 16.9375 3.54139 15.9827 1.84184 14.2832L8.91291 7.21209L15.984 0.14102C13.9328 -1.91016 11.1508 -3.0625 8.25 -3.0625V6.9375ZM8.91291 7.21209L1.84184 14.2832C0.142296 12.5836 -0.8125 10.2785 -0.8125 7.875H9.1875H19.1875C19.1875 4.97419 18.0352 2.1922 15.984 0.14102L8.91291 7.21209Z" fill="#DFE0D7" mask="url(#path-1-inside-1_211_488)"/>
</svg>
