<svg width="15" height="15" viewBox="0 0 15 15" fill="none" xmlns="http://www.w3.org/2000/svg">
<path d="M7.5 10.3125C8.24568 10.3117 8.9606 10.0152 9.48788 9.48788C10.0152 8.9606 10.3117 8.24568 10.3125 7.5V3.75C10.3125 3.00408 10.0162 2.28871 9.48874 1.76126C8.96129 1.23382 8.24592 0.9375 7.5 0.9375C6.75408 0.9375 6.03871 1.23382 5.51126 1.76126C4.98382 2.28871 4.6875 3.00408 4.6875 3.75V7.5C4.68828 8.24568 4.98484 8.9606 5.51212 9.48788C6.0394 10.0152 6.75432 10.3117 7.5 10.3125ZM5.625 3.75C5.625 3.25272 5.82254 2.77581 6.17417 2.42417C6.52581 2.07254 7.00272 1.875 7.5 1.875C7.99728 1.875 8.47419 2.07254 8.82582 2.42417C9.17746 2.77581 9.375 3.25272 9.375 3.75V7.5C9.375 7.99728 9.17746 8.47419 8.82582 8.82582C8.47419 9.17746 7.99728 9.375 7.5 9.375C7.00272 9.375 6.52581 9.17746 6.17417 8.82582C5.82254 8.47419 5.625 7.99728 5.625 7.5V3.75ZM7.96875 12.1641V14.0625C7.96875 14.1868 7.91936 14.306 7.83146 14.394C7.74355 14.4819 7.62432 14.5312 7.5 14.5312C7.37568 14.5312 7.25645 14.4819 7.16854 14.394C7.08064 14.306 7.03125 14.1868 7.03125 14.0625V12.1641C5.87557 12.0465 4.80455 11.5045 4.0253 10.643C3.24605 9.7815 2.81393 8.66165 2.8125 7.5C2.8125 7.37568 2.86189 7.25645 2.94979 7.16854C3.0377 7.08064 3.15693 7.03125 3.28125 7.03125C3.40557 7.03125 3.5248 7.08064 3.61271 7.16854C3.70061 7.25645 3.75 7.37568 3.75 7.5C3.75 8.49456 4.14509 9.44839 4.84835 10.1517C5.55161 10.8549 6.50544 11.25 7.5 11.25C8.49456 11.25 9.44839 10.8549 10.1517 10.1517C10.8549 9.44839 11.25 8.49456 11.25 7.5C11.25 7.37568 11.2994 7.25645 11.3873 7.16854C11.4752 7.08064 11.5944 7.03125 11.7188 7.03125C11.8431 7.03125 11.9623 7.08064 12.0502 7.16854C12.1381 7.25645 12.1875 7.37568 12.1875 7.5C12.1861 8.66165 11.754 9.7815 10.9747 10.643C10.1954 11.5045 9.12443 12.0465 7.96875 12.1641Z" fill="#001407" fill-opacity="0.5"/>
</svg>
