<svg width="24" height="24" viewBox="0 0 24 24" fill="none" xmlns="http://www.w3.org/2000/svg">
<path d="M12 1.73413C12.1593 1.73413 12.3167 1.76451 12.4639 1.823L12.6074 1.89038L20.8574 6.40796C21.0564 6.51686 21.2231 6.67673 21.3389 6.87183C21.4547 7.06697 21.5154 7.29043 21.5156 7.51733V16.4832C21.5154 16.7099 21.4545 16.9326 21.3389 17.1277C21.2231 17.3228 21.0565 17.4836 20.8574 17.5925L12.6074 22.1091C12.4214 22.2117 12.2124 22.2654 12 22.2654C11.8406 22.2654 11.6834 22.2349 11.5361 22.1765L11.3926 22.1091L3.14258 17.5925C2.94352 17.4836 2.77692 17.3228 2.66113 17.1277C2.54547 16.9326 2.48458 16.7099 2.48438 16.4832V7.51733L2.49609 7.34741C2.51885 7.18008 2.57438 7.01805 2.66113 6.87183C2.7769 6.67673 2.94357 6.51686 3.14258 6.40796L11.3926 1.89038C11.5785 1.78771 11.7876 1.73413 12 1.73413ZM20.415 8.08276L17.04 9.9314L17.0156 9.94409V14.2498C17.0156 14.3865 16.961 14.5183 16.8643 14.615C16.7676 14.7115 16.6366 14.7654 16.5 14.7654C16.3634 14.7654 16.2324 14.7115 16.1357 14.615C16.039 14.5183 15.9844 14.3865 15.9844 14.2498V10.5085L15.915 10.5457L12.54 12.3943L12.5156 12.407V20.9851L12.585 20.947L20.3662 16.6882H20.3672C20.403 16.6676 20.4325 16.6372 20.4531 16.6013C20.4736 16.5654 20.4847 16.5245 20.4844 16.4832V8.04565L20.415 8.08276ZM7.62402 5.12964L4.05469 7.08374L3.97949 7.12476L4.05469 7.16577L11.9775 11.5007L12 11.5134L12.0225 11.5007L15.5918 9.54858L15.667 9.50757L15.5918 9.46558L7.66895 5.12964L7.64648 5.11694L7.62402 5.12964ZM11.9961 2.76636C11.9569 2.76638 11.9182 2.77586 11.8838 2.79468L8.79492 4.48804L8.71973 4.52905L8.79492 4.57007L16.7188 8.90698L16.7412 8.91968L16.7637 8.90698L19.9453 7.16577L20.0205 7.12476L19.9453 7.08374L12.1084 2.79468C12.074 2.77592 12.0353 2.76636 11.9961 2.76636ZM11.4844 12.4089L11.46 12.3953L3.58496 8.08276L3.51562 8.04565V16.4832C3.51534 16.5245 3.52636 16.5654 3.54688 16.6013C3.55714 16.6192 3.56955 16.6357 3.58398 16.6501L3.63281 16.6882H3.63379L11.415 20.947L11.4844 20.9851V12.4089Z" fill="white" stroke="white" stroke-width="0.09375"/>
</svg>
