<svg width="14" height="14" viewBox="0 0 14 14" fill="none" xmlns="http://www.w3.org/2000/svg">
<g clip-path="url(#clip0_3804_650)">
<path d="M9.00182 4.55859C9.04232 4.55787 9.08256 4.56514 9.12025 4.57998C9.15794 4.59482 9.19233 4.61695 9.22146 4.64509C9.25059 4.67323 9.27388 4.70684 9.29002 4.744C9.30615 4.78115 9.3148 4.82112 9.31548 4.86161L9.39111 9.33011C9.40094 9.9023 9.18306 10.455 8.78541 10.8665C8.38776 11.278 7.84291 11.5148 7.27073 11.5246C6.69854 11.5344 6.14589 11.3165 5.73435 10.9189C5.3228 10.5212 5.08608 9.97638 5.07626 9.40419L4.94263 3.95773C4.93537 3.54899 5.09077 3.15411 5.37466 2.85996C5.65855 2.56581 6.04766 2.39647 6.45639 2.38921C6.86513 2.38195 7.26001 2.53736 7.55416 2.82125C7.84831 3.10513 8.01765 3.49424 8.02491 3.90298L8.158 9.35C8.16224 9.59562 8.06872 9.83286 7.89804 10.0095C7.72735 10.1862 7.49347 10.2878 7.24785 10.2921C7.00223 10.2963 6.76499 10.2028 6.58832 10.0321C6.41165 9.86141 6.31002 9.62754 6.30579 9.38192L6.19101 4.80865C6.18898 4.76759 6.19518 4.72655 6.20924 4.68792C6.22331 4.6493 6.24496 4.61388 6.27292 4.58374C6.30088 4.55361 6.33459 4.52938 6.37206 4.51247C6.40952 4.49556 6.45 4.48631 6.49109 4.48528C6.53218 4.48424 6.57307 4.49144 6.61134 4.50644C6.64961 4.52144 6.68449 4.54395 6.71394 4.57263C6.74338 4.60132 6.76679 4.6356 6.78278 4.67347C6.79877 4.71134 6.80703 4.75202 6.80707 4.79313L6.92406 9.36908C6.9246 9.40956 6.9331 9.44953 6.94909 9.48672C6.96507 9.52392 6.98823 9.55759 7.01723 9.58583C7.04623 9.61408 7.08051 9.63633 7.11811 9.65132C7.15571 9.66632 7.1959 9.67376 7.23637 9.67322C7.27685 9.67269 7.31682 9.66418 7.35401 9.6482C7.3912 9.63221 7.42488 9.60906 7.45312 9.58006C7.48137 9.55106 7.50362 9.51678 7.51861 9.47918C7.53361 9.44158 7.54105 9.40139 7.54051 9.36091L7.40853 3.91551C7.40456 3.67014 7.30327 3.43639 7.12696 3.2657C6.95064 3.09501 6.71374 3.00135 6.46837 3.00532C6.223 3.0093 5.98926 3.11058 5.81857 3.2869C5.64787 3.46321 5.55421 3.70011 5.55819 3.94548L5.69125 9.39033C5.69457 9.5927 5.73773 9.79243 5.81825 9.97813C5.89876 10.1638 6.01507 10.3318 6.16052 10.4726C6.30597 10.6133 6.47772 10.7241 6.66596 10.7984C6.8542 10.8728 7.05524 10.9094 7.25762 10.906C7.45999 10.9027 7.65972 10.8596 7.84542 10.779C8.03111 10.6985 8.19913 10.5822 8.33988 10.4368C8.48062 10.2913 8.59134 10.1196 8.66571 9.93133C8.74008 9.74309 8.77665 9.54204 8.77333 9.33967L8.69796 4.87089C8.69686 4.78919 8.72826 4.7104 8.78524 4.65184C8.84222 4.59327 8.92012 4.55973 9.00182 4.55859Z" fill="#04340E" fill-opacity="0.4"/>
</g>
<defs>
<clipPath id="clip0_3804_650">
<rect width="9.86221" height="9.86221" fill="white" transform="translate(0 7.09277) rotate(-45.9872)"/>
</clipPath>
</defs>
</svg>
