<svg width="10" height="10" viewBox="0 0 10 10" fill="none" xmlns="http://www.w3.org/2000/svg">
<g clip-path="url(#clip0_3804_655)">
<path d="M8.70362 1.16283C8.63611 1.09454 8.55139 1.04576 8.45844 1.02166C8.36548 0.997556 8.26774 0.999022 8.17555 1.0259L8.17132 1.02591L0.781277 3.28319C0.676316 3.3138 0.583137 3.37559 0.514091 3.46037C0.445046 3.54514 0.403394 3.6489 0.394658 3.75788C0.385922 3.86687 0.410513 3.97593 0.465173 4.07062C0.519833 4.16531 0.601979 4.24116 0.700723 4.2881L4.00001 5.88611L5.60735 9.17744C5.65067 9.26972 5.71948 9.34768 5.80566 9.40213C5.89184 9.45658 5.9918 9.48524 6.09374 9.48473C6.10915 9.4847 6.12495 9.48467 6.14035 9.48272C6.24954 9.47392 6.35341 9.43186 6.43794 9.36219C6.52248 9.29252 6.58361 9.1986 6.6131 9.0931L8.84139 1.69462L8.84138 1.69038C8.86806 1.59819 8.86934 1.50051 8.84509 1.40765C8.82084 1.31479 8.77196 1.23021 8.70362 1.16283ZM8.39617 1.56408L6.16981 8.96179L6.16982 8.96603C6.16556 8.98136 6.15667 8.995 6.14435 9.00507C6.13203 9.01515 6.1169 9.02116 6.10103 9.02229C6.08516 9.02342 6.06933 9.0196 6.05571 9.01137C6.04209 9.00314 6.03136 8.9909 6.02498 8.97632L4.45169 5.75928L6.3359 3.86796C6.35733 3.84644 6.37432 3.82091 6.38589 3.79283C6.39746 3.76475 6.40339 3.73466 6.40333 3.70429C6.40327 3.67392 6.39723 3.64385 6.38556 3.61581C6.37388 3.58778 6.3568 3.56231 6.33528 3.54088C6.31376 3.51944 6.28824 3.50245 6.26015 3.49088C6.23207 3.47931 6.20198 3.47338 6.17161 3.47344C6.14124 3.4735 6.11117 3.47954 6.08314 3.49121C6.0551 3.50289 6.02963 3.51997 6.0082 3.54149L4.12398 5.43281L0.898344 3.86972C0.88405 3.86309 0.872132 3.85224 0.864196 3.83863C0.85626 3.82502 0.852687 3.8093 0.853958 3.7936C0.85523 3.77789 0.861286 3.76296 0.871309 3.7508C0.881333 3.73865 0.894842 3.72985 0.910016 3.72561L0.914254 3.7256L8.30353 1.47025C8.31651 1.46658 8.33024 1.46649 8.34327 1.46999C8.3563 1.47349 8.36814 1.48046 8.37753 1.49015C8.38705 1.49964 8.39392 1.51146 8.39746 1.52443C8.401 1.5374 8.40109 1.55107 8.39771 1.56408L8.39617 1.56408Z" fill="#04340E"/>
</g>
<defs>
<clipPath id="clip0_3804_655">
<rect width="9.86221" height="9.86221" fill="white" transform="translate(0 0.0185678) rotate(-0.107872)"/>
</clipPath>
</defs>
</svg>
