<svg width="10" height="10" viewBox="0 0 10 10" fill="none" xmlns="http://www.w3.org/2000/svg">
<path d="M8.50065 6.05209L6.70054 5.24952L6.69557 5.24724C6.60212 5.20748 6.50023 5.19165 6.39913 5.20117C6.29802 5.21069 6.20088 5.24527 6.1165 5.30178C6.10656 5.30837 6.09702 5.31553 6.0879 5.32322L5.16013 6.11718C4.57087 5.83233 3.96193 5.23025 3.67488 4.6497L4.46646 3.70481C4.47407 3.69526 4.48131 3.6857 4.48816 3.67538C4.54314 3.59101 4.57642 3.49436 4.58502 3.39403C4.59362 3.2937 4.57729 3.1928 4.53747 3.10031L4.53747 3.09573L3.72583 1.2956C3.6732 1.17477 3.5829 1.0742 3.46842 1.00891C3.35394 0.943623 3.22141 0.917108 3.09062 0.933328C2.57341 1.00238 2.09903 1.25734 1.75606 1.65059C1.4131 2.04383 1.22501 2.54848 1.22693 3.07027C1.23264 6.10166 3.70363 8.56336 6.73502 8.55766C7.25681 8.55761 7.76075 8.36762 8.1527 8.02318C8.54466 7.67874 8.79783 7.2034 8.86493 6.68594C8.88068 6.55513 8.85373 6.42274 8.78808 6.3085C8.72243 6.19427 8.62161 6.10433 8.50065 6.05209ZM6.73387 7.9468C5.43822 7.94782 4.19507 7.43484 3.27719 6.5204C2.3593 5.60597 1.84164 4.36477 1.83779 3.06912C1.83565 2.69631 1.96929 2.33546 2.21375 2.05397C2.45821 1.77248 2.79677 1.58959 3.16621 1.53947C3.16606 1.54099 3.16606 1.54252 3.16621 1.54405L3.97135 3.33694L3.18397 4.28297C3.17598 4.2922 3.16872 4.30204 3.16226 4.3124C3.10498 4.40067 3.07146 4.50225 3.06497 4.60728C3.05848 4.7123 3.07923 4.81723 3.12521 4.91188C3.47244 5.61868 4.18657 6.32479 4.90231 6.66896C4.99783 6.71416 5.10344 6.7338 5.20882 6.72598C5.3142 6.71815 5.41575 6.68312 5.50354 6.62431C5.51333 6.61769 5.52275 6.61053 5.53176 6.60287L6.45839 5.8093L8.2543 6.60958C8.2543 6.60958 8.25736 6.60958 8.2585 6.60958C8.21038 6.97972 8.02904 7.31965 7.74842 7.56578C7.4678 7.8119 7.10713 7.94735 6.73387 7.9468Z" fill="#04340E"/>
</svg>
