<svg width="24" height="24" viewBox="0 0 24 24" fill="none" xmlns="http://www.w3.org/2000/svg">
<path d="M12 2.48438C14.5228 2.48735 16.9417 3.49053 18.7256 5.27441C20.5095 7.0583 21.5126 9.47721 21.5156 12C21.5156 13.8819 20.9575 15.7214 19.9121 17.2861C18.8666 18.8509 17.3803 20.0708 15.6416 20.791C13.9028 21.5112 11.9894 21.7002 10.1436 21.333C8.2977 20.9658 6.60227 20.0593 5.27148 18.7285C3.9407 17.3977 3.03415 15.7023 2.66699 13.8564C2.29983 12.0106 2.48877 10.0971 3.20898 8.3584C3.92921 6.61973 5.14909 5.13344 6.71387 4.08789C8.18075 3.10786 9.88912 2.55639 11.6475 2.49121L12 2.48438ZM15.2471 4.16113C13.6968 3.51897 11.9905 3.35134 10.3447 3.67871C8.69895 4.00609 7.18752 4.81443 6.00098 6.00098C4.81443 7.18752 4.00609 8.69894 3.67871 10.3447C3.35134 11.9905 3.51897 13.6968 4.16113 15.2471C4.80329 16.7973 5.89094 18.1224 7.28613 19.0547C8.59409 19.9286 10.1177 20.4204 11.6855 20.4785L12 20.4844C14.2494 20.4819 16.4065 19.5876 17.9971 17.9971C19.5876 16.4065 20.4819 14.2494 20.4844 12C20.4844 10.3219 19.987 8.68138 19.0547 7.28613C18.1224 5.89094 16.7973 4.80329 15.2471 4.16113ZM12 15.9844C12.2362 15.9844 12.4629 16.0781 12.6299 16.2451C12.7969 16.4121 12.8906 16.6388 12.8906 16.875C12.8906 17.0511 12.8381 17.2237 12.7402 17.3701C12.6424 17.5164 12.5034 17.6309 12.3408 17.6982C12.1781 17.7656 11.9989 17.7824 11.8262 17.748C11.6535 17.7137 11.4946 17.6294 11.3701 17.5049C11.2456 17.3804 11.1613 17.2215 11.127 17.0488C11.0926 16.8761 11.1094 16.6969 11.1768 16.5342C11.2441 16.3716 11.3586 16.2326 11.5049 16.1348C11.6513 16.0369 11.8239 15.9844 12 15.9844ZM12 6.98438C13.9479 6.98438 15.5156 8.39781 15.5156 10.125C15.5156 11.6838 14.2347 12.9874 12.5557 13.2266L12.5156 13.2324V13.5C12.5156 13.6368 12.461 13.7676 12.3643 13.8643C12.2676 13.961 12.1368 14.0156 12 14.0156C11.8632 14.0156 11.7324 13.961 11.6357 13.8643C11.539 13.7676 11.4844 13.6368 11.4844 13.5V12.75C11.4844 12.6132 11.539 12.4824 11.6357 12.3857C11.7324 12.289 11.8632 12.2344 12 12.2344C13.3626 12.2344 14.4844 11.2951 14.4844 10.125C14.4844 8.95489 13.3626 8.01562 12 8.01562C10.6374 8.01563 9.51562 8.9549 9.51562 10.125V10.5C9.51562 10.6368 9.46096 10.7676 9.36426 10.8643C9.26756 10.961 9.13675 11.0156 9 11.0156C8.86325 11.0156 8.73244 10.961 8.63574 10.8643C8.53905 10.7676 8.48438 10.6368 8.48438 10.5V10.125C8.48438 8.39781 10.0521 6.98438 12 6.98438Z" fill="white" stroke="white" stroke-width="0.09375"/>
</svg>
