<svg width="40" height="40" viewBox="0 0 40 40" fill="none" xmlns="http://www.w3.org/2000/svg">
<rect width="40" height="40" rx="10" fill="#D2FF00"/>
<path opacity="0.2" d="M33.75 8.75V17.5C33.75 32.5 20 36.25 20 36.25C20 36.25 6.25 32.5 6.25 17.5V8.75C6.25 8.41848 6.3817 8.10054 6.61612 7.86612C6.85054 7.6317 7.16848 7.5 7.5 7.5H32.5C32.8315 7.5 33.1495 7.6317 33.3839 7.86612C33.6183 8.10054 33.75 8.41848 33.75 8.75Z" fill="#001407"/>
<path d="M32.5 6.25H7.5C6.83696 6.25 6.20107 6.51339 5.73223 6.98223C5.26339 7.45107 5 8.08696 5 8.75V17.5C5 25.7375 8.9875 30.7297 12.3328 33.4672C15.9359 36.4141 19.5203 37.4156 19.6766 37.4563C19.8914 37.5147 20.118 37.5147 20.3328 37.4563C20.4891 37.4156 24.0688 36.4141 27.6766 33.4672C31.0125 30.7297 35 25.7375 35 17.5V8.75C35 8.08696 34.7366 7.45107 34.2678 6.98223C33.7989 6.51339 33.163 6.25 32.5 6.25ZM32.5 17.5C32.5 23.2922 30.3656 27.9937 26.1562 31.4719C24.3239 32.9808 22.2399 34.155 20 34.9406C17.7894 34.1687 15.7312 33.0153 13.9188 31.5328C9.65938 28.0484 7.5 23.3281 7.5 17.5V8.75H32.5V17.5Z" fill="#001407"/>
</svg>
