<svg width="24" height="24" viewBox="0 0 24 24" fill="none" xmlns="http://www.w3.org/2000/svg">
<path d="M4.5 3.98438H19.5C19.8357 3.98438 20.1572 4.11812 20.3945 4.35547C20.6319 4.59282 20.7656 4.91434 20.7656 5.25V10.5C20.7656 15.3519 18.4195 18.2887 16.4512 19.8984C14.3274 21.6363 12.2217 22.2245 12.1357 22.248C12.0469 22.2723 11.9531 22.2723 11.8643 22.248C11.7783 22.2245 9.67256 21.6363 7.54883 19.8984C5.5805 18.2887 3.23438 15.3519 3.23438 10.5V5.25C3.23438 4.91434 3.36812 4.59282 3.60547 4.35547C3.84282 4.11812 4.16434 3.98438 4.5 3.98438ZM4.5 5.01562C4.43784 5.01562 4.37794 5.04003 4.33398 5.08398C4.29003 5.12794 4.26562 5.18784 4.26562 5.25V10.5C4.26562 14.053 5.57833 16.9384 8.16797 19.0732C9.30291 20.0058 10.5953 20.7285 11.9844 21.2061L12 21.2109L12.0156 21.2061C13.4046 20.728 14.6968 20.0054 15.832 19.0732C18.4217 16.9384 19.7344 14.053 19.7344 10.5V5.25C19.7344 5.18784 19.71 5.12794 19.666 5.08398C19.6221 5.04003 19.5622 5.01562 19.5 5.01562H4.5ZM15.75 9.23535C15.8866 9.23535 16.0176 9.2892 16.1143 9.38574C16.2108 9.48242 16.2646 9.61337 16.2646 9.75C16.2646 9.88663 16.2108 10.0176 16.1143 10.1143L10.8643 15.3643C10.7676 15.4608 10.6366 15.5146 10.5 15.5146C10.3634 15.5146 10.2324 15.4608 10.1357 15.3643L7.88574 13.1143C7.79538 13.0167 7.7457 12.8879 7.74805 12.7549C7.75042 12.6213 7.80495 12.4939 7.89941 12.3994C7.99387 12.305 8.12132 12.2504 8.25488 12.248C8.38837 12.2457 8.51751 12.2958 8.61523 12.3867L10.4668 14.2373L10.5 14.2705L10.5332 14.2373L15.3857 9.38574C15.4824 9.2892 15.6134 9.23535 15.75 9.23535Z" fill="white" stroke="white" stroke-width="0.09375"/>
</svg>
