<svg width="24" height="24" viewBox="0 0 24 24" fill="none" xmlns="http://www.w3.org/2000/svg">
<path d="M8.25 19.4375C8.46549 19.4375 8.67185 19.5234 8.82422 19.6758C8.97659 19.8282 9.0625 20.0345 9.0625 20.25L9.05371 20.3691C9.03618 20.4874 8.99272 20.6009 8.92578 20.7012C8.8365 20.8348 8.70901 20.9395 8.56055 21.001C8.41229 21.0623 8.24916 21.0781 8.0918 21.0469C7.93419 21.0155 7.78941 20.9378 7.67578 20.8242C7.56215 20.7106 7.48448 20.5658 7.45312 20.4082C7.42188 20.2508 7.43772 20.0877 7.49902 19.9395C7.56052 19.791 7.66521 19.6635 7.79883 19.5742C7.93239 19.4851 8.0894 19.4375 8.25 19.4375ZM18 19.4375C18.2155 19.4375 18.4218 19.5234 18.5742 19.6758C18.7266 19.8282 18.8125 20.0345 18.8125 20.25C18.8125 20.4106 18.7649 20.5676 18.6758 20.7012C18.5865 20.8348 18.459 20.9395 18.3105 21.001C18.1623 21.0623 17.9992 21.0781 17.8418 21.0469C17.6842 21.0155 17.5394 20.9378 17.4258 20.8242C17.3122 20.7106 17.2345 20.5658 17.2031 20.4082C17.1719 20.2508 17.1877 20.0877 17.249 19.9395C17.3105 19.791 17.4152 19.6635 17.5488 19.5742C17.6824 19.4851 17.8394 19.4375 18 19.4375ZM1.5 2.9375H3.75C3.76365 2.9375 3.77721 2.94194 3.78809 2.9502L3.81055 2.9834L4.7373 6.32129L4.83887 6.6875H21.75C21.7596 6.6875 21.7697 6.69005 21.7783 6.69434C21.7867 6.69856 21.7941 6.70447 21.7998 6.71191L21.8027 6.71582C21.8086 6.72345 21.8126 6.73271 21.8145 6.74219C21.8163 6.75162 21.815 6.76122 21.8125 6.77051L19.4121 15.417C19.3197 15.7459 19.1226 16.0355 18.8506 16.2422C18.5786 16.4489 18.2468 16.5615 17.9053 16.5625H8.64258C8.30138 16.561 7.96972 16.4479 7.69824 16.2412C7.4607 16.0603 7.27989 15.8164 7.17676 15.5381L7.1377 15.417L3.80469 3.42871L3.70215 3.0625H1.5C1.48342 3.0625 1.46778 3.05567 1.45605 3.04395C1.44433 3.03222 1.4375 3.01658 1.4375 3C1.4375 2.98342 1.44433 2.96778 1.45605 2.95605C1.46778 2.94433 1.48342 2.9375 1.5 2.9375ZM5.0498 7.44629L7.25586 15.3848C7.34001 15.6873 7.52053 15.9545 7.77051 16.1445C7.9892 16.3107 8.25031 16.4102 8.52246 16.4326L8.63965 16.4375H17.9092C18.2219 16.4358 18.5259 16.3324 18.7744 16.1426C19.0229 15.9527 19.2023 15.686 19.2861 15.3848L21.4922 7.44629L21.668 6.8125H4.87305L5.0498 7.44629Z" fill="white" stroke="white"/>
</svg>
