<svg width="10" height="10" viewBox="0 0 10 10" fill="none" xmlns="http://www.w3.org/2000/svg">
<path d="M4.93158 0.933754C4.13912 0.935246 3.36489 1.1717 2.70681 1.61321C2.04873 2.05472 1.53635 2.68146 1.23446 3.41417C0.932576 4.14689 0.854745 4.95267 1.01081 5.72961C1.16688 6.50656 1.54983 7.21978 2.11124 7.77908C2.67266 8.33839 3.38731 8.71865 4.16484 8.87179C4.94237 9.02493 5.74785 8.94407 6.47942 8.63942C7.211 8.33478 7.8358 7.82004 8.27483 7.1603C8.71386 6.50056 8.9474 5.72545 8.9459 4.93299C8.94278 3.87067 8.51836 2.85298 7.76578 2.10322C7.01319 1.35346 5.9939 0.932875 4.93158 0.933754ZM4.94551 8.33088C4.27496 8.33214 3.6191 8.13454 3.06086 7.76305C2.50262 7.39156 2.06707 6.86288 1.8093 6.24386C1.55152 5.62484 1.4831 4.94328 1.61268 4.28537C1.74226 3.62746 2.06402 3.02275 2.53727 2.5477C3.01053 2.07266 3.61403 1.74863 4.27144 1.61657C4.92886 1.48452 5.61067 1.55037 6.23066 1.80581C6.85065 2.06125 7.38097 2.49481 7.75455 3.05165C8.12814 3.60848 8.32822 4.2636 8.32948 4.93415C8.33015 5.83301 7.97425 6.69544 7.33985 7.33223C6.70546 7.96902 5.84437 8.32817 4.94551 8.33088ZM3.08839 4.17348C3.08822 4.08204 3.11517 3.9926 3.16583 3.91648C3.21648 3.84036 3.28858 3.78096 3.37299 3.74581C3.4574 3.71066 3.55034 3.70133 3.64006 3.719C3.72977 3.73667 3.81223 3.78055 3.87701 3.84508C3.94179 3.90962 3.98598 3.99191 4.00398 4.08156C4.02199 4.17121 4.01301 4.26418 3.97818 4.34873C3.94334 4.43327 3.88422 4.50559 3.80829 4.55653C3.73236 4.60747 3.64302 4.63476 3.55159 4.63493C3.42897 4.63516 3.31129 4.58667 3.22442 4.50013C3.13756 4.41359 3.08863 4.29609 3.08839 4.17348ZM6.78696 4.16652C6.78713 4.25795 6.76018 4.34739 6.70953 4.42351C6.65887 4.49964 6.58678 4.55903 6.50236 4.59418C6.41795 4.62933 6.32501 4.63866 6.2353 4.62099C6.14558 4.60332 6.06312 4.55945 5.99834 4.49491C5.93357 4.43038 5.88938 4.34808 5.87137 4.25843C5.85336 4.16879 5.86234 4.07581 5.89718 3.99127C5.93201 3.90672 5.99113 3.83441 6.06706 3.78346C6.143 3.73252 6.23233 3.70524 6.32377 3.70507C6.44638 3.70483 6.56407 3.75332 6.65093 3.83986C6.7378 3.9264 6.78673 4.0439 6.78696 4.16652ZM6.74922 6.01587C6.35407 6.70201 5.69562 7.09661 4.94319 7.09803C4.19076 7.09944 3.53122 6.70771 3.13349 6.02268C3.11112 5.98764 3.09607 5.94844 3.08925 5.90744C3.08242 5.86643 3.08397 5.82447 3.09378 5.78408C3.10359 5.74369 3.12148 5.7057 3.14635 5.67239C3.17123 5.63909 3.20258 5.61116 3.23853 5.59029C3.27448 5.56942 3.31428 5.55604 3.35554 5.55095C3.39679 5.54586 3.43865 5.54917 3.4786 5.56067C3.51854 5.57218 3.55575 5.59165 3.58797 5.6179C3.6202 5.64416 3.64678 5.67667 3.66611 5.71346C3.95485 6.2103 4.40766 6.48261 4.94203 6.4816C5.47639 6.48059 5.92818 6.2062 6.21466 5.70867C6.25539 5.63778 6.32262 5.58598 6.40156 5.56466C6.48049 5.54334 6.56465 5.55425 6.63554 5.59499C6.70643 5.63573 6.75823 5.70296 6.77955 5.78189C6.80087 5.86082 6.78995 5.94499 6.74922 6.01587Z" fill="#04340E" fill-opacity="0.4"/>
</svg>
