<svg width="15" height="15" viewBox="0 0 15 15" fill="none" xmlns="http://www.w3.org/2000/svg">
<path d="M7.5 1.40625C6.29477 1.40625 5.11661 1.76364 4.1145 2.43323C3.11238 3.10282 2.33133 4.05454 1.87011 5.16802C1.40889 6.28151 1.28821 7.50676 1.52334 8.68883C1.75847 9.8709 2.33884 10.9567 3.19107 11.8089C4.0433 12.6612 5.1291 13.2415 6.31117 13.4767C7.49324 13.7118 8.71849 13.5911 9.83198 13.1299C10.9455 12.6687 11.8972 11.8876 12.5668 10.8855C13.2364 9.88339 13.5938 8.70523 13.5938 7.5C13.592 5.88436 12.9495 4.33538 11.807 3.19295C10.6646 2.05052 9.11564 1.40796 7.5 1.40625ZM7.5 12.6562C6.48019 12.6562 5.48328 12.3538 4.63534 11.7873C3.7874 11.2207 3.12651 10.4154 2.73625 9.47321C2.34598 8.53103 2.24387 7.49428 2.44283 6.49407C2.64178 5.49385 3.13287 4.5751 3.85398 3.85398C4.5751 3.13287 5.49385 2.64178 6.49407 2.44283C7.49428 2.24387 8.53103 2.34598 9.47321 2.73625C10.4154 3.12651 11.2207 3.7874 11.7873 4.63534C12.3538 5.48328 12.6563 6.48019 12.6563 7.5C12.6547 8.86705 12.111 10.1777 11.1443 11.1443C10.1777 12.111 8.86705 12.6547 7.5 12.6562ZM4.6875 6.32812C4.6875 6.18906 4.72874 6.05312 4.806 5.93749C4.88326 5.82186 4.99307 5.73174 5.12155 5.67852C5.25003 5.6253 5.39141 5.61138 5.5278 5.63851C5.66419 5.66564 5.78948 5.73261 5.88781 5.83094C5.98615 5.92927 6.05311 6.05456 6.08024 6.19095C6.10737 6.32734 6.09345 6.46872 6.04023 6.5972C5.98701 6.72568 5.89689 6.83549 5.78126 6.91275C5.66563 6.99001 5.52969 7.03125 5.39063 7.03125C5.20415 7.03125 5.0253 6.95717 4.89344 6.82531C4.76158 6.69345 4.6875 6.51461 4.6875 6.32812ZM10.7813 6.32812C10.7813 6.45244 10.7319 6.57167 10.644 6.65958C10.5561 6.74749 10.4368 6.79687 10.3125 6.79687H8.90625C8.78193 6.79687 8.6627 6.74749 8.5748 6.65958C8.48689 6.57167 8.4375 6.45244 8.4375 6.32812C8.4375 6.2038 8.48689 6.08458 8.5748 5.99667C8.6627 5.90876 8.78193 5.85937 8.90625 5.85937H10.3125C10.4368 5.85937 10.5561 5.90876 10.644 5.99667C10.7319 6.08458 10.7813 6.2038 10.7813 6.32812ZM10.2492 9.14062C9.64629 10.183 8.64434 10.7812 7.5 10.7812C6.35567 10.7812 5.35371 10.1836 4.7502 9.14062C4.71942 9.0873 4.69944 9.02844 4.69142 8.96739C4.68339 8.90635 4.68746 8.84432 4.7034 8.78485C4.71934 8.72538 4.74684 8.66964 4.78433 8.6208C4.82181 8.57195 4.86855 8.53097 4.92188 8.5002C4.9752 8.46942 5.03407 8.44944 5.09511 8.44141C5.15615 8.43338 5.21818 8.43746 5.27765 8.4534C5.33712 8.46934 5.39286 8.49684 5.44171 8.53432C5.49055 8.57181 5.53153 8.61855 5.56231 8.67187C5.99942 9.42832 6.68731 9.84375 7.5 9.84375C8.3127 9.84375 9.00059 9.42773 9.43828 8.67187C9.46759 8.61586 9.50792 8.56634 9.55686 8.52632C9.60579 8.48629 9.66232 8.45658 9.72303 8.43896C9.78375 8.42135 9.8474 8.4162 9.91016 8.42382C9.97292 8.43145 10.0335 8.45168 10.0882 8.48332C10.143 8.51496 10.1907 8.55734 10.2287 8.60792C10.2666 8.6585 10.2939 8.71623 10.3089 8.77763C10.324 8.83903 10.3264 8.90285 10.3162 8.96523C10.3059 9.02761 10.2831 9.08727 10.2492 9.14062Z" fill="#001407" fill-opacity="0.5"/>
</svg>
