<svg width="15" height="15" viewBox="0 0 15 15" fill="none" xmlns="http://www.w3.org/2000/svg">
<path d="M7.49805 0.5C7.61218 0.5 7.72542 0.535525 7.82324 0.603516C7.92127 0.67165 8.00078 0.769864 8.04785 0.888672V0.889648L9.57227 4.71582L9.68652 5.00293L9.99512 5.02832L13.9463 5.3584V5.35938C14.0606 5.3694 14.1713 5.41448 14.2646 5.49121C14.3582 5.56811 14.4302 5.67378 14.4688 5.79688C14.5073 5.92005 14.5102 6.05278 14.4766 6.17773C14.4429 6.30262 14.3749 6.41198 14.2842 6.49316L12.9863 7.65527L12.9883 7.6543L11.2734 9.18945L11.0537 9.38574L11.1191 9.67285L12.0381 13.7061V13.708C12.0673 13.8341 12.0597 13.9669 12.0166 14.0879C11.9736 14.2086 11.8976 14.3106 11.8018 14.3828C11.7062 14.4548 11.5945 14.4952 11.4805 14.5C11.3663 14.5048 11.2516 14.4737 11.1514 14.4102H11.1504L7.76953 12.2529L7.5 12.0811L7.23145 12.2529L3.84766 14.4102C3.74754 14.4731 3.63341 14.503 3.51953 14.498C3.4055 14.4931 3.29375 14.453 3.19824 14.3809C3.10254 14.3086 3.02735 14.2066 2.98438 14.0859C2.95213 13.9954 2.93925 13.8986 2.94727 13.8027L2.96191 13.707L3.88477 9.67285L3.9502 9.38574L3.73047 9.18945L0.71582 6.49219C0.625307 6.4111 0.55709 6.30239 0.523438 6.17773C0.489763 6.05297 0.49192 5.91994 0.530273 5.79688C0.568586 5.67408 0.640333 5.56818 0.733398 5.49121C0.826185 5.41453 0.936957 5.36894 1.05078 5.3584L5.00098 5.02832L5.30957 5.00293L5.42383 4.71582L6.94922 0.889648V0.888672C6.99629 0.769887 7.07582 0.67164 7.17383 0.603516C7.27151 0.535654 7.38409 0.500084 7.49805 0.5Z" fill="#D2FF00" stroke="#04340E"/>
</svg>
