<svg width="15" height="15" viewBox="0 0 15 15" fill="none" xmlns="http://www.w3.org/2000/svg">
<path d="M7.5 0.5C7.61392 0.5 7.72749 0.534634 7.8252 0.602539C7.92312 0.670635 8.00177 0.769859 8.04883 0.888672L8.0498 0.889648L9.5752 4.71582L9.68945 5.00391L9.99805 5.0293L13.9492 5.35938C14.0626 5.3689 14.1729 5.41332 14.2656 5.48926C14.3586 5.5654 14.4303 5.67063 14.4688 5.79297V5.79395C14.5076 5.91736 14.5105 6.05055 14.4766 6.17578C14.4427 6.30095 14.3744 6.41035 14.2832 6.49121L14.2812 6.49316L11.2676 9.18945L11.0479 9.38574L11.1133 9.67383L12.0352 13.707C12.0641 13.8329 12.0566 13.9652 12.0137 14.0859C11.9708 14.2065 11.8953 14.3086 11.7998 14.3809C11.7044 14.4529 11.5924 14.4931 11.4785 14.498C11.3654 14.5029 11.252 14.4734 11.1523 14.4111H11.1533L7.76855 12.2529L7.5 12.0811L7.23145 12.2529L3.85059 14.4102C3.75057 14.4736 3.63637 14.5047 3.52246 14.5C3.40839 14.4953 3.29581 14.4549 3.2002 14.3828C3.10456 14.3106 3.02933 14.2086 2.98633 14.0879C2.94329 13.9668 2.93566 13.8342 2.96484 13.708V13.7061L3.88281 9.67383L3.94824 9.38672L3.72852 9.19043L0.71582 6.49316C0.625183 6.412 0.557077 6.30267 0.523438 6.17773C0.489883 6.05282 0.49271 5.91998 0.53125 5.79688C0.569813 5.67384 0.641963 5.56804 0.735352 5.49121C0.828434 5.41472 0.938811 5.36944 1.05273 5.35938L1.05176 5.3584L5.00391 5.02832L5.3125 5.00293L5.42676 4.71582L6.95117 0.889648L6.95215 0.888672C6.9655 0.85497 6.98182 0.823194 7 0.792969V11.9678L7.50195 11.9668L7.51367 11.9707L11.1768 14.3066V14.3057C11.1834 14.31 11.1905 14.3162 11.1992 14.3213C11.2372 14.3435 11.3148 14.3819 11.4209 14.3896C11.5428 14.3985 11.6397 14.3596 11.7031 14.3252L11.7041 14.3271C11.8255 14.263 11.9139 14.1556 11.9561 14.0322C11.9883 13.9378 11.9926 13.8365 11.9697 13.7402L10.9727 9.37891V9.37793C10.9698 9.36505 10.9708 9.35107 10.9746 9.33887L10.9902 9.31348L14.252 6.39648L14.25 6.39355C14.296 6.35333 14.3566 6.29097 14.3945 6.19531C14.44 6.08022 14.4351 5.97542 14.4219 5.9043L14.4082 5.8457L14.3613 5.7334C14.3308 5.67896 14.282 5.61466 14.2061 5.56152C14.1239 5.50405 14.0421 5.48285 13.9854 5.47461C13.9709 5.47251 13.9579 5.47147 13.9473 5.4707H13.9482L9.66797 5.1123C9.66509 5.11206 9.6606 5.11048 9.65527 5.10645C9.64984 5.1023 9.64319 5.09515 9.63867 5.08398V5.08301L7.98828 0.944336L7.9834 0.932617L7.98242 0.931641L7.98145 0.929688C7.98078 0.928145 7.97995 0.925099 7.97852 0.921875C7.97589 0.915957 7.9704 0.904026 7.96289 0.889648C7.94817 0.861528 7.91514 0.804392 7.85547 0.749023C7.71477 0.618583 7.555 0.611328 7.5 0.611328H7.16504C7.16867 0.608681 7.1721 0.6051 7.17578 0.602539C7.27334 0.534789 7.38627 0.500072 7.5 0.5Z" fill="#D2FF00" stroke="#04340E"/>
</svg>
