<svg width="48" height="47" viewBox="0 0 48 47" fill="none" xmlns="http://www.w3.org/2000/svg">
<path d="M44.625 24.9688L44.625 36.7188C44.625 37.4004 44.3484 38.0542 43.8562 38.5362C43.3639 39.0183 42.6962 39.2891 42 39.2891L6 39.2891C5.30381 39.2891 4.63613 39.0183 4.14384 38.5362C3.65156 38.0542 3.375 37.4004 3.375 36.7188L3.375 24.9688C3.375 24.2871 3.65156 23.6333 4.14384 23.1513C4.63613 22.6692 5.30381 22.3984 6 22.3984L15 22.3984C15.2984 22.3984 15.5845 22.5145 15.7955 22.7211C16.0065 22.9277 16.125 23.2079 16.125 23.5C16.125 23.7922 16.0065 24.0723 15.7955 24.2789C15.5845 24.4855 15.2984 24.6016 15 24.6016L6 24.6016C5.90054 24.6016 5.80516 24.6403 5.73484 24.7091C5.66451 24.778 5.625 24.8714 5.625 24.9688L5.625 36.7188C5.625 36.8161 5.66451 36.9095 5.73484 36.9784C5.80516 37.0473 5.90054 37.0859 6 37.0859L42 37.0859C42.0995 37.0859 42.1948 37.0473 42.2652 36.9784C42.3355 36.9095 42.375 36.8161 42.375 36.7188L42.375 24.9688C42.375 24.8714 42.3355 24.778 42.2652 24.7091C42.1948 24.6403 42.0995 24.6016 42 24.6016L33 24.6016C32.7016 24.6016 32.4155 24.4855 32.2045 24.2789C31.9935 24.0723 31.875 23.7922 31.875 23.5C31.875 23.2079 31.9935 22.9277 32.2045 22.7211C32.4155 22.5145 32.7016 22.3984 33 22.3984L42 22.3984C42.6962 22.3984 43.3639 22.6692 43.8562 23.1513C44.3484 23.6333 44.625 24.2871 44.625 24.9688ZM15.795 13.9972L22.875 7.06653L22.875 23.5C22.875 23.7922 22.9935 24.0723 23.2045 24.2789C23.4155 24.4855 23.7016 24.6016 24 24.6016C24.2984 24.6016 24.5845 24.4855 24.7955 24.2789C25.0065 24.0723 25.125 23.7922 25.125 23.5L25.125 7.06653L32.205 13.9972C32.4183 14.1918 32.7003 14.2977 32.9918 14.2927C33.2832 14.2876 33.5613 14.172 33.7674 13.9702C33.9736 13.7684 34.0916 13.4961 34.0968 13.2107C34.1019 12.9253 33.9937 12.6491 33.795 12.4403L24.795 3.62782C24.5841 3.42153 24.2981 3.30566 24 3.30566C23.7019 3.30566 23.4159 3.42153 23.205 3.62782L14.205 12.4403C14.0063 12.6491 13.8981 12.9253 13.9032 13.2107C13.9084 13.4961 14.0264 13.7684 14.2326 13.9702C14.4387 14.172 14.7168 14.2876 15.0082 14.2927C15.2997 14.2977 15.5817 14.1918 15.795 13.9972ZM37.125 30.8438C37.125 30.4806 37.015 30.1257 36.809 29.8238C36.603 29.5218 36.3101 29.2865 35.9675 29.1476C35.6249 29.0086 35.2479 28.9723 34.8842 29.0431C34.5205 29.1139 34.1864 29.2888 33.9242 29.5455C33.6619 29.8023 33.4834 30.1294 33.411 30.4856C33.3387 30.8417 33.3758 31.2109 33.5177 31.5463C33.6596 31.8818 33.9 32.1685 34.2083 32.3703C34.5166 32.572 34.8792 32.6797 35.25 32.6797C35.7473 32.6797 36.2242 32.4863 36.5758 32.142C36.9275 31.7977 37.125 31.3307 37.125 30.8438Z" fill="#001407"/>
</svg>
