<svg width="10" height="10" viewBox="0 0 10 10" fill="none" xmlns="http://www.w3.org/2000/svg">
<g clip-path="url(#clip0_3804_529)">
<path d="M8.55452 0.176362L8.55711 1.5508C8.55726 1.6318 8.52523 1.70955 8.46806 1.76694C8.41089 1.82432 8.33326 1.85665 8.25226 1.8568C8.17125 1.85695 8.0935 1.82492 8.03612 1.76775C7.97873 1.71058 7.94641 1.63295 7.94625 1.55195L7.94424 0.482942L6.87524 0.484955C6.79423 0.485107 6.71648 0.453074 6.6591 0.395903C6.60171 0.338731 6.56938 0.261105 6.56923 0.1801C6.56908 0.0990947 6.60111 0.0213469 6.65828 -0.0360401C6.71545 -0.0934272 6.79308 -0.125753 6.87409 -0.125905L8.24852 -0.128493C8.32952 -0.128645 8.40727 -0.0966124 8.46466 -0.039441C8.52205 0.0177303 8.55437 0.095357 8.55452 0.176362ZM8.25858 5.21653C8.17758 5.21668 8.09995 5.24901 8.04278 5.30639C7.98561 5.36378 7.95358 5.44153 7.95373 5.52253L7.95574 6.59154L6.88674 6.59355C6.80573 6.5937 6.7281 6.62603 6.67093 6.68342C6.61376 6.7408 6.58173 6.81855 6.58188 6.89956C6.58203 6.98056 6.61436 7.05819 6.67175 7.11536C6.72913 7.17253 6.80688 7.20456 6.88789 7.20441L8.26232 7.20182C8.34333 7.20167 8.42095 7.16935 8.47812 7.11196C8.5353 7.05457 8.56733 6.97682 8.56718 6.89582L8.56459 5.52138C8.56444 5.44038 8.53211 5.36275 8.47472 5.30558C8.41734 5.24841 8.33959 5.21638 8.25858 5.21653ZM2.91615 6.60103L1.84714 6.60304L1.84513 5.53404C1.84498 5.45303 1.81265 5.3754 1.75527 5.31823C1.69788 5.26106 1.62013 5.22903 1.53913 5.22918C1.45812 5.22933 1.38049 5.26166 1.32332 5.31905C1.26615 5.37643 1.23412 5.45418 1.23427 5.53519L1.23686 6.90962C1.23701 6.99062 1.26934 7.06825 1.32672 7.12542C1.38411 7.18259 1.46186 7.21463 1.54286 7.21447L2.9173 7.21189C2.9983 7.21173 3.07593 7.17941 3.1331 7.12202C3.19027 7.06464 3.22231 6.98689 3.22215 6.90588C3.222 6.82488 3.18967 6.74725 3.13229 6.69008C3.0749 6.63291 2.99715 6.60087 2.91615 6.60103ZM1.5328 1.86945C1.61381 1.8693 1.69143 1.83697 1.7486 1.77959C1.80577 1.7222 1.83781 1.64445 1.83766 1.56345L1.83564 0.494443L2.90465 0.49243C2.98565 0.492278 3.06328 0.459952 3.12045 0.402565C3.17762 0.345178 3.20965 0.26743 3.2095 0.186425C3.20935 0.10542 3.17702 0.0277935 3.11964 -0.0293778C3.06225 -0.0865492 2.9845 -0.118582 2.9035 -0.11843L1.52906 -0.115842C1.44806 -0.115689 1.37043 -0.083364 1.31326 -0.0259769C1.25609 0.0314101 1.22406 0.109158 1.22421 0.190163L1.2268 1.5646C1.22695 1.6456 1.25927 1.72323 1.31666 1.7804C1.37405 1.83757 1.4518 1.8696 1.5328 1.86945ZM6.73172 5.37212C6.68427 5.37231 6.63743 5.36145 6.59491 5.34039C6.55239 5.31933 6.51537 5.28865 6.48677 5.25079C6.30138 5.00457 6.06121 4.8049 5.78528 4.66758C5.50935 4.53027 5.20524 4.45908 4.89704 4.45966C4.58883 4.46024 4.28499 4.53257 4.00958 4.67093C3.73417 4.80928 3.49476 5.00986 3.3103 5.25677C3.26171 5.32167 3.18934 5.36461 3.1091 5.37614C3.02886 5.38768 2.94732 5.36686 2.88243 5.31828C2.81753 5.2697 2.77459 5.19733 2.76306 5.11709C2.75152 5.03684 2.77233 4.95531 2.82092 4.89041C3.09092 4.52747 3.45114 4.24144 3.86584 4.06073C3.63802 3.85352 3.47817 3.58227 3.40727 3.28259C3.33637 2.9829 3.35772 2.66879 3.46854 2.38146C3.57935 2.09413 3.77444 1.84702 4.02821 1.67255C4.28198 1.49808 4.58256 1.40441 4.89052 1.40383C5.19847 1.40325 5.49941 1.49579 5.75383 1.6693C6.00826 1.84281 6.20428 2.08919 6.31617 2.3761C6.42807 2.66301 6.45061 2.97704 6.38083 3.27699C6.31106 3.57694 6.15223 3.84878 5.9252 4.05685C6.34085 4.23589 6.70242 4.52056 6.974 4.88259C7.00817 4.92783 7.02908 4.98168 7.03438 5.03812C7.03968 5.09456 7.02917 5.15136 7.00403 5.20217C6.97888 5.25298 6.94009 5.29579 6.892 5.3258C6.84391 5.35582 6.78841 5.37185 6.73172 5.37212ZM4.89627 3.84842C5.07749 3.84808 5.25455 3.79401 5.40504 3.69304C5.55553 3.59207 5.67271 3.44875 5.74174 3.28119C5.81078 3.11363 5.82858 2.92936 5.79289 2.75168C5.7572 2.574 5.66962 2.4109 5.54124 2.283C5.41285 2.15509 5.24942 2.06813 5.07161 2.03311C4.8938 1.99809 4.7096 2.01658 4.5423 2.08625C4.375 2.15592 4.23212 2.27363 4.13172 2.4245C4.03132 2.57538 3.97791 2.75263 3.97825 2.93386C3.97871 3.17687 4.07569 3.40975 4.24785 3.58127C4.42001 3.75278 4.65325 3.84888 4.89627 3.84842Z" fill="#04340E" fill-opacity="0.6"/>
</g>
<defs>
<clipPath id="clip0_3804_529">
<rect width="9.77314" height="9.77314" fill="white" transform="translate(0 0.0184001) rotate(-0.107872)"/>
</clipPath>
</defs>
</svg>
