<svg width="24" height="24" viewBox="0 0 24 24" fill="none" xmlns="http://www.w3.org/2000/svg">
<mask id="path-1-inside-1_301_39" fill="white">
<path d="M12 2.4375C10.1087 2.4375 8.25991 2.99833 6.68736 4.04907C5.11482 5.09981 3.88917 6.59327 3.16541 8.34059C2.44164 10.0879 2.25227 12.0106 2.62125 13.8656C2.99022 15.7205 3.90096 17.4244 5.2383 18.7617C6.57564 20.099 8.27951 21.0098 10.1345 21.3788C11.9894 21.7477 13.9121 21.5584 15.6594 20.8346C17.4067 20.1108 18.9002 18.8852 19.9509 17.3126C21.0017 15.7401 21.5625 13.8913 21.5625 12C21.5595 9.46478 20.5511 7.03425 18.7584 5.24158C16.9658 3.44891 14.5352 2.44048 12 2.4375ZM6.6975 18.5625C7.24762 17.6477 8.02503 16.8909 8.95417 16.3654C9.88331 15.84 10.9326 15.5638 12 15.5638C13.0674 15.5638 14.1167 15.84 15.0458 16.3654C15.975 16.8909 16.7524 17.6477 17.3025 18.5625C15.8028 19.7786 13.9308 20.4422 12 20.4422C10.0692 20.4422 8.19716 19.7786 6.6975 18.5625ZM8.8125 11.25C8.8125 10.6196 8.99945 10.0033 9.3497 9.47912C9.69994 8.95494 10.1978 8.54639 10.7802 8.30513C11.3626 8.06388 12.0035 8.00076 12.6219 8.12375C13.2402 8.24674 13.8081 8.55032 14.2539 8.9961C14.6997 9.44188 15.0033 10.0098 15.1263 10.6281C15.2492 11.2465 15.1861 11.8874 14.9449 12.4698C14.7036 13.0522 14.2951 13.5501 13.7709 13.9003C13.2467 14.2506 12.6304 14.4375 12 14.4375C11.1546 14.4375 10.3439 14.1017 9.7461 13.5039C9.14833 12.9061 8.8125 12.0954 8.8125 11.25ZM18.1416 17.7787C17.2578 16.4045 15.9367 15.3681 14.3916 14.8369C15.162 14.3237 15.7469 13.5762 16.0597 12.705C16.3726 11.8337 16.3967 10.8849 16.1287 9.99883C15.8606 9.11276 15.3145 8.33648 14.5712 7.78476C13.8278 7.23303 12.9267 6.93515 12.0009 6.93515C11.0752 6.93515 10.1741 7.23303 9.43072 7.78476C8.68737 8.33648 8.14129 9.11276 7.87322 9.99883C7.60514 10.8849 7.62931 11.8337 7.94214 12.705C8.25496 13.5762 8.83985 14.3237 9.61032 14.8369C8.06519 15.3681 6.74413 16.4045 5.86032 17.7787C4.73047 16.5798 3.97634 15.0762 3.69098 13.4537C3.40562 11.8311 3.60151 10.1605 4.25448 8.648C4.90745 7.13547 5.98893 5.84718 7.3655 4.94209C8.74206 4.037 10.3535 3.5547 12.0009 3.5547C13.6484 3.5547 15.2598 4.037 16.6364 4.94209C18.013 5.84718 19.0944 7.13547 19.7474 8.648C20.4004 10.1605 20.5963 11.8311 20.3109 13.4537C20.0255 15.0762 19.2714 16.5798 18.1416 17.7787Z"/>
</mask>
<path d="M12 2.4375C10.1087 2.4375 8.25991 2.99833 6.68736 4.04907C5.11482 5.09981 3.88917 6.59327 3.16541 8.34059C2.44164 10.0879 2.25227 12.0106 2.62125 13.8656C2.99022 15.7205 3.90096 17.4244 5.2383 18.7617C6.57564 20.099 8.27951 21.0098 10.1345 21.3788C11.9894 21.7477 13.9121 21.5584 15.6594 20.8346C17.4067 20.1108 18.9002 18.8852 19.9509 17.3126C21.0017 15.7401 21.5625 13.8913 21.5625 12C21.5595 9.46478 20.5511 7.03425 18.7584 5.24158C16.9658 3.44891 14.5352 2.44048 12 2.4375ZM6.6975 18.5625C7.24762 17.6477 8.02503 16.8909 8.95417 16.3654C9.88331 15.84 10.9326 15.5638 12 15.5638C13.0674 15.5638 14.1167 15.84 15.0458 16.3654C15.975 16.8909 16.7524 17.6477 17.3025 18.5625C15.8028 19.7786 13.9308 20.4422 12 20.4422C10.0692 20.4422 8.19716 19.7786 6.6975 18.5625ZM8.8125 11.25C8.8125 10.6196 8.99945 10.0033 9.3497 9.47912C9.69994 8.95494 10.1978 8.54639 10.7802 8.30513C11.3626 8.06388 12.0035 8.00076 12.6219 8.12375C13.2402 8.24674 13.8081 8.55032 14.2539 8.9961C14.6997 9.44188 15.0033 10.0098 15.1263 10.6281C15.2492 11.2465 15.1861 11.8874 14.9449 12.4698C14.7036 13.0522 14.2951 13.5501 13.7709 13.9003C13.2467 14.2506 12.6304 14.4375 12 14.4375C11.1546 14.4375 10.3439 14.1017 9.7461 13.5039C9.14833 12.9061 8.8125 12.0954 8.8125 11.25ZM18.1416 17.7787C17.2578 16.4045 15.9367 15.3681 14.3916 14.8369C15.162 14.3237 15.7469 13.5762 16.0597 12.705C16.3726 11.8337 16.3967 10.8849 16.1287 9.99883C15.8606 9.11276 15.3145 8.33648 14.5712 7.78476C13.8278 7.23303 12.9267 6.93515 12.0009 6.93515C11.0752 6.93515 10.1741 7.23303 9.43072 7.78476C8.68737 8.33648 8.14129 9.11276 7.87322 9.99883C7.60514 10.8849 7.62931 11.8337 7.94214 12.705C8.25496 13.5762 8.83985 14.3237 9.61032 14.8369C8.06519 15.3681 6.74413 16.4045 5.86032 17.7787C4.73047 16.5798 3.97634 15.0762 3.69098 13.4537C3.40562 11.8311 3.60151 10.1605 4.25448 8.648C4.90745 7.13547 5.98893 5.84718 7.3655 4.94209C8.74206 4.037 10.3535 3.5547 12.0009 3.5547C13.6484 3.5547 15.2598 4.037 16.6364 4.94209C18.013 5.84718 19.0944 7.13547 19.7474 8.648C20.4004 10.1605 20.5963 11.8311 20.3109 13.4537C20.0255 15.0762 19.2714 16.5798 18.1416 17.7787Z" fill="#04340E"/>
<path d="M12 2.4375L12.0035 -0.5625H12V2.4375ZM21.5625 12H24.5625L24.5625 11.9965L21.5625 12ZM6.6975 18.5625L4.1266 17.0164L2.78299 19.2506L4.80797 20.8927L6.6975 18.5625ZM12 15.5638V12.5638V15.5638ZM17.3025 18.5625L19.192 20.8927L21.217 19.2506L19.8734 17.0164L17.3025 18.5625ZM8.8125 11.25H5.8125H8.8125ZM18.1416 17.7787L15.6183 19.4015L17.6937 22.6284L20.3249 19.8362L18.1416 17.7787ZM14.3916 14.8369L12.7285 12.34L7.68099 15.702L13.4161 17.6739L14.3916 14.8369ZM12.0009 6.93515V9.93515V6.93515ZM9.61032 14.8369L10.5858 17.6739L16.3209 15.702L11.2734 12.34L9.61032 14.8369ZM5.86032 17.7787L3.67698 19.8362L6.30822 22.6284L8.38354 19.4015L5.86032 17.7787ZM12 2.4375V-0.5625C9.51538 -0.5625 7.08655 0.174278 5.02065 1.55466L6.68736 4.04907L8.35407 6.54348C9.43327 5.82238 10.7021 5.4375 12 5.4375V2.4375ZM6.68736 4.04907L5.02065 1.55466C2.95476 2.93505 1.34459 4.89704 0.393768 7.19254L3.16541 8.34059L5.93704 9.48864C6.43374 8.2895 7.27488 7.26458 8.35407 6.54348L6.68736 4.04907ZM3.16541 8.34059L0.393768 7.19254C-0.557059 9.48804 -0.805838 12.0139 -0.321111 14.4508L2.62125 13.8656L5.5636 13.2803C5.31039 12.0073 5.44034 10.6878 5.93704 9.48864L3.16541 8.34059ZM2.62125 13.8656L-0.321111 14.4508C0.163616 16.8877 1.36008 19.1261 3.11698 20.883L5.2383 18.7617L7.35962 16.6404C6.44183 15.7226 5.81682 14.5533 5.5636 13.2803L2.62125 13.8656ZM5.2383 18.7617L3.11698 20.883C4.87387 22.6399 7.1123 23.8364 9.54918 24.3211L10.1345 21.3788L10.7197 18.4364C9.44672 18.1832 8.2774 17.5582 7.35962 16.6404L5.2383 18.7617ZM10.1345 21.3788L9.54918 24.3211C11.9861 24.8058 14.512 24.5571 16.8075 23.6062L15.6594 20.8346L14.5114 18.063C13.3122 18.5597 11.9927 18.6896 10.7197 18.4364L10.1345 21.3788ZM15.6594 20.8346L16.8075 23.6062C19.103 22.6554 21.065 21.0452 22.4453 18.9794L19.9509 17.3126L17.4565 15.6459C16.7354 16.7251 15.7105 17.5663 14.5114 18.063L15.6594 20.8346ZM19.9509 17.3126L22.4453 18.9794C23.8257 16.9135 24.5625 14.4846 24.5625 12H21.5625H18.5625C18.5625 13.2979 18.1776 14.5667 17.4565 15.6459L19.9509 17.3126ZM21.5625 12L24.5625 11.9965C24.5586 8.66683 23.2342 5.47468 20.8797 3.12026L18.7584 5.24158L16.6371 7.3629C17.868 8.59383 18.5605 10.2627 18.5625 12.0035L21.5625 12ZM18.7584 5.24158L20.8797 3.12026C18.5253 0.765842 15.3332 -0.558588 12.0035 -0.562498L12 2.4375L11.9965 5.4375C13.7373 5.43954 15.4062 6.13197 16.6371 7.3629L18.7584 5.24158ZM6.6975 18.5625L9.26841 20.1086C9.55181 19.6374 9.95229 19.2475 10.4309 18.9768L8.95417 16.3654L7.4774 13.7541C6.09776 14.5343 4.94343 15.6581 4.1266 17.0164L6.6975 18.5625ZM8.95417 16.3654L10.4309 18.9768C10.9096 18.7061 11.4501 18.5638 12 18.5638L12 15.5638V12.5638C10.415 12.5638 8.85703 12.9739 7.4774 13.7541L8.95417 16.3654ZM12 15.5638V18.5638C12.5499 18.5638 13.0904 18.7061 13.5691 18.9768L15.0458 16.3654L16.5226 13.7541C15.143 12.9739 13.585 12.5638 12 12.5638L12 15.5638ZM15.0458 16.3654L13.5691 18.9768C14.0477 19.2475 14.4482 19.6374 14.7316 20.1086L17.3025 18.5625L19.8734 17.0164C19.0566 15.6581 17.9022 14.5343 16.5226 13.7541L15.0458 16.3654ZM17.3025 18.5625L15.413 16.2323C14.4477 17.0151 13.2427 17.4422 12 17.4422V20.4422V23.4422C14.6188 23.4422 17.158 22.5421 19.192 20.8927L17.3025 18.5625ZM12 20.4422V17.4422C10.7573 17.4422 9.5523 17.0151 8.58704 16.2323L6.6975 18.5625L4.80797 20.8927C6.84203 22.5421 9.38123 23.4422 12 23.4422V20.4422ZM8.8125 11.25H11.8125C11.8125 11.2129 11.8235 11.1767 11.8441 11.1458L9.3497 9.47912L6.85529 7.81241C6.1754 8.82994 5.8125 10.0262 5.8125 11.25H8.8125ZM9.3497 9.47912L11.8441 11.1458C11.8647 11.115 11.894 11.091 11.9283 11.0768L10.7802 8.30513L9.63215 5.5335C8.50153 6.00181 7.53518 6.79488 6.85529 7.81241L9.3497 9.47912ZM10.7802 8.30513L11.9283 11.0768C11.9625 11.0626 12.0002 11.0589 12.0366 11.0661L12.6219 8.12375L13.2071 5.18139C12.0069 4.94264 10.7628 5.06518 9.63215 5.5335L10.7802 8.30513ZM12.6219 8.12375L12.0366 11.0661C12.073 11.0733 12.1064 11.0912 12.1326 11.1174L14.2539 8.9961L16.3752 6.87478C15.5099 6.00944 14.4074 5.42014 13.2071 5.18139L12.6219 8.12375ZM14.2539 8.9961L12.1326 11.1174C12.1588 11.1436 12.1767 11.177 12.1839 11.2134L15.1263 10.6281L18.0686 10.0429C17.8299 8.84262 17.2406 7.74011 16.3752 6.87478L14.2539 8.9961ZM15.1263 10.6281L12.1839 11.2134C12.1911 11.2498 12.1874 11.2875 12.1732 11.3218L14.9449 12.4698L17.7165 13.6179C18.1848 12.4872 18.3074 11.2431 18.0686 10.0429L15.1263 10.6281ZM14.9449 12.4698L12.1732 11.3218C12.159 11.356 12.135 11.3853 12.1042 11.4059L13.7709 13.9003L15.4376 16.3947C16.4551 15.7148 17.2482 14.7485 17.7165 13.6179L14.9449 12.4698ZM13.7709 13.9003L12.1042 11.4059C12.0733 11.4265 12.0371 11.4375 12 11.4375V14.4375V17.4375C13.2238 17.4375 14.4201 17.0746 15.4376 16.3947L13.7709 13.9003ZM12 14.4375V11.4375C11.9503 11.4375 11.9026 11.4177 11.8674 11.3826L9.7461 13.5039L7.62478 15.6252C8.78516 16.7856 10.359 17.4375 12 17.4375V14.4375ZM9.7461 13.5039L11.8674 11.3826C11.8323 11.3474 11.8125 11.2997 11.8125 11.25H8.8125H5.8125C5.8125 12.891 6.4644 14.4648 7.62478 15.6252L9.7461 13.5039ZM18.1416 17.7787L20.6648 16.156C19.4162 14.2145 17.5499 12.7504 15.367 11.9999L14.3916 14.8369L13.4161 17.6739C14.3235 17.9859 15.0993 18.5945 15.6183 19.4015L18.1416 17.7787ZM14.3916 14.8369L16.0546 17.3337C17.3611 16.4636 18.3528 15.1961 18.8833 13.7187L16.0597 12.705L13.2362 11.6912C13.141 11.9563 12.963 12.1838 12.7285 12.34L14.3916 14.8369ZM16.0597 12.705L18.8833 13.7187C19.4137 12.2414 19.4547 10.6325 19.0001 9.13008L16.1287 9.99883L13.2572 10.8676C13.3388 11.1372 13.3314 11.426 13.2362 11.6912L16.0597 12.705ZM16.1287 9.99883L19.0001 9.13008C18.5456 7.62763 17.6196 6.31133 16.3591 5.37579L14.5712 7.78476L12.7832 10.1937C13.0094 10.3616 13.1756 10.5979 13.2572 10.8676L16.1287 9.99883ZM14.5712 7.78476L16.3591 5.37579C15.0987 4.44025 13.5706 3.93515 12.0009 3.93515V6.93515V9.93515C12.2827 9.93515 12.5569 10.0258 12.7832 10.1937L14.5712 7.78476ZM12.0009 6.93515V3.93515C10.4312 3.93515 8.90319 4.44025 7.64273 5.37579L9.43072 7.78476L11.2187 10.1937C11.4449 10.0258 11.7192 9.93515 12.0009 9.93515V6.93515ZM9.43072 7.78476L7.64273 5.37579C6.38228 6.31133 5.45632 7.62763 5.00176 9.13008L7.87322 9.99883L10.7447 10.8676C10.8263 10.5979 10.9925 10.3616 11.2187 10.1937L9.43072 7.78476ZM7.87322 9.99883L5.00176 9.13008C4.5472 10.6325 4.58817 12.2414 5.11862 13.7187L7.94214 12.705L10.7657 11.6912C10.6704 11.426 10.6631 11.1372 10.7447 10.8676L7.87322 9.99883ZM7.94214 12.705L5.11862 13.7187C5.64907 15.1961 6.64083 16.4636 7.94727 17.3337L9.61032 14.8369L11.2734 12.34C11.0389 12.1838 10.8609 11.9563 10.7657 11.6912L7.94214 12.705ZM9.61032 14.8369L8.63488 11.9999C6.45201 12.7504 4.58568 14.2145 3.33709 16.156L5.86032 17.7787L8.38354 19.4015C8.90257 18.5945 9.67837 17.9859 10.5858 17.6739L9.61032 14.8369ZM5.86032 17.7787L8.04365 15.7213C7.31553 14.9486 6.82953 13.9797 6.64563 12.934L3.69098 13.4537L0.736327 13.9733C1.12315 16.1728 2.14541 18.2109 3.67698 19.8362L5.86032 17.7787ZM3.69098 13.4537L6.64563 12.934C6.46173 11.8884 6.58797 10.8118 7.00878 9.83705L4.25448 8.648L1.50018 7.45895C0.615042 9.50927 0.349504 11.7739 0.736327 13.9733L3.69098 13.4537ZM4.25448 8.648L7.00878 9.83705C7.42958 8.86231 8.12654 8.03208 9.01366 7.4488L7.3655 4.94209L5.71734 2.43539C3.85133 3.66229 2.38532 5.40863 1.50018 7.45895L4.25448 8.648ZM7.3655 4.94209L9.01366 7.4488C9.90078 6.86552 10.9392 6.5547 12.0009 6.5547V3.5547V0.554703C9.76772 0.554703 7.58335 1.20848 5.71734 2.43539L7.3655 4.94209ZM12.0009 3.5547V6.5547C13.0626 6.5547 14.1011 6.86552 14.9882 7.4488L16.6364 4.94209L18.2845 2.43539C16.4185 1.20848 14.2342 0.554703 12.0009 0.554703V3.5547ZM16.6364 4.94209L14.9882 7.4488C15.8753 8.03208 16.5723 8.86231 16.9931 9.83705L19.7474 8.648L22.5017 7.45895C21.6166 5.40863 20.1506 3.66229 18.2845 2.43539L16.6364 4.94209ZM19.7474 8.648L16.9931 9.83705C17.4139 10.8118 17.5402 11.8884 17.3563 12.934L20.3109 13.4537L23.2656 13.9733C23.6524 11.7739 23.3868 9.50927 22.5017 7.45895L19.7474 8.648ZM20.3109 13.4537L17.3563 12.934C17.1724 13.9797 16.6864 14.9486 15.9582 15.7213L18.1416 17.7787L20.3249 19.8362C21.8565 18.2109 22.8787 16.1728 23.2656 13.9733L20.3109 13.4537Z" fill="white" mask="url(#path-1-inside-1_301_39)"/>
</svg>
