<svg width="17" height="18" viewBox="0 0 17 18" fill="none" xmlns="http://www.w3.org/2000/svg">
<mask id="path-1-inside-1_211_493" fill="white">
<path d="M16.0366 16.7979L10.091 7.45478L15.9785 0.974775C16.0357 0.921645 16.0813 0.857178 16.1122 0.785478C16.1432 0.713778 16.1589 0.636417 16.1583 0.558321C16.1577 0.480225 16.1409 0.403106 16.1089 0.331874C16.0768 0.260641 16.0303 0.196858 15.9723 0.144584C15.9143 0.0923104 15.846 0.0526924 15.7718 0.0282525C15.6977 0.00381258 15.6192 -0.00491335 15.5415 0.00263022C15.4638 0.0101738 15.3884 0.0338214 15.3204 0.0720676C15.2523 0.110314 15.1929 0.16232 15.146 0.224775L9.46849 6.4704L5.54037 0.2979C5.48925 0.217532 5.41857 0.15146 5.33494 0.105875C5.25132 0.0602895 5.15748 0.0366855 5.06224 0.0372754H0.562241C0.461478 0.0373219 0.362577 0.0644342 0.275876 0.115778C0.189176 0.167122 0.117859 0.240813 0.0693803 0.329148C0.0209016 0.417483 -0.00295876 0.517218 0.000293056 0.617928C0.00354487 0.718639 0.0337895 0.816627 0.0878657 0.901651L6.03349 10.2448L0.145991 16.7248C0.0616356 16.8371 0.0223816 16.977 0.0359525 17.1168C0.0495234 17.2567 0.114937 17.3864 0.219322 17.4804C0.323707 17.5745 0.459506 17.626 0.600001 17.625C0.740496 17.6239 0.875514 17.5704 0.978491 17.4748L6.65599 11.2292L10.5841 17.4016C10.6352 17.482 10.7059 17.5481 10.7895 17.5937C10.8732 17.6393 10.967 17.6629 11.0622 17.6623H15.5622C15.663 17.6622 15.7619 17.6351 15.8486 17.5838C15.9353 17.5324 16.0066 17.4587 16.0551 17.3704C16.1036 17.2821 16.1274 17.1823 16.1242 17.0816C16.1209 16.9809 16.0907 16.8829 16.0366 16.7979ZM11.3707 16.5373L1.58693 1.16228H4.7538L14.5376 16.5373H11.3707Z"/>
</mask>
<path d="M16.0366 16.7979L10.091 7.45478L15.9785 0.974775C16.0357 0.921645 16.0813 0.857178 16.1122 0.785478C16.1432 0.713778 16.1589 0.636417 16.1583 0.558321C16.1577 0.480225 16.1409 0.403106 16.1089 0.331874C16.0768 0.260641 16.0303 0.196858 15.9723 0.144584C15.9143 0.0923104 15.846 0.0526924 15.7718 0.0282525C15.6977 0.00381258 15.6192 -0.00491335 15.5415 0.00263022C15.4638 0.0101738 15.3884 0.0338214 15.3204 0.0720676C15.2523 0.110314 15.1929 0.16232 15.146 0.224775L9.46849 6.4704L5.54037 0.2979C5.48925 0.217532 5.41857 0.15146 5.33494 0.105875C5.25132 0.0602895 5.15748 0.0366855 5.06224 0.0372754H0.562241C0.461478 0.0373219 0.362577 0.0644342 0.275876 0.115778C0.189176 0.167122 0.117859 0.240813 0.0693803 0.329148C0.0209016 0.417483 -0.00295876 0.517218 0.000293056 0.617928C0.00354487 0.718639 0.0337895 0.816627 0.0878657 0.901651L6.03349 10.2448L0.145991 16.7248C0.0616356 16.8371 0.0223816 16.977 0.0359525 17.1168C0.0495234 17.2567 0.114937 17.3864 0.219322 17.4804C0.323707 17.5745 0.459506 17.626 0.600001 17.625C0.740496 17.6239 0.875514 17.5704 0.978491 17.4748L6.65599 11.2292L10.5841 17.4016C10.6352 17.482 10.7059 17.5481 10.7895 17.5937C10.8732 17.6393 10.967 17.6629 11.0622 17.6623H15.5622C15.663 17.6622 15.7619 17.6351 15.8486 17.5838C15.9353 17.5324 16.0066 17.4587 16.0551 17.3704C16.1036 17.2821 16.1274 17.1823 16.1242 17.0816C16.1209 16.9809 16.0907 16.8829 16.0366 16.7979ZM11.3707 16.5373L1.58693 1.16228H4.7538L14.5376 16.5373H11.3707Z" fill="#F4F1EA"/>
<path d="M16.0366 16.7979L24.4746 11.4312L24.4732 11.4291L16.0366 16.7979ZM10.091 7.45478L2.68965 0.73018L-2.44503 6.3816L1.65438 12.8235L10.091 7.45478ZM15.9785 0.974775L9.1755 -6.35457L8.86345 -6.06493L8.57715 -5.74982L15.9785 0.974775ZM15.146 0.224775L22.5456 6.95128L22.8612 6.60404L23.143 6.22877L15.146 0.224775ZM9.46849 6.4704L1.03198 11.8393L8.06132 22.8849L16.8681 13.1969L9.46849 6.4704ZM5.54037 0.2979L-2.8977 5.66438L-2.89614 5.66682L5.54037 0.2979ZM5.06224 0.0372754V10.0373H5.09321L5.12418 10.0371L5.06224 0.0372754ZM0.562241 0.0372754V-9.96273L0.557631 -9.96272L0.562241 0.0372754ZM0.0878657 0.901651L-8.35008 6.26832L-8.34875 6.27041L0.0878657 0.901651ZM6.03349 10.2448L13.4348 16.9694L18.5695 11.3179L14.4701 4.87602L6.03349 10.2448ZM0.145991 16.7248L-7.25535 10.0002L-7.57004 10.3465L-7.85101 10.7208L0.145991 16.7248ZM0.978491 17.4748L7.78149 24.8041L8.09258 24.5154L8.37809 24.2013L0.978491 17.4748ZM6.65599 11.2292L15.0925 5.86023L8.06316 -5.18539L-0.743611 4.50264L6.65599 11.2292ZM10.5841 17.4016L19.0222 12.0352L19.0206 12.0327L10.5841 17.4016ZM11.0622 17.6623V7.66227H11.0313L11.0003 7.66247L11.0622 17.6623ZM15.5622 17.6623V27.6623L15.5668 27.6623L15.5622 17.6623ZM11.3707 16.5373L2.93398 21.9059L5.88111 26.5373H11.3707V16.5373ZM1.58693 1.16228V-8.83772H-16.6295L-6.84977 6.5309L1.58693 1.16228ZM4.7538 1.16228L13.1905 -4.20635L10.2434 -8.83772H4.7538V1.16228ZM14.5376 16.5373V26.5373H32.7539L22.9743 11.1687L14.5376 16.5373ZM16.0366 16.7979L24.4732 11.4291L18.5276 2.08602L10.091 7.45478L1.65438 12.8235L7.6 22.1667L16.0366 16.7979ZM10.091 7.45478L17.4923 14.1794L23.3798 7.69937L15.9785 0.974775L8.57715 -5.74982L2.68965 0.73018L10.091 7.45478ZM15.9785 0.974775L22.7815 8.30412C23.8564 7.30643 24.7117 6.09586 25.293 4.74953L16.1122 0.785478L6.93148 -3.17857C7.45088 -4.38151 8.2151 -5.46314 9.1755 -6.35457L15.9785 0.974775ZM16.1122 0.785478L25.293 4.74953C25.8743 3.40315 26.1689 1.95048 26.158 0.484029L16.1583 0.558321L6.15858 0.632613C6.14885 -0.677645 6.41206 -1.97559 6.93148 -3.17857L16.1122 0.785478ZM16.1583 0.558321L26.158 0.484029C26.1471 -0.982446 25.831 -2.43058 25.2297 -3.76815L16.1089 0.331874L6.98802 4.4319C6.4508 3.23679 6.16832 1.9429 6.15858 0.632613L16.1583 0.558321ZM16.1089 0.331874L25.2297 -3.76815C24.6284 -5.10571 23.7552 -6.30343 22.6657 -7.28503L15.9723 0.144584L9.27898 7.5742C8.30545 6.69715 7.52525 5.627 6.98802 4.4319L16.1089 0.331874ZM15.9723 0.144584L22.6657 -7.28503C21.5761 -8.26659 20.2941 -9.01055 18.9012 -9.46948L15.7718 0.0282525L12.6425 9.52599C11.3979 9.11593 10.2525 8.45122 9.27898 7.5742L15.9723 0.144584ZM15.7718 0.0282525L18.9012 -9.46948C17.5084 -9.92841 16.0352 -10.0923 14.5756 -9.95061L15.5415 0.00263022L16.5074 9.95587C15.2032 10.0824 13.887 9.93604 12.6425 9.52599L15.7718 0.0282525ZM15.5415 0.00263022L14.5756 -9.95061C13.116 -9.80896 11.7018 -9.36492 10.4231 -8.64673L15.3204 0.0720676L20.2176 8.79086C19.0751 9.43256 17.8116 9.82931 16.5074 9.95587L15.5415 0.00263022ZM15.3204 0.0720676L10.4231 -8.64673C9.14452 -7.92854 8.02946 -6.95197 7.14898 -5.77921L15.146 0.224775L23.143 6.22877C22.3563 7.27661 21.36 8.14917 20.2176 8.79086L15.3204 0.0720676ZM15.146 0.224775L7.74639 -6.50173L2.06889 -0.256105L9.46849 6.4704L16.8681 13.1969L22.5456 6.95128L15.146 0.224775ZM9.46849 6.4704L17.905 1.10148L13.9769 -5.07102L5.54037 0.2979L-2.89614 5.66682L1.03198 11.8393L9.46849 6.4704ZM5.54037 0.2979L13.9784 -5.06857C13.0187 -6.5777 11.6914 -7.81841 10.1211 -8.6744L5.33494 0.105875L0.548834 8.88615C-0.854249 8.12133 -2.04015 7.01276 -2.8977 5.66437L5.54037 0.2979ZM5.33494 0.105875L10.1211 -8.6744C8.55072 -9.53038 6.78876 -9.97361 5.00031 -9.96253L5.06224 0.0372754L5.12418 10.0371C3.52621 10.047 1.95191 9.65096 0.548834 8.88615L5.33494 0.105875ZM5.06224 0.0372754V-9.96272H0.562241V0.0372754V10.0373H5.06224V0.0372754ZM0.562241 0.0372754L0.557631 -9.96272C-1.33447 -9.96185 -3.19161 -9.45274 -4.81965 -8.48861L0.275876 0.115778L5.37141 8.72017C3.91676 9.58161 2.25743 10.0365 0.56685 10.0373L0.562241 0.0372754ZM0.275876 0.115778L-4.81965 -8.48861C-6.4477 -7.52448 -7.78687 -6.14073 -8.69719 -4.48201L0.0693803 0.329148L8.83595 5.1403C8.02259 6.62236 6.82605 7.85873 5.37141 8.72017L0.275876 0.115778ZM0.0693803 0.329148L-8.69719 -4.48201C-9.60751 -2.82328 -10.0556 -0.950473 -9.9945 0.940647L0.000293056 0.617928L9.99508 0.295209C10.0496 1.98491 9.64932 3.65824 8.83595 5.1403L0.0693803 0.329148ZM0.000293056 0.617928L-9.9945 0.940647C-9.93344 2.83176 -9.36551 4.67176 -8.35008 6.26832L0.0878657 0.901651L8.52581 -4.46502C9.43309 -3.03851 9.94053 -1.39448 9.99508 0.295209L0.000293056 0.617928ZM0.0878657 0.901651L-8.34875 6.27041L-2.40312 15.6135L6.03349 10.2448L14.4701 4.87602L8.52448 -4.4671L0.0878657 0.901651ZM6.03349 10.2448L-1.36785 3.52018L-7.25535 10.0002L0.145991 16.7248L7.54733 23.4494L13.4348 16.9694L6.03349 10.2448ZM0.145991 16.7248L-7.85101 10.7208C-9.43502 12.8306 -10.1721 15.4568 -9.91729 18.0827L0.0359525 17.1168L9.98919 16.1509C10.2169 18.4972 9.55829 20.8437 8.143 22.7288L0.145991 16.7248ZM0.0359525 17.1168L-9.91729 18.0827C-9.66246 20.7087 -8.43414 23.1442 -6.47402 24.91L0.219322 17.4804L6.91267 10.0508C8.66401 11.6286 9.7615 13.8047 9.98919 16.1509L0.0359525 17.1168ZM0.219322 17.4804L-6.47402 24.91C-4.51391 26.6759 -1.9639 27.6443 0.674293 27.6247L0.600001 17.625L0.52571 7.62526C2.88291 7.60775 5.16132 8.47301 6.91267 10.0508L0.219322 17.4804ZM0.600001 17.625L0.674293 27.6247C3.3125 27.6051 5.84784 26.5989 7.78149 24.8041L0.978491 17.4748L-5.8245 10.1454C-4.09681 8.54181 -1.83151 7.64277 0.52571 7.62526L0.600001 17.625ZM0.978491 17.4748L8.37809 24.2013L14.0556 17.9557L6.65599 11.2292L-0.743611 4.50264L-6.42111 10.7483L0.978491 17.4748ZM6.65599 11.2292L-1.78052 16.5981L2.14761 22.7706L10.5841 17.4016L19.0206 12.0327L15.0925 5.86023L6.65599 11.2292ZM10.5841 17.4016L2.14605 22.7681C3.10584 24.2773 4.43311 25.518 6.00343 26.3739L10.7895 17.5937L15.5756 8.81341C16.9787 9.57821 18.1646 10.6868 19.0222 12.0352L10.5841 17.4016ZM10.7895 17.5937L6.00343 26.3739C7.57378 27.2299 9.33575 27.6732 11.1242 27.6621L11.0622 17.6623L11.0003 7.66247C12.5982 7.65257 14.1726 8.04858 15.5756 8.81341L10.7895 17.5937ZM11.0622 17.6623V27.6623H15.5622V17.6623V7.66227H11.0622V17.6623ZM15.5622 17.6623L15.5668 27.6623C17.4589 27.6614 19.3161 27.1523 20.9441 26.1882L15.8486 17.5838L10.7531 8.97938C12.2078 8.11792 13.8671 7.66305 15.5576 7.66228L15.5622 17.6623ZM15.8486 17.5838L20.9441 26.1882C22.5722 25.224 23.9114 23.8402 24.8217 22.1816L16.0551 17.3704L7.28853 12.5592C8.10186 11.0773 9.29837 9.84086 10.7531 8.97938L15.8486 17.5838ZM16.0551 17.3704L24.8217 22.1816C25.732 20.5229 26.18 18.6501 26.119 16.7589L16.1242 17.0816L6.1294 17.4043C6.07484 15.7146 6.47519 14.0413 7.28853 12.5592L16.0551 17.3704ZM16.1242 17.0816L26.119 16.7589C26.0579 14.8678 25.49 13.0278 24.4746 11.4312L16.0366 16.7979L7.59867 22.1646C6.69141 20.7381 6.18396 19.0941 6.1294 17.4043L16.1242 17.0816ZM11.3707 16.5373L19.8074 11.1687L10.0236 -4.20635L1.58693 1.16228L-6.84977 6.5309L2.93398 21.9059L11.3707 16.5373ZM1.58693 1.16228V11.1623H4.7538V1.16228V-8.83772H1.58693V1.16228ZM4.7538 1.16228L-3.6829 6.5309L6.10085 21.9059L14.5376 16.5373L22.9743 11.1687L13.1905 -4.20635L4.7538 1.16228ZM14.5376 16.5373V6.53727H11.3707V16.5373V26.5373H14.5376V16.5373Z" fill="#F4F1EA" mask="url(#path-1-inside-1_211_493)"/>
</svg>
