<svg width="21" height="19" viewBox="0 0 21 19" fill="none" xmlns="http://www.w3.org/2000/svg">
<path d="M18.9268 1.42188L7.1748 9.84473L6.66211 10.2109L7.13574 10.627L15.0557 17.5732V17.5742C15.1474 17.6567 15.2599 17.7131 15.3809 17.7373C15.4932 17.7598 15.6086 17.7515 15.7178 17.7178L15.7188 17.7197C15.7223 17.7187 15.7259 17.716 15.7295 17.7148C15.7339 17.7134 15.7388 17.7134 15.7432 17.7119L15.7422 17.71C15.8499 17.6739 15.9479 17.6136 16.0254 17.5303C16.1085 17.4409 16.1654 17.3302 16.1914 17.2109L19.7051 1.94043L20.002 0.651367L18.9268 1.42188ZM6.62402 16.3174C6.62527 16.4537 6.66721 16.5867 6.74414 16.6992C6.82127 16.8119 6.93076 16.8997 7.05762 16.9502C7.1844 17.0006 7.32365 17.0122 7.45703 16.9834C7.55712 16.9618 7.65096 16.9184 7.73145 16.8564L7.80664 16.7881L10.2676 14.2324L10.6318 13.8545L10.2373 13.5098L7.4541 11.0723L6.62402 10.3457V16.3174ZM15.9336 2.20215L0.960938 8.06348V8.06445C0.91187 8.08346 0.864959 8.10842 0.823242 8.14062L0.709961 8.22754L0.660156 8.3623C0.614967 8.48417 0.614948 8.61838 0.660156 8.74023L0.75 8.98242L1 9.04883L1.01465 9.05273L1.03027 9.05762L1.04688 9.06055L6.33594 10.0957L6.54688 10.1367L6.72266 10.0117L16.4072 3.07422L15.9336 2.20215ZM6.49902 10.2588L6.0957 10.1797L1.02246 9.18262C0.885219 9.15567 0.759654 9.08533 0.666016 8.98145C0.572441 8.87756 0.51551 8.74569 0.50293 8.60645C0.490416 8.46707 0.523043 8.327 0.59668 8.20801C0.670316 8.08902 0.780819 7.99728 0.911133 7.94629L19.9102 0.510742C19.9366 0.500359 19.9661 0.497154 19.9941 0.501953C20.0221 0.506754 20.0479 0.519607 20.0693 0.538086H20.0703C20.0918 0.556647 20.1074 0.581409 20.1162 0.608398C20.1249 0.635276 20.1264 0.66386 20.1201 0.691406L16.3125 17.2471L16.3115 17.249C16.2808 17.3853 16.2146 17.5113 16.1201 17.6143C16.0256 17.7171 15.9056 17.7938 15.7725 17.8359L15.7705 17.8369C15.6879 17.8635 15.6015 17.8757 15.5146 17.876C15.3191 17.8756 15.1299 17.8054 14.9834 17.6758L14.9824 17.6738L11.084 14.2568L10.7256 13.9424L10.3945 14.2861L7.89648 16.876C7.78413 16.9925 7.63973 17.0727 7.48145 17.1064C7.32307 17.1402 7.158 17.126 7.00781 17.0654C6.85775 17.0048 6.72924 16.9007 6.63867 16.7666C6.54811 16.6324 6.49909 16.4744 6.49902 16.3125V10.2588Z" fill="#F4F1EA"/>
<path d="M18.9268 1.42188L7.1748 9.84473L6.66211 10.2109L7.13574 10.627L15.0557 17.5732V17.5742C15.1474 17.6567 15.2599 17.7131 15.3809 17.7373C15.4932 17.7598 15.6086 17.7515 15.7178 17.7178L15.7188 17.7197C15.7223 17.7187 15.7259 17.716 15.7295 17.7148C15.7339 17.7134 15.7388 17.7134 15.7432 17.7119L15.7422 17.71C15.8499 17.6739 15.9479 17.6136 16.0254 17.5303C16.1085 17.4409 16.1654 17.3302 16.1914 17.2109L19.7051 1.94043L20.002 0.651367L18.9268 1.42188ZM6.62402 16.3174C6.62527 16.4537 6.66721 16.5867 6.74414 16.6992C6.82127 16.8119 6.93076 16.8997 7.05762 16.9502C7.1844 17.0006 7.32365 17.0122 7.45703 16.9834C7.55712 16.9618 7.65096 16.9184 7.73145 16.8564L7.80664 16.7881L10.2676 14.2324L10.6318 13.8545L10.2373 13.5098L7.4541 11.0723L6.62402 10.3457V16.3174ZM15.9336 2.20215L0.960938 8.06348V8.06445C0.91187 8.08346 0.864959 8.10842 0.823242 8.14062L0.709961 8.22754L0.660156 8.3623C0.614967 8.48417 0.614948 8.61838 0.660156 8.74023L0.75 8.98242L1 9.04883L1.01465 9.05273L1.03027 9.05762L1.04688 9.06055L6.33594 10.0957L6.54688 10.1367L6.72266 10.0117L16.4072 3.07422L15.9336 2.20215ZM6.49902 10.2588L6.0957 10.1797L1.02246 9.18262C0.885219 9.15567 0.759654 9.08533 0.666016 8.98145C0.572441 8.87756 0.51551 8.74569 0.50293 8.60645C0.490416 8.46707 0.523043 8.327 0.59668 8.20801C0.670316 8.08902 0.780819 7.99728 0.911133 7.94629L19.9102 0.510742C19.9366 0.500359 19.9661 0.497154 19.9941 0.501953C20.0221 0.506754 20.0479 0.519607 20.0693 0.538086H20.0703C20.0918 0.556647 20.1074 0.581409 20.1162 0.608398C20.1249 0.635276 20.1264 0.66386 20.1201 0.691406L16.3125 17.2471L16.3115 17.249C16.2808 17.3853 16.2146 17.5113 16.1201 17.6143C16.0256 17.7171 15.9056 17.7938 15.7725 17.8359L15.7705 17.8369C15.6879 17.8635 15.6015 17.8757 15.5146 17.876C15.3191 17.8756 15.1299 17.8054 14.9834 17.6758L14.9824 17.6738L11.084 14.2568L10.7256 13.9424L10.3945 14.2861L7.89648 16.876C7.78413 16.9925 7.63973 17.0727 7.48145 17.1064C7.32307 17.1402 7.158 17.126 7.00781 17.0654C6.85775 17.0048 6.72924 16.9007 6.63867 16.7666C6.54811 16.6324 6.49909 16.4744 6.49902 16.3125V10.2588Z" stroke="white"/>
<path d="M18.9268 1.42188L7.1748 9.84473L6.66211 10.2109L7.13574 10.627L15.0557 17.5732V17.5742C15.1474 17.6567 15.2599 17.7131 15.3809 17.7373C15.4932 17.7598 15.6086 17.7515 15.7178 17.7178L15.7188 17.7197C15.7223 17.7187 15.7259 17.716 15.7295 17.7148C15.7339 17.7134 15.7388 17.7134 15.7432 17.7119L15.7422 17.71C15.8499 17.6739 15.9479 17.6136 16.0254 17.5303C16.1085 17.4409 16.1654 17.3302 16.1914 17.2109L19.7051 1.94043L20.002 0.651367L18.9268 1.42188ZM6.62402 16.3174C6.62527 16.4537 6.66721 16.5867 6.74414 16.6992C6.82127 16.8119 6.93076 16.8997 7.05762 16.9502C7.1844 17.0006 7.32365 17.0122 7.45703 16.9834C7.55712 16.9618 7.65096 16.9184 7.73145 16.8564L7.80664 16.7881L10.2676 14.2324L10.6318 13.8545L10.2373 13.5098L7.4541 11.0723L6.62402 10.3457V16.3174ZM15.9336 2.20215L0.960938 8.06348V8.06445C0.91187 8.08346 0.864959 8.10842 0.823242 8.14062L0.709961 8.22754L0.660156 8.3623C0.614967 8.48417 0.614948 8.61838 0.660156 8.74023L0.75 8.98242L1 9.04883L1.01465 9.05273L1.03027 9.05762L1.04688 9.06055L6.33594 10.0957L6.54688 10.1367L6.72266 10.0117L16.4072 3.07422L15.9336 2.20215ZM6.49902 10.2588L6.0957 10.1797L1.02246 9.18262C0.885219 9.15567 0.759654 9.08533 0.666016 8.98145C0.572441 8.87756 0.51551 8.74569 0.50293 8.60645C0.490416 8.46707 0.523043 8.327 0.59668 8.20801C0.670316 8.08902 0.780819 7.99728 0.911133 7.94629L19.9102 0.510742C19.9366 0.500359 19.9661 0.497154 19.9941 0.501953C20.0221 0.506754 20.0479 0.519607 20.0693 0.538086H20.0703C20.0918 0.556647 20.1074 0.581409 20.1162 0.608398C20.1249 0.635276 20.1264 0.66386 20.1201 0.691406L16.3125 17.2471L16.3115 17.249C16.2808 17.3853 16.2146 17.5113 16.1201 17.6143C16.0256 17.7171 15.9056 17.7938 15.7725 17.8359L15.7705 17.8369C15.6879 17.8635 15.6015 17.8757 15.5146 17.876C15.3191 17.8756 15.1299 17.8054 14.9834 17.6758L14.9824 17.6738L11.084 14.2568L10.7256 13.9424L10.3945 14.2861L7.89648 16.876C7.78413 16.9925 7.63973 17.0727 7.48145 17.1064C7.32307 17.1402 7.158 17.126 7.00781 17.0654C6.85775 17.0048 6.72924 16.9007 6.63867 16.7666C6.54811 16.6324 6.49909 16.4744 6.49902 16.3125V10.2588Z" stroke="black" stroke-opacity="0.2"/>
</svg>
