<svg width="20" height="20" viewBox="0 0 20 20" fill="none" xmlns="http://www.w3.org/2000/svg">
<mask id="path-1-inside-1_211_492" fill="white">
<path d="M9.5625 5.25C8.70957 5.25 7.87579 5.50292 7.1666 5.97679C6.45742 6.45065 5.90467 7.12417 5.57827 7.91218C5.25187 8.70018 5.16647 9.56728 5.33286 10.4038C5.49926 11.2404 5.90999 12.0088 6.5131 12.6119C7.11622 13.215 7.88463 13.6257 8.72117 13.7921C9.55772 13.9585 10.4248 13.8731 11.2128 13.5467C12.0008 13.2203 12.6743 12.6676 13.1482 11.9584C13.6221 11.2492 13.875 10.4154 13.875 9.5625C13.8735 8.41921 13.4187 7.32317 12.6103 6.51475C11.8018 5.70632 10.7058 5.25149 9.5625 5.25ZM9.5625 12.75C8.93207 12.75 8.3158 12.5631 7.79162 12.2128C7.26744 11.8626 6.85889 11.3647 6.61763 10.7823C6.37638 10.1999 6.31326 9.55896 6.43625 8.94065C6.55924 8.32234 6.86282 7.75438 7.3086 7.3086C7.75438 6.86282 8.32234 6.55924 8.94065 6.43625C9.55896 6.31326 10.1999 6.37638 10.7823 6.61763C11.3647 6.85889 11.8626 7.26744 12.2128 7.79162C12.5631 8.3158 12.75 8.93207 12.75 9.5625C12.75 10.4079 12.4142 11.2186 11.8164 11.8164C11.2186 12.4142 10.4079 12.75 9.5625 12.75ZM14.0625 0H5.0625C3.7203 0.00148885 2.4335 0.535336 1.48442 1.48442C0.535336 2.4335 0.00148885 3.7203 0 5.0625V14.0625C0.00148885 15.4047 0.535336 16.6915 1.48442 17.6406C2.4335 18.5897 3.7203 19.1235 5.0625 19.125H14.0625C15.4047 19.1235 16.6915 18.5897 17.6406 17.6406C18.5897 16.6915 19.1235 15.4047 19.125 14.0625V5.0625C19.1235 3.7203 18.5897 2.4335 17.6406 1.48442C16.6915 0.535336 15.4047 0.00148885 14.0625 0ZM18 14.0625C18 15.1068 17.5852 16.1083 16.8467 16.8467C16.1083 17.5852 15.1068 18 14.0625 18H5.0625C4.01821 18 3.01669 17.5852 2.27827 16.8467C1.53984 16.1083 1.125 15.1068 1.125 14.0625V5.0625C1.125 4.01821 1.53984 3.01669 2.27827 2.27827C3.01669 1.53984 4.01821 1.125 5.0625 1.125H14.0625C15.1068 1.125 16.1083 1.53984 16.8467 2.27827C17.5852 3.01669 18 4.01821 18 5.0625V14.0625ZM15.375 4.6875C15.375 4.87292 15.32 5.05418 15.217 5.20835C15.114 5.36252 14.9676 5.48268 14.7963 5.55364C14.625 5.62459 14.4365 5.64316 14.2546 5.60699C14.0727 5.57081 13.9057 5.48152 13.7746 5.35041C13.6435 5.2193 13.5542 5.05225 13.518 4.8704C13.4818 4.68854 13.5004 4.50004 13.5714 4.32873C13.6423 4.15743 13.7625 4.01101 13.9167 3.908C14.0708 3.80498 14.2521 3.75 14.4375 3.75C14.6861 3.75 14.9246 3.84877 15.1004 4.02459C15.2762 4.2004 15.375 4.43886 15.375 4.6875Z"/>
</mask>
<path d="M9.5625 5.25C8.70957 5.25 7.87579 5.50292 7.1666 5.97679C6.45742 6.45065 5.90467 7.12417 5.57827 7.91218C5.25187 8.70018 5.16647 9.56728 5.33286 10.4038C5.49926 11.2404 5.90999 12.0088 6.5131 12.6119C7.11622 13.215 7.88463 13.6257 8.72117 13.7921C9.55772 13.9585 10.4248 13.8731 11.2128 13.5467C12.0008 13.2203 12.6743 12.6676 13.1482 11.9584C13.6221 11.2492 13.875 10.4154 13.875 9.5625C13.8735 8.41921 13.4187 7.32317 12.6103 6.51475C11.8018 5.70632 10.7058 5.25149 9.5625 5.25ZM9.5625 12.75C8.93207 12.75 8.3158 12.5631 7.79162 12.2128C7.26744 11.8626 6.85889 11.3647 6.61763 10.7823C6.37638 10.1999 6.31326 9.55896 6.43625 8.94065C6.55924 8.32234 6.86282 7.75438 7.3086 7.3086C7.75438 6.86282 8.32234 6.55924 8.94065 6.43625C9.55896 6.31326 10.1999 6.37638 10.7823 6.61763C11.3647 6.85889 11.8626 7.26744 12.2128 7.79162C12.5631 8.3158 12.75 8.93207 12.75 9.5625C12.75 10.4079 12.4142 11.2186 11.8164 11.8164C11.2186 12.4142 10.4079 12.75 9.5625 12.75ZM14.0625 0H5.0625C3.7203 0.00148885 2.4335 0.535336 1.48442 1.48442C0.535336 2.4335 0.00148885 3.7203 0 5.0625V14.0625C0.00148885 15.4047 0.535336 16.6915 1.48442 17.6406C2.4335 18.5897 3.7203 19.1235 5.0625 19.125H14.0625C15.4047 19.1235 16.6915 18.5897 17.6406 17.6406C18.5897 16.6915 19.1235 15.4047 19.125 14.0625V5.0625C19.1235 3.7203 18.5897 2.4335 17.6406 1.48442C16.6915 0.535336 15.4047 0.00148885 14.0625 0ZM18 14.0625C18 15.1068 17.5852 16.1083 16.8467 16.8467C16.1083 17.5852 15.1068 18 14.0625 18H5.0625C4.01821 18 3.01669 17.5852 2.27827 16.8467C1.53984 16.1083 1.125 15.1068 1.125 14.0625V5.0625C1.125 4.01821 1.53984 3.01669 2.27827 2.27827C3.01669 1.53984 4.01821 1.125 5.0625 1.125H14.0625C15.1068 1.125 16.1083 1.53984 16.8467 2.27827C17.5852 3.01669 18 4.01821 18 5.0625V14.0625ZM15.375 4.6875C15.375 4.87292 15.32 5.05418 15.217 5.20835C15.114 5.36252 14.9676 5.48268 14.7963 5.55364C14.625 5.62459 14.4365 5.64316 14.2546 5.60699C14.0727 5.57081 13.9057 5.48152 13.7746 5.35041C13.6435 5.2193 13.5542 5.05225 13.518 4.8704C13.4818 4.68854 13.5004 4.50004 13.5714 4.32873C13.6423 4.15743 13.7625 4.01101 13.9167 3.908C14.0708 3.80498 14.2521 3.75 14.4375 3.75C14.6861 3.75 14.9246 3.84877 15.1004 4.02459C15.2762 4.2004 15.375 4.43886 15.375 4.6875Z" fill="#F4F1EA"/>
<path d="M9.5625 5.25L9.57552 -4.75H9.5625V5.25ZM13.875 9.5625H23.875L23.875 9.54948L13.875 9.5625ZM9.5625 12.75V2.75V12.75ZM14.0625 0L14.0736 -10H14.0625V0ZM5.0625 0V-10L5.05141 -9.99999L5.0625 0ZM0 5.0625L-10 5.05141V5.0625H0ZM0 14.0625H-10L-9.99999 14.0736L0 14.0625ZM5.0625 19.125L5.05141 29.125H5.0625V19.125ZM14.0625 19.125V29.125L14.0736 29.125L14.0625 19.125ZM19.125 14.0625L29.125 14.0736V14.0625H19.125ZM19.125 5.0625H29.125L29.125 5.05141L19.125 5.0625ZM18 14.0625H28H18ZM5.0625 18V28V18ZM1.125 14.0625H-8.875H1.125ZM5.0625 1.125V-8.875V1.125ZM9.5625 5.25V-4.75C6.73176 -4.75 3.96458 -3.91059 1.6109 -2.33791L7.1666 5.97679L12.7223 14.2915C11.787 14.9164 10.6874 15.25 9.5625 15.25V5.25ZM7.1666 5.97679L1.6109 -2.33791C-0.742776 -0.765232 -2.57725 1.47007 -3.66053 4.08534L5.57827 7.91218L14.8171 11.739C14.3866 12.7783 13.6576 13.6665 12.7223 14.2915L7.1666 5.97679ZM5.57827 7.91218L-3.66053 4.08534C-4.74381 6.70061 -5.02724 9.57838 -4.47499 12.3547L5.33286 10.4038L15.1407 8.45292C15.3602 9.55619 15.2475 10.6998 14.8171 11.739L5.57827 7.91218ZM5.33286 10.4038L-4.47499 12.3547C-3.92274 15.1311 -2.55961 17.6813 -0.557966 19.683L6.5131 12.6119L13.5842 5.54083C14.3796 6.33624 14.9213 7.34966 15.1407 8.45292L5.33286 10.4038ZM6.5131 12.6119L-0.557966 19.683C1.44368 21.6846 3.99392 23.0477 6.77027 23.6L8.72117 13.7921L10.6721 3.98428C11.7753 4.20374 12.7888 4.74542 13.5842 5.54083L6.5131 12.6119ZM8.72117 13.7921L6.77027 23.6C9.54662 24.1522 12.4244 23.8688 15.0397 22.7855L11.2128 13.5467L7.38599 4.30794C8.42525 3.87746 9.56881 3.76483 10.6721 3.98428L8.72117 13.7921ZM11.2128 13.5467L15.0397 22.7855C17.6549 21.7022 19.8902 19.8678 21.4629 17.5141L13.1482 11.9584L4.83352 6.40269C5.45847 5.46739 6.34673 4.73841 7.38599 4.30794L11.2128 13.5467ZM13.1482 11.9584L21.4629 17.5141C23.0356 15.1604 23.875 12.3932 23.875 9.5625H13.875H3.875C3.875 8.43762 4.20857 7.338 4.83352 6.40269L13.1482 11.9584ZM13.875 9.5625L23.875 9.54948C23.8701 5.75854 22.3619 2.12428 19.6813 -0.556322L12.6103 6.51475L5.53919 13.5858C4.47544 12.5221 3.87697 11.0799 3.87501 9.57552L13.875 9.5625ZM12.6103 6.51475L19.6813 -0.556322C17.0007 -3.23693 13.3665 -4.74506 9.57552 -4.74999L9.5625 5.25L9.54948 15.25C8.04512 15.248 6.60293 14.6496 5.53919 13.5858L12.6103 6.51475ZM9.5625 12.75V2.75C10.9099 2.75 12.227 3.14954 13.3473 3.89811L7.79162 12.2128L2.23592 20.5275C4.4046 21.9766 6.95427 22.75 9.5625 22.75V12.75ZM7.79162 12.2128L13.3473 3.89811C14.4676 4.64669 15.3408 5.71066 15.8564 6.95547L6.61763 10.7823L-2.62116 14.6091C-1.62303 17.0188 0.0672358 19.0784 2.23592 20.5275L7.79162 12.2128ZM6.61763 10.7823L15.8564 6.95547C16.372 8.20029 16.507 9.57005 16.2441 10.8916L6.43625 8.94065L-3.37161 6.98975C-3.88045 9.54788 -3.61929 12.1994 -2.62116 14.6091L6.61763 10.7823ZM6.43625 8.94065L16.2441 10.8916C15.9812 12.213 15.3324 13.4269 14.3797 14.3797L7.3086 7.3086L0.237529 0.237529C-1.60678 2.08183 -2.86276 4.43162 -3.37161 6.98975L6.43625 8.94065ZM7.3086 7.3086L14.3797 14.3797C13.4269 15.3324 12.213 15.9812 10.8916 16.2441L8.94065 6.43625L6.98975 -3.37161C4.43162 -2.86276 2.08183 -1.60678 0.237529 0.237529L7.3086 7.3086ZM8.94065 6.43625L10.8916 16.2441C9.57005 16.507 8.20029 16.372 6.95547 15.8564L10.7823 6.61763L14.6091 -2.62116C12.1994 -3.61929 9.54788 -3.88045 6.98975 -3.37161L8.94065 6.43625ZM10.7823 6.61763L6.95547 15.8564C5.71066 15.3408 4.64669 14.4676 3.89811 13.3473L12.2128 7.79162L20.5275 2.23592C19.0784 0.0672358 17.0188 -1.62303 14.6091 -2.62116L10.7823 6.61763ZM12.2128 7.79162L3.89811 13.3473C3.14954 12.227 2.75 10.9099 2.75 9.5625H12.75H22.75C22.75 6.95427 21.9766 4.4046 20.5275 2.23592L12.2128 7.79162ZM12.75 9.5625H2.75C2.75 7.75571 3.46775 6.02292 4.74533 4.74533L11.8164 11.8164L18.8875 18.8875C21.3606 16.4143 22.75 13.06 22.75 9.5625H12.75ZM11.8164 11.8164L4.74533 4.74533C6.02292 3.46775 7.75571 2.75 9.5625 2.75V12.75V22.75C13.06 22.75 16.4143 21.3606 18.8875 18.8875L11.8164 11.8164ZM14.0625 0V-10H5.0625V0V10H14.0625V0ZM5.0625 0L5.05141 -9.99999C1.06089 -9.99557 -2.76493 -8.40838 -5.58665 -5.58665L1.48442 1.48442L8.55548 8.55548C7.63192 9.47905 6.37971 9.99854 5.07359 9.99999L5.0625 0ZM1.48442 1.48442L-5.58665 -5.58665C-8.40838 -2.76493 -9.99557 1.06089 -9.99999 5.05141L0 5.0625L9.99999 5.07359C9.99854 6.37971 9.47905 7.63192 8.55548 8.55548L1.48442 1.48442ZM0 5.0625H-10V14.0625H0H10V5.0625H0ZM0 14.0625L-9.99999 14.0736C-9.99557 18.0641 -8.40838 21.8899 -5.58665 24.7117L1.48442 17.6406L8.55548 10.5695C9.47905 11.4931 9.99854 12.7453 9.99999 14.0514L0 14.0625ZM1.48442 17.6406L-5.58665 24.7117C-2.76492 27.5334 1.06089 29.1206 5.05141 29.125L5.0625 19.125L5.07359 9.12501C6.37971 9.12646 7.63192 9.64595 8.55548 10.5695L1.48442 17.6406ZM5.0625 19.125V29.125H14.0625V19.125V9.125H5.0625V19.125ZM14.0625 19.125L14.0736 29.125C18.0641 29.1206 21.8899 27.5334 24.7117 24.7117L17.6406 17.6406L10.5695 10.5695C11.4931 9.64595 12.7453 9.12646 14.0514 9.12501L14.0625 19.125ZM17.6406 17.6406L24.7117 24.7117C27.5334 21.8899 29.1206 18.0641 29.125 14.0736L19.125 14.0625L9.12501 14.0514C9.12646 12.7453 9.64595 11.4931 10.5695 10.5695L17.6406 17.6406ZM19.125 14.0625H29.125V5.0625H19.125H9.125V14.0625H19.125ZM19.125 5.0625L29.125 5.05141C29.1206 1.06089 27.5334 -2.76492 24.7117 -5.58665L17.6406 1.48442L10.5695 8.55548C9.64595 7.63192 9.12646 6.37971 9.12501 5.07359L19.125 5.0625ZM17.6406 1.48442L24.7117 -5.58665C21.8899 -8.40838 18.0641 -9.99557 14.0736 -9.99999L14.0625 0L14.0514 9.99999C12.7453 9.99854 11.4931 9.47905 10.5695 8.55548L17.6406 1.48442ZM18 14.0625H8C8 12.4546 8.63873 10.9126 9.77567 9.77567L16.8467 16.8467L23.9178 23.9178C26.5316 21.304 28 17.759 28 14.0625H18ZM16.8467 16.8467L9.77567 9.77567C10.9126 8.63873 12.4546 8 14.0625 8V18V28C17.759 28 21.304 26.5316 23.9178 23.9178L16.8467 16.8467ZM14.0625 18V8H5.0625V18V28H14.0625V18ZM5.0625 18V8C6.67037 8 8.21239 8.63873 9.34933 9.77567L2.27827 16.8467L-4.7928 23.9178C-2.17901 26.5316 1.36605 28 5.0625 28V18ZM2.27827 16.8467L9.34933 9.77567C10.4863 10.9126 11.125 12.4546 11.125 14.0625H1.125H-8.875C-8.875 17.759 -7.40659 21.304 -4.7928 23.9178L2.27827 16.8467ZM1.125 14.0625H11.125V5.0625H1.125H-8.875V14.0625H1.125ZM1.125 5.0625H11.125C11.125 6.67037 10.4863 8.21239 9.34933 9.34933L2.27827 2.27827L-4.7928 -4.7928C-7.40659 -2.17901 -8.875 1.36605 -8.875 5.0625H1.125ZM2.27827 2.27827L9.34933 9.34933C8.21239 10.4863 6.67037 11.125 5.0625 11.125V1.125V-8.875C1.36605 -8.875 -2.17901 -7.40659 -4.7928 -4.7928L2.27827 2.27827ZM5.0625 1.125V11.125H14.0625V1.125V-8.875H5.0625V1.125ZM14.0625 1.125V11.125C12.4546 11.125 10.9126 10.4863 9.77567 9.34933L16.8467 2.27827L23.9178 -4.7928C21.304 -7.40659 17.759 -8.875 14.0625 -8.875V1.125ZM16.8467 2.27827L9.77567 9.34933C8.63873 8.21239 8 6.67037 8 5.0625H18H28C28 1.36605 26.5316 -2.17901 23.9178 -4.7928L16.8467 2.27827ZM18 5.0625H8V14.0625H18H28V5.0625H18ZM15.375 4.6875H5.375C5.375 2.89511 5.9065 1.14297 6.90231 -0.347355L15.217 5.20835L23.5317 10.764C24.7335 8.96538 25.375 6.85073 25.375 4.6875H15.375ZM15.217 5.20835L6.90231 -0.347355C7.89812 -1.8377 9.3135 -2.99925 10.9694 -3.68516L14.7963 5.55364L18.6231 14.7924C20.6216 13.9646 22.3299 12.5627 23.5317 10.764L15.217 5.20835ZM14.7963 5.55364L10.9694 -3.68516C12.6254 -4.37107 14.4475 -4.55055 16.2055 -4.20087L14.2546 5.60699L12.3037 15.4148C14.4254 15.8369 16.6245 15.6203 18.6231 14.7924L14.7963 5.55364ZM14.2546 5.60699L16.2055 -4.20087C17.9634 -3.85119 19.5782 -2.98808 20.8457 -1.72066L13.7746 5.35041L6.70352 12.4215C8.23317 13.9511 10.1821 14.9928 12.3037 15.4148L14.2546 5.60699ZM13.7746 5.35041L20.8457 -1.72066C22.1131 -0.453212 22.9762 1.16158 23.3259 2.91949L13.518 4.8704L3.71016 6.8213C4.13218 8.94293 5.17385 10.8918 6.70352 12.4215L13.7746 5.35041ZM13.518 4.8704L23.3259 2.91949C23.6755 4.67741 23.4961 6.49957 22.8102 8.15557L13.5714 4.32873L4.33257 0.5019C3.50472 2.50051 3.28814 4.69967 3.71016 6.8213L13.518 4.8704ZM13.5714 4.32873L22.8102 8.15557C22.1242 9.81152 20.9627 11.2269 19.4724 12.2227L13.9167 3.908L8.36095 -4.4067C6.56228 -3.20487 5.1604 -1.49666 4.33257 0.5019L13.5714 4.32873ZM13.9167 3.908L19.4724 12.2227C17.982 13.2185 16.2299 13.75 14.4375 13.75V3.75V-6.25C12.2743 -6.25 10.1596 -5.60853 8.36095 -4.4067L13.9167 3.908ZM14.4375 3.75V13.75C12.034 13.75 9.7289 12.7952 8.02935 11.0957L15.1004 4.02459L22.1715 -3.04648C20.1203 -5.09767 17.3383 -6.25 14.4375 -6.25V3.75ZM15.1004 4.02459L8.02935 11.0957C6.32978 9.39609 5.375 7.091 5.375 4.6875H15.375H25.375C25.375 1.78671 24.2227 -0.995287 22.1715 -3.04648L15.1004 4.02459Z" fill="#F4F1EA" mask="url(#path-1-inside-1_211_492)"/>
</svg>
