<svg width="7" height="8" viewBox="0 0 7 8" fill="none" xmlns="http://www.w3.org/2000/svg">
<path d="M0.305585 6.324C0.332333 6.32401 0.357892 6.33438 0.376929 6.35316C0.396058 6.37222 0.407288 6.39837 0.407339 6.42537L0.407914 6.73103C0.407897 6.75794 0.396771 6.78331 0.377775 6.80238C0.358775 6.82144 0.333454 6.83267 0.306543 6.83279C0.279542 6.83284 0.253349 6.82171 0.234221 6.80265C0.215305 6.78368 0.204908 6.75821 0.20479 6.73142L0.204214 6.42575C0.204163 6.39875 0.214318 6.37256 0.233375 6.35343C0.252421 6.33437 0.278633 6.32405 0.305585 6.324ZM1.83005 4.79378C1.85673 4.79384 1.8824 4.80421 1.90139 4.82294C1.92048 4.84196 1.93171 4.86821 1.9318 4.89515L1.93526 6.72816C1.93524 6.75503 1.92406 6.78044 1.90512 6.7995C1.88616 6.81853 1.86073 6.82975 1.83388 6.82991C1.80688 6.82996 1.78069 6.81883 1.76156 6.79977C1.74259 6.78079 1.73127 6.75538 1.73115 6.72854L1.7277 4.89554C1.7277 4.8686 1.73882 4.8423 1.75784 4.82321C1.77687 4.80427 1.80319 4.79383 1.83005 4.79378ZM3.35354 3.26357C3.38054 3.26352 3.40673 3.27465 3.42586 3.2937C3.44483 3.31266 3.45613 3.33813 3.45627 3.36494L3.4626 6.72528C3.46258 6.7521 3.45134 6.77758 3.43246 6.79663C3.4134 6.81576 3.38725 6.82699 3.36025 6.82704C3.33338 6.82699 3.30795 6.81587 3.2889 6.7969C3.26987 6.77791 3.25861 6.75255 3.2585 6.72567L3.25217 3.36532C3.25221 3.33845 3.26334 3.31302 3.28231 3.29397C3.30128 3.27493 3.32667 3.26371 3.35354 3.26357ZM4.87801 1.73335C4.90501 1.7333 4.9312 1.74443 4.95033 1.76349C4.96937 1.78253 4.97971 1.80876 4.97976 1.8357L4.98896 6.72241C4.98894 6.74919 4.97862 6.77471 4.9598 6.79375C4.94074 6.81288 4.91459 6.82411 4.88759 6.82416C4.86065 6.82417 4.83436 6.81304 4.81527 6.79402C4.79648 6.77507 4.78595 6.74949 4.78584 6.72279L4.77664 1.83608C4.77659 1.80922 4.78692 1.78286 4.8058 1.76376C4.82481 1.74467 4.85106 1.73344 4.87801 1.73335ZM6.40247 0.20411C6.42946 0.204066 6.45567 0.214221 6.47479 0.233271C6.49384 0.252316 6.50418 0.278542 6.50423 0.305481L6.5163 6.71953C6.51628 6.74626 6.5059 6.77185 6.48714 6.79088C6.46809 6.81 6.44192 6.82123 6.41493 6.82129C6.38793 6.82134 6.36174 6.81021 6.34261 6.79115C6.32376 6.77219 6.3133 6.74666 6.31318 6.71991L6.3011 0.305864C6.30105 0.278911 6.31127 0.252661 6.33026 0.233543C6.34932 0.214414 6.37547 0.204161 6.40247 0.20411Z" fill="black" stroke="#04340E" stroke-width="0.407246"/>
</svg>
