<svg width="9" height="7" viewBox="0 0 9 7" fill="none" xmlns="http://www.w3.org/2000/svg">
<path d="M7.08721 0.909583L6.01925 0.911594L5.49267 0.134975C5.46446 0.0933902 5.4263 0.0593185 5.38156 0.0357786C5.33683 0.0122388 5.2869 -4.24645e-05 5.23621 2.29157e-05L2.7705 0.00466516C2.71981 0.00479066 2.66994 0.0172598 2.62529 0.0409679C2.58065 0.064676 2.54261 0.0988912 2.51456 0.140582L1.99052 0.919179L0.922942 0.921189C0.677712 0.92165 0.442707 1.01829 0.269626 1.18984C0.0965442 1.3614 -0.000435866 1.59382 2.00427e-05 1.83597L0.00804207 6.09683C0.00849798 6.33899 0.106352 6.57104 0.280079 6.74194C0.453805 6.91284 0.689172 7.0086 0.934402 7.00813L7.09867 6.99653C7.3439 6.99607 7.57891 6.89943 7.75199 6.72787C7.92507 6.55632 8.02205 6.3239 8.0216 6.08175L8.01357 1.82088C8.01312 1.57873 7.91526 1.34668 7.74154 1.17578C7.56781 1.00487 7.33244 0.909121 7.08721 0.909583ZM7.40517 6.08291C7.40532 6.16362 7.37299 6.2411 7.3153 6.29828C7.25761 6.35547 7.17927 6.38768 7.09753 6.38783L0.933256 6.39944C0.851513 6.39959 0.773057 6.36768 0.715148 6.31071C0.657239 6.25374 0.624621 6.17639 0.624469 6.09567L0.616447 1.83481C0.616295 1.75409 0.648622 1.67662 0.706316 1.61943C0.76401 1.56225 0.842344 1.53004 0.924088 1.52988L2.15694 1.52756C2.2077 1.5275 2.25765 1.51506 2.30237 1.49135C2.34709 1.46764 2.38518 1.43339 2.41328 1.39164L2.93654 0.613049L5.07208 0.609029L5.59866 1.38565C5.62691 1.42729 5.66513 1.46139 5.70994 1.48493C5.75475 1.50848 5.80475 1.52073 5.85551 1.5206L7.08836 1.51828C7.1701 1.51812 7.24856 1.55004 7.30647 1.60701C7.36438 1.66398 7.39699 1.74133 7.39715 1.82204L7.40517 6.08291ZM4.00737 2.13277C3.6721 2.13341 3.34454 2.2322 3.06611 2.41665C2.78769 2.60111 2.57091 2.86295 2.44318 3.16906C2.31545 3.47516 2.28251 3.81179 2.34853 4.13638C2.41455 4.46096 2.57656 4.75892 2.81408 4.99258C3.0516 5.22623 3.35395 5.38508 3.6829 5.44905C4.01185 5.51302 4.35263 5.47923 4.66215 5.35195C4.97166 5.22468 5.23601 5.00963 5.42176 4.73401C5.60751 4.45838 5.70632 4.13456 5.7057 3.80349C5.70435 3.3597 5.52479 2.93456 5.2064 2.62135C4.88801 2.30814 4.4568 2.13243 4.00737 2.13277ZM4.01253 4.8719C3.79917 4.8723 3.59049 4.81022 3.41287 4.69351C3.23525 4.57679 3.09667 4.41069 3.01466 4.2162C2.93264 4.02171 2.91088 3.80757 2.95211 3.60086C2.99334 3.39415 3.09573 3.20416 3.24631 3.0549C3.3969 2.90564 3.58892 2.80383 3.7981 2.76233C4.00728 2.72084 4.22422 2.74152 4.42149 2.82178C4.61875 2.90203 4.78749 3.03824 4.90635 3.21319C5.02522 3.38814 5.08887 3.59397 5.08927 3.80465C5.0898 4.08717 4.97666 4.35832 4.77473 4.55847C4.5728 4.75862 4.29863 4.87136 4.01253 4.8719Z" fill="#04340E" fill-opacity="0.4"/>
</svg>
