<svg width="24" height="24" viewBox="0 0 24 24" fill="none" xmlns="http://www.w3.org/2000/svg">
<path d="M12 2.9375C13.3798 2.93805 14.7412 3.25376 15.9805 3.86035C17.2198 4.46694 18.3045 5.34819 19.1514 6.4375C19.9982 7.52687 20.5849 8.79583 20.8672 10.1465C21.1494 11.497 21.12 12.8942 20.7803 14.2314C20.4405 15.5688 19.7989 16.8111 18.9062 17.8633C18.0136 18.9152 16.8929 19.7497 15.6289 20.3027C14.3648 20.8558 12.9909 21.1132 11.6123 21.0547C10.2337 20.9962 8.88659 20.623 7.67383 19.9648L7.4834 19.8613L7.27734 19.9307L4.00781 21.0195C3.86473 21.0672 3.71124 21.0747 3.56445 21.04C3.41758 21.0054 3.28347 20.93 3.17676 20.8232C3.07006 20.7165 2.99462 20.5824 2.95996 20.4355C2.92535 20.2888 2.93279 20.1353 2.98047 19.9922L4.06934 16.7227L4.13867 16.5166L4.03516 16.3262C3.28525 14.9457 2.90686 13.3939 2.9375 11.8232C2.96817 10.2525 3.40672 8.71636 4.20996 7.36621C5.0132 6.0162 6.1539 4.89846 7.51953 4.12207C8.88522 3.34569 10.4291 2.93717 12 2.9375ZM16.46 4.25684C14.7551 3.27428 12.7739 2.88118 10.8232 3.13965C8.87255 3.39814 7.06197 4.29381 5.67188 5.68652C4.28178 7.07926 3.38956 8.89157 3.13477 10.8428C2.87999 12.794 3.27686 14.7746 4.2627 16.4775C4.26713 16.4852 4.26961 16.4941 4.27051 16.5029C4.27141 16.5117 4.27039 16.5209 4.26758 16.5293L3.09961 20.0312C3.0593 20.1523 3.0537 20.2821 3.08301 20.4062C3.11234 20.5305 3.17536 20.6441 3.26562 20.7344C3.35592 20.8247 3.46947 20.8886 3.59375 20.918C3.71789 20.9472 3.84774 20.9407 3.96875 20.9004L7.47168 19.7324L7.47266 19.7334C7.47933 19.7312 7.48617 19.7299 7.49316 19.7295C7.50436 19.7298 7.51556 19.7319 7.52539 19.7373V19.7383C8.88552 20.5244 10.429 20.9378 12 20.9375C13.9678 20.9368 15.8808 20.2865 17.4414 19.0879C19.0018 17.8893 20.1236 16.2094 20.6318 14.3086C21.1401 12.4076 21.0061 10.3917 20.252 8.57422C19.4977 6.75687 18.1647 5.23939 16.46 4.25684ZM9.75 6.6875H9.75098C9.76246 6.68755 9.77342 6.69124 9.7832 6.69727C9.7931 6.70339 9.80146 6.71223 9.80664 6.72266L9.80762 6.72363L11.3066 9.72168V9.72266C11.3114 9.73238 11.3141 9.74309 11.3135 9.75391C11.3128 9.76471 11.3087 9.77513 11.3027 9.78418L10.3223 11.2539L10.1592 11.498L10.293 11.7588C10.7218 12.5964 11.4036 13.2782 12.2412 13.707L12.502 13.8408L12.7461 13.6777L14.2158 12.6982C14.225 12.6921 14.2361 12.6882 14.2471 12.6875C14.2577 12.6869 14.2687 12.6887 14.2783 12.6934L17.2773 14.1934L17.2783 14.1943C17.2884 14.1995 17.2967 14.2072 17.3027 14.2168C17.3088 14.2267 17.3125 14.2384 17.3125 14.25L17.3086 14.4023C17.2709 15.1589 16.9541 15.8768 16.416 16.415C15.8417 16.9894 15.0622 17.3115 14.25 17.3115C12.2451 17.309 10.323 16.5124 8.90527 15.0947C7.48758 13.677 6.68998 11.7549 6.6875 9.75C6.6875 8.93779 7.01065 8.15929 7.58496 7.58496C8.15928 7.01064 8.93779 6.68751 9.75 6.6875ZM9.3457 6.84082C8.6435 6.93844 7.99972 7.2866 7.53418 7.82129C7.06876 8.35595 6.81256 9.04114 6.8125 9.75V9.75098C6.81499 11.7225 7.5991 13.6128 8.99316 15.0068C10.3002 16.3139 12.0435 17.0845 13.8809 17.1777L14.249 17.1875H14.25C14.9589 17.1874 15.6441 16.9312 16.1787 16.4658C16.7134 16.0003 17.0616 15.3565 17.1592 14.6543L17.209 14.2988L16.8877 14.1387L14.5137 12.9512L14.2549 12.8213L14.0127 12.9824L12.5527 13.9561C12.5442 13.9617 12.5346 13.9658 12.5244 13.9668C12.5142 13.9678 12.5036 13.9659 12.4941 13.9619C11.3861 13.4954 10.5046 12.6139 10.0381 11.5059C10.0341 11.4964 10.0322 11.4858 10.0332 11.4756C10.0342 11.4654 10.0373 11.4548 10.043 11.4463L11.0176 9.9873L11.1787 9.74609L11.0488 9.48633L9.86133 7.1123L9.70117 6.79102L9.3457 6.84082Z" fill="white" stroke="white"/>
</svg>
